<?xml version="1.0" encoding="UTF-8"?>
<svg xmlns="http://www.w3.org/2000/svg" width="1240" height="1754" viewBox="0 0 1240 1754" font-family="Arial,Helvetica,sans-serif">
  <!-- Background gradient -->
  <defs>
    <linearGradient id="bg" x1="0" y1="0" x2="0" y2="1">
      <stop offset="0%" stop-color="#1e3a8a"/>
      <stop offset="55%" stop-color="#1e40af"/>
      <stop offset="100%" stop-color="#0f172a"/>
    </linearGradient>
  </defs>
  <rect width="1240" height="1754" fill="url(#bg)"/>

  <!-- Decorative circles -->
  <circle cx="1100" cy="150" r="280" fill="#ffffff08"/>
  <circle cx="1000" cy="200" r="180" fill="#ffffff05"/>
  <circle cx="140"  cy="1600" r="220" fill="#ffffff06"/>

  <!-- Top accent bar -->
  <rect x="0" y="0" width="1240" height="8" fill="#3b82f6"/>

  <!-- College Logo Area -->
  <rect x="520" y="100" width="200" height="200" rx="100" fill="#1d4ed8" stroke="#60a5fa" stroke-width="3"/>
  <text x="620" y="170" text-anchor="middle" font-size="48" font-weight="900" fill="white">B</text>
  <text x="620" y="220" text-anchor="middle" font-size="18" font-weight="700" fill="#bfdbfe">PUT</text>
  <text x="620" y="244" text-anchor="middle" font-size="11" fill="#93c5fd">ROURKELA</text>

  <!-- Project Title -->
  <text x="620" y="380" text-anchor="middle" font-size="13" fill="#93c5fd" font-weight="600" letter-spacing="4">PROJECT DOCUMENTATION</text>
  <rect x="200" y="398" width="840" height="3" fill="#3b82f6" rx="2"/>

  <text x="620" y="464" text-anchor="middle" font-size="36" font-weight="900" fill="white">CUPGS Academic</text>
  <text x="620" y="512" text-anchor="middle" font-size="36" font-weight="900" fill="white">Feedback Manager</text>

  <rect x="200" y="530" width="840" height="3" fill="#3b82f6" rx="2"/>
  <text x="620" y="564" text-anchor="middle" font-size="15" fill="#bfdbfe">Anonymous Student Feedback System</text>
  <text x="620" y="588" text-anchor="middle" font-size="15" fill="#bfdbfe">with Role-Based Access Control</text>

  <!-- Info Cards -->
  <rect x="120" y="640" width="460" height="120" rx="10" fill="#ffffff15" stroke="#3b82f690" stroke-width="1"/>
  <text x="350" y="672" text-anchor="middle" font-size="11" fill="#93c5fd" font-weight="700">INSTITUTION</text>
  <text x="350" y="696" text-anchor="middle" font-size="16" font-weight="700" fill="white">Centre for Urban &amp; Planning</text>
  <text x="350" y="718" text-anchor="middle" font-size="15" fill="white">Graduate Studies (CUPGS)</text>
  <text x="350" y="742" text-anchor="middle" font-size="13" fill="#bfdbfe">BPUT Rourkela, Odisha</text>

  <rect x="660" y="640" width="460" height="120" rx="10" fill="#ffffff15" stroke="#3b82f690" stroke-width="1"/>
  <text x="890" y="672" text-anchor="middle" font-size="11" fill="#93c5fd" font-weight="700">SYSTEM TYPE</text>
  <text x="890" y="696" text-anchor="middle" font-size="16" font-weight="700" fill="white">Full-Stack Web Application</text>
  <text x="890" y="718" text-anchor="middle" font-size="15" fill="white">Progressive Web App (PWA)</text>
  <text x="890" y="742" text-anchor="middle" font-size="13" fill="#bfdbfe">Cross-Platform · Dark Theme</text>

  <!-- Tech Stack Pills -->
  <text x="620" y="810" text-anchor="middle" font-size="12" fill="#93c5fd" font-weight="600">TECHNOLOGY STACK</text>
  <rect x="155" y="828" width="200" height="34" rx="17" fill="#1d4ed8" stroke="#60a5fa" stroke-width="1"/>
    <text x="255" y="850" text-anchor="middle" font-size="12" font-weight="600" fill="white">React 18</text><rect x="395" y="828" width="200" height="34" rx="17" fill="#1d4ed8" stroke="#60a5fa" stroke-width="1"/>
    <text x="495" y="850" text-anchor="middle" font-size="12" font-weight="600" fill="white">TypeScript</text><rect x="635" y="828" width="200" height="34" rx="17" fill="#1d4ed8" stroke="#60a5fa" stroke-width="1"/>
    <text x="735" y="850" text-anchor="middle" font-size="12" font-weight="600" fill="white">Node.js</text><rect x="875" y="828" width="200" height="34" rx="17" fill="#1d4ed8" stroke="#60a5fa" stroke-width="1"/>
    <text x="975" y="850" text-anchor="middle" font-size="12" font-weight="600" fill="white">Express</text><rect x="155" y="876" width="200" height="34" rx="17" fill="#1d4ed8" stroke="#60a5fa" stroke-width="1"/>
    <text x="255" y="898" text-anchor="middle" font-size="12" font-weight="600" fill="white">PostgreSQL</text><rect x="395" y="876" width="200" height="34" rx="17" fill="#1d4ed8" stroke="#60a5fa" stroke-width="1"/>
    <text x="495" y="898" text-anchor="middle" font-size="12" font-weight="600" fill="white">Drizzle ORM</text><rect x="635" y="876" width="200" height="34" rx="17" fill="#1d4ed8" stroke="#60a5fa" stroke-width="1"/>
    <text x="735" y="898" text-anchor="middle" font-size="12" font-weight="600" fill="white">Tailwind CSS</text><rect x="875" y="876" width="200" height="34" rx="17" fill="#1d4ed8" stroke="#60a5fa" stroke-width="1"/>
    <text x="975" y="898" text-anchor="middle" font-size="12" font-weight="600" fill="white">jsPDF</text>

  <!-- Document Info -->
  <rect x="120" y="980" width="1000" height="1" fill="#3b82f650"/>
  <text x="620" y="1010" text-anchor="middle" font-size="12" fill="#64748b">Academic Year 2024-25 · Version 1.0 · Confidential</text>

  <!-- Departments Covered -->
  <text x="620" y="1080" text-anchor="middle" font-size="13" fill="#93c5fd" font-weight="600">DEPARTMENTS COVERED</text>
  <rect x="220" y="1100" width="380" height="34" rx="5" fill="#1e3a8a" stroke="#3b82f6" stroke-width="1"/>
    <text x="410" y="1122" text-anchor="middle" font-size="11" fill="white">Computer Science &amp; Engineering (CSE)</text><rect x="630" y="1100" width="380" height="34" rx="5" fill="#1e3a8a" stroke="#3b82f6" stroke-width="1"/>
    <text x="820" y="1122" text-anchor="middle" font-size="11" fill="white">Electronics &amp; Communication Engineering (ECE)</text><rect x="220" y="1146" width="380" height="34" rx="5" fill="#1e3a8a" stroke="#3b82f6" stroke-width="1"/>
    <text x="410" y="1168" text-anchor="middle" font-size="11" fill="white">Electrical Engineering (EE)</text><rect x="630" y="1146" width="380" height="34" rx="5" fill="#1e3a8a" stroke="#3b82f6" stroke-width="1"/>
    <text x="820" y="1168" text-anchor="middle" font-size="11" fill="white">Mechanical Engineering (ME)</text><rect x="220" y="1192" width="380" height="34" rx="5" fill="#1e3a8a" stroke="#3b82f6" stroke-width="1"/>
    <text x="410" y="1214" text-anchor="middle" font-size="11" fill="white">Civil Engineering (CE)</text>
  <rect x="430" y="1284" width="380" height="34" rx="5" fill="#1e3a8a" stroke="#3b82f6" stroke-width="1"/>
  <text x="620" y="1306" text-anchor="middle" font-size="11" fill="white">Civil Engineering (CE)</text>

  <!-- Table of Contents Preview -->
  <rect x="120" y="1380" width="1000" height="280" rx="10" fill="#ffffff10" stroke="#3b82f640" stroke-width="1"/>
  <text x="620" y="1412" text-anchor="middle" font-size="14" font-weight="700" fill="#60a5fa">TABLE OF CONTENTS</text>
  <text x="160" y="1434" font-size="12" fill="#bfdbfe">1. Project Overview &amp; Objectives</text>
    <text x="1080" y="1434" text-anchor="end" font-size="12" fill="#60a5fa" font-weight="600">Page 2</text>
    <line x1="160" y1="1438" x2="1080" y2="1438" stroke="#3b82f620" stroke-width="0.5" stroke-dasharray="4,4"/><text x="160" y="1460" font-size="12" fill="#bfdbfe">2. Problem Statement &amp; Solution</text>
    <text x="1080" y="1460" text-anchor="end" font-size="12" fill="#60a5fa" font-weight="600">Page 3</text>
    <line x1="160" y1="1464" x2="1080" y2="1464" stroke="#3b82f620" stroke-width="0.5" stroke-dasharray="4,4"/><text x="160" y="1486" font-size="12" fill="#bfdbfe">3. System Architecture &amp; Features</text>
    <text x="1080" y="1486" text-anchor="end" font-size="12" fill="#60a5fa" font-weight="600">Page 4</text>
    <line x1="160" y1="1490" x2="1080" y2="1490" stroke="#3b82f620" stroke-width="0.5" stroke-dasharray="4,4"/><text x="160" y="1512" font-size="12" fill="#bfdbfe">4. User Roles &amp; Access Control</text>
    <text x="1080" y="1512" text-anchor="end" font-size="12" fill="#60a5fa" font-weight="600">Page 5</text>
    <line x1="160" y1="1516" x2="1080" y2="1516" stroke="#3b82f620" stroke-width="0.5" stroke-dasharray="4,4"/><text x="160" y="1538" font-size="12" fill="#bfdbfe">5. Module-wise Explanation</text>
    <text x="1080" y="1538" text-anchor="end" font-size="12" fill="#60a5fa" font-weight="600">Page 6</text>
    <line x1="160" y1="1542" x2="1080" y2="1542" stroke="#3b82f620" stroke-width="0.5" stroke-dasharray="4,4"/><text x="160" y="1564" font-size="12" fill="#bfdbfe">6. Technology Stack &amp; Design</text>
    <text x="1080" y="1564" text-anchor="end" font-size="12" fill="#60a5fa" font-weight="600">Page 7</text>
    <line x1="160" y1="1568" x2="1080" y2="1568" stroke="#3b82f620" stroke-width="0.5" stroke-dasharray="4,4"/><text x="160" y="1590" font-size="12" fill="#bfdbfe">7. How To Use The System</text>
    <text x="1080" y="1590" text-anchor="end" font-size="12" fill="#60a5fa" font-weight="600">Page 8</text>
    <line x1="160" y1="1594" x2="1080" y2="1594" stroke="#3b82f620" stroke-width="0.5" stroke-dasharray="4,4"/><text x="160" y="1616" font-size="12" fill="#bfdbfe">8. Data Flow &amp; Security</text>
    <text x="1080" y="1616" text-anchor="end" font-size="12" fill="#60a5fa" font-weight="600">Page 9</text>
    <line x1="160" y1="1620" x2="1080" y2="1620" stroke="#3b82f620" stroke-width="0.5" stroke-dasharray="4,4"/><text x="160" y="1642" font-size="12" fill="#bfdbfe">9. Summary &amp; Future Scope</text>
    <text x="1080" y="1642" text-anchor="end" font-size="12" fill="#60a5fa" font-weight="600">Page 10</text>
    <line x1="160" y1="1646" x2="1080" y2="1646" stroke="#3b82f620" stroke-width="0.5" stroke-dasharray="4,4"/>

  <!-- Footer -->
  <rect x="0" y="1706" width="1240" height="48" fill="#0f172a"/>
  <text x="620" y="1734" text-anchor="middle" font-size="11" fill="#475569">CUPGS Feedback Management System · Project Documentation · BPUT Rourkela</text>
</svg>