<?xml version="1.0" encoding="UTF-8"?>
<svg xmlns="http://www.w3.org/2000/svg" width="1240" height="1754" viewBox="0 0 1240 1754" font-family="Arial,Helvetica,sans-serif">
  <rect width="1240" height="1754" fill="white"/>
  <rect x="0" y="0" width="1240" height="72" fill="#1e3a8a"/>
  <text x="60" y="32" font-size="13" fill="#93c5fd">CUPGS Academic Feedback Management System</text>
  <text x="60" y="54" font-size="20" font-weight="800" fill="white">7. How To Use The System (Step-by-Step Guides)</text>
  <text x="1180" y="42" text-anchor="end" font-size="12" fill="#93c5fd">Page 8 of 10</text>

  
    <rect x="40" y="88" width="1160" height="380" rx="8" fill="#eff6ff" stroke="#bfdbfe" stroke-width="1.5"/>
    <rect x="40" y="88" width="1160" height="44" rx="8" fill="#1e3a8a"/>
    <text x="68" y="116" font-size="17" font-weight="800" fill="white">STUDENT -- Step by Step Guide</text>
    <rect x="56" y="142" width="370" height="98" rx="6" fill="white" stroke="#bfdbfe" stroke-width="1"/>
      <rect x="56" y="142" width="370" height="8" rx="3" fill="#1e3a8a"/>
      <rect x="66" y="160" width="28" height="28" rx="14" fill="#1e3a8a"/>
      <text x="80" y="178" text-anchor="middle" font-size="12" font-weight="800" fill="white">1</text>
      <text x="104" y="174" font-size="12" font-weight="700" fill="#1e3a8a">Open the App</text>
      <text x="104" y="188" font-size="10" fill="#64748b">Navigate to the app URL in any browser, or</text>
<text x="104" y="204" font-size="10" fill="#64748b">launch the installed PWA</text><rect x="446" y="142" width="370" height="98" rx="6" fill="white" stroke="#bfdbfe" stroke-width="1"/>
      <rect x="446" y="142" width="370" height="8" rx="3" fill="#1e3a8a"/>
      <rect x="456" y="160" width="28" height="28" rx="14" fill="#1e3a8a"/>
      <text x="470" y="178" text-anchor="middle" font-size="12" font-weight="800" fill="white">2</text>
      <text x="494" y="174" font-size="12" font-weight="700" fill="#1e3a8a">Select Role</text>
      <text x="494" y="188" font-size="10" fill="#64748b">Choose 'Student' from the role selector on</text>
<text x="494" y="204" font-size="10" fill="#64748b">the login screen</text><rect x="836" y="142" width="370" height="98" rx="6" fill="white" stroke="#bfdbfe" stroke-width="1"/>
      <rect x="836" y="142" width="370" height="8" rx="3" fill="#1e3a8a"/>
      <rect x="846" y="160" width="28" height="28" rx="14" fill="#1e3a8a"/>
      <text x="860" y="178" text-anchor="middle" font-size="12" font-weight="800" fill="white">3</text>
      <text x="884" y="174" font-size="12" font-weight="700" fill="#1e3a8a">Log In</text>
      <text x="884" y="188" font-size="10" fill="#64748b">Enter ID (e.g. CUPGS/CSE/042) and 4-digit</text>
<text x="884" y="204" font-size="10" fill="#64748b">PIN, then click Login</text><rect x="56" y="250" width="370" height="98" rx="6" fill="white" stroke="#bfdbfe" stroke-width="1"/>
      <rect x="56" y="250" width="370" height="8" rx="3" fill="#1e3a8a"/>
      <rect x="66" y="268" width="28" height="28" rx="14" fill="#1e3a8a"/>
      <text x="80" y="286" text-anchor="middle" font-size="12" font-weight="800" fill="white">4</text>
      <text x="104" y="282" font-size="12" font-weight="700" fill="#1e3a8a">Select Course</text>
      <text x="104" y="296" font-size="10" fill="#64748b">Pick your department, then choose the</text>
<text x="104" y="312" font-size="10" fill="#64748b">specific course from the dropdown</text><rect x="446" y="250" width="370" height="98" rx="6" fill="white" stroke="#bfdbfe" stroke-width="1"/>
      <rect x="446" y="250" width="370" height="8" rx="3" fill="#1e3a8a"/>
      <rect x="456" y="268" width="28" height="28" rx="14" fill="#1e3a8a"/>
      <text x="470" y="286" text-anchor="middle" font-size="12" font-weight="800" fill="white">5</text>
      <text x="494" y="282" font-size="12" font-weight="700" fill="#1e3a8a">Rate Each Category</text>
      <text x="494" y="296" font-size="10" fill="#64748b">Drag the star control to set ratings in 0.5</text>
<text x="494" y="312" font-size="10" fill="#64748b">steps for all 5 categories</text><rect x="836" y="250" width="370" height="98" rx="6" fill="white" stroke="#bfdbfe" stroke-width="1"/>
      <rect x="836" y="250" width="370" height="8" rx="3" fill="#1e3a8a"/>
      <rect x="846" y="268" width="28" height="28" rx="14" fill="#1e3a8a"/>
      <text x="860" y="286" text-anchor="middle" font-size="12" font-weight="800" fill="white">6</text>
      <text x="884" y="282" font-size="12" font-weight="700" fill="#1e3a8a">Add Comments</text>
      <text x="884" y="296" font-size="10" fill="#64748b">Optionally type text comments for each</text>
<text x="884" y="312" font-size="10" fill="#64748b">rating category</text><rect x="56" y="358" width="370" height="98" rx="6" fill="white" stroke="#bfdbfe" stroke-width="1"/>
      <rect x="56" y="358" width="370" height="8" rx="3" fill="#1e3a8a"/>
      <rect x="66" y="376" width="28" height="28" rx="14" fill="#1e3a8a"/>
      <text x="80" y="394" text-anchor="middle" font-size="12" font-weight="800" fill="white">7</text>
      <text x="104" y="390" font-size="12" font-weight="700" fill="#1e3a8a">Custom Questions</text>
      <text x="104" y="404" font-size="10" fill="#64748b">Fill in any custom questions the HOD has</text>
<text x="104" y="420" font-size="10" fill="#64748b">added for your department</text><rect x="446" y="358" width="370" height="98" rx="6" fill="white" stroke="#bfdbfe" stroke-width="1"/>
      <rect x="446" y="358" width="370" height="8" rx="3" fill="#1e3a8a"/>
      <rect x="456" y="376" width="28" height="28" rx="14" fill="#1e3a8a"/>
      <text x="470" y="394" text-anchor="middle" font-size="12" font-weight="800" fill="white">8</text>
      <text x="494" y="390" font-size="12" font-weight="700" fill="#1e3a8a">Submit</text>
      <text x="494" y="404" font-size="10" fill="#64748b">Click 'Submit Feedback' and copy the</text>
<text x="494" y="420" font-size="10" fill="#64748b">Reference ID shown on screen</text><rect x="836" y="358" width="370" height="98" rx="6" fill="white" stroke="#bfdbfe" stroke-width="1"/>
      <rect x="836" y="358" width="370" height="8" rx="3" fill="#1e3a8a"/>
      <rect x="846" y="376" width="28" height="28" rx="14" fill="#1e3a8a"/>
      <text x="860" y="394" text-anchor="middle" font-size="12" font-weight="800" fill="white">9</text>
      <text x="884" y="390" font-size="12" font-weight="700" fill="#1e3a8a">Verify (Optional)</text>
      <text x="884" y="404" font-size="10" fill="#64748b">Use the Reference ID on the verification</text>
<text x="884" y="420" font-size="10" fill="#64748b">page to confirm your submission</text>
    <rect x="40" y="484" width="1160" height="380" rx="8" fill="#f0fdf4" stroke="#bbf7d0" stroke-width="1.5"/>
    <rect x="40" y="484" width="1160" height="44" rx="8" fill="#065f46"/>
    <text x="68" y="512" font-size="17" font-weight="800" fill="white">HOD (Head of Department) -- Step by Step Guide</text>
    <rect x="56" y="538" width="370" height="98" rx="6" fill="white" stroke="#bbf7d0" stroke-width="1"/>
      <rect x="56" y="538" width="370" height="8" rx="3" fill="#065f46"/>
      <rect x="66" y="556" width="28" height="28" rx="14" fill="#065f46"/>
      <text x="80" y="574" text-anchor="middle" font-size="12" font-weight="800" fill="white">1</text>
      <text x="104" y="570" font-size="12" font-weight="700" fill="#065f46">Log In</text>
      <text x="104" y="584" font-size="10" fill="#64748b">Enter ID (e.g. HOD/CSE/001) and password</text>
<text x="104" y="600" font-size="10" fill="#64748b">(e.g. CSE@2025)</text><rect x="446" y="538" width="370" height="98" rx="6" fill="white" stroke="#bbf7d0" stroke-width="1"/>
      <rect x="446" y="538" width="370" height="8" rx="3" fill="#065f46"/>
      <rect x="456" y="556" width="28" height="28" rx="14" fill="#065f46"/>
      <text x="470" y="574" text-anchor="middle" font-size="12" font-weight="800" fill="white">2</text>
      <text x="494" y="570" font-size="12" font-weight="700" fill="#065f46">View Dashboard</text>
      <text x="494" y="584" font-size="10" fill="#64748b">Department analytics load automatically —</text>
<text x="494" y="600" font-size="10" fill="#64748b">total feedback count and overall average</text><rect x="836" y="538" width="370" height="98" rx="6" fill="white" stroke="#bbf7d0" stroke-width="1"/>
      <rect x="836" y="538" width="370" height="8" rx="3" fill="#065f46"/>
      <rect x="846" y="556" width="28" height="28" rx="14" fill="#065f46"/>
      <text x="860" y="574" text-anchor="middle" font-size="12" font-weight="800" fill="white">3</text>
      <text x="884" y="570" font-size="12" font-weight="700" fill="#065f46">Analyze by Course</text>
      <text x="884" y="584" font-size="10" fill="#64748b">Review the per-course table showing</text>
<text x="884" y="600" font-size="10" fill="#64748b">5-category rating breakdown for every course</text><rect x="56" y="646" width="370" height="98" rx="6" fill="white" stroke="#bbf7d0" stroke-width="1"/>
      <rect x="56" y="646" width="370" height="8" rx="3" fill="#065f46"/>
      <rect x="66" y="664" width="28" height="28" rx="14" fill="#065f46"/>
      <text x="80" y="682" text-anchor="middle" font-size="12" font-weight="800" fill="white">4</text>
      <text x="104" y="678" font-size="12" font-weight="700" fill="#065f46">Sort and Filter</text>
      <text x="104" y="692" font-size="10" fill="#64748b">Click column headers to sort by any rating</text>
<text x="104" y="708" font-size="10" fill="#64748b">category — find top and bottom performers</text><rect x="446" y="646" width="370" height="98" rx="6" fill="white" stroke="#bbf7d0" stroke-width="1"/>
      <rect x="446" y="646" width="370" height="8" rx="3" fill="#065f46"/>
      <rect x="456" y="664" width="28" height="28" rx="14" fill="#065f46"/>
      <text x="470" y="682" text-anchor="middle" font-size="12" font-weight="800" fill="white">5</text>
      <text x="494" y="678" font-size="12" font-weight="700" fill="#065f46">Download PDF</text>
      <text x="494" y="692" font-size="10" fill="#64748b">Click 'Download PDF Report' to get a fully</text>
<text x="494" y="708" font-size="10" fill="#64748b">formatted department report</text><rect x="836" y="646" width="370" height="98" rx="6" fill="white" stroke="#bbf7d0" stroke-width="1"/>
      <rect x="836" y="646" width="370" height="8" rx="3" fill="#065f46"/>
      <rect x="846" y="664" width="28" height="28" rx="14" fill="#065f46"/>
      <text x="860" y="682" text-anchor="middle" font-size="12" font-weight="800" fill="white">6</text>
      <text x="884" y="678" font-size="12" font-weight="700" fill="#065f46">Customize Form</text>
      <text x="884" y="692" font-size="10" fill="#64748b">Use the 'Form Builder' section to add,</text>
<text x="884" y="708" font-size="10" fill="#64748b">reorder, or delete custom questions</text><rect x="56" y="754" width="370" height="98" rx="6" fill="white" stroke="#bbf7d0" stroke-width="1"/>
      <rect x="56" y="754" width="370" height="8" rx="3" fill="#065f46"/>
      <rect x="66" y="772" width="28" height="28" rx="14" fill="#065f46"/>
      <text x="80" y="790" text-anchor="middle" font-size="12" font-weight="800" fill="white">7</text>
      <text x="104" y="786" font-size="12" font-weight="700" fill="#065f46">Check Window</text>
      <text x="104" y="800" font-size="10" fill="#64748b">Review the Feedback Window panel to see if a</text>
<text x="104" y="816" font-size="10" fill="#64748b">window is active and its date range</text>
    <rect x="40" y="880" width="1160" height="380" rx="8" fill="#fef2f2" stroke="#fecaca" stroke-width="1.5"/>
    <rect x="40" y="880" width="1160" height="44" rx="8" fill="#7c2d12"/>
    <text x="68" y="908" font-size="17" font-weight="800" fill="white">ADMIN -- Step by Step Guide</text>
    <rect x="56" y="934" width="370" height="98" rx="6" fill="white" stroke="#fecaca" stroke-width="1"/>
      <rect x="56" y="934" width="370" height="8" rx="3" fill="#7c2d12"/>
      <rect x="66" y="952" width="28" height="28" rx="14" fill="#7c2d12"/>
      <text x="80" y="970" text-anchor="middle" font-size="12" font-weight="800" fill="white">1</text>
      <text x="104" y="966" font-size="12" font-weight="700" fill="#7c2d12">Log In</text>
      <text x="104" y="980" font-size="10" fill="#64748b">Enter Admin ID (bput@admin2025) and the</text>
<text x="104" y="996" font-size="10" fill="#64748b">configured admin password</text><rect x="446" y="934" width="370" height="98" rx="6" fill="white" stroke="#fecaca" stroke-width="1"/>
      <rect x="446" y="934" width="370" height="8" rx="3" fill="#7c2d12"/>
      <rect x="456" y="952" width="28" height="28" rx="14" fill="#7c2d12"/>
      <text x="470" y="970" text-anchor="middle" font-size="12" font-weight="800" fill="white">2</text>
      <text x="494" y="966" font-size="12" font-weight="700" fill="#7c2d12">Institution View</text>
      <text x="494" y="980" font-size="10" fill="#64748b">See the combined analytics summary for all 5</text>
<text x="494" y="996" font-size="10" fill="#64748b">departments at a glance</text><rect x="836" y="934" width="370" height="98" rx="6" fill="white" stroke="#fecaca" stroke-width="1"/>
      <rect x="836" y="934" width="370" height="8" rx="3" fill="#7c2d12"/>
      <rect x="846" y="952" width="28" height="28" rx="14" fill="#7c2d12"/>
      <text x="860" y="970" text-anchor="middle" font-size="12" font-weight="800" fill="white">3</text>
      <text x="884" y="966" font-size="12" font-weight="700" fill="#7c2d12">Manage Courses</text>
      <text x="884" y="980" font-size="10" fill="#64748b">Add new courses, assign faculty, set</text>
<text x="884" y="996" font-size="10" fill="#64748b">semester number and academic year</text><rect x="56" y="1042" width="370" height="98" rx="6" fill="white" stroke="#fecaca" stroke-width="1"/>
      <rect x="56" y="1042" width="370" height="8" rx="3" fill="#7c2d12"/>
      <rect x="66" y="1060" width="28" height="28" rx="14" fill="#7c2d12"/>
      <text x="80" y="1078" text-anchor="middle" font-size="12" font-weight="800" fill="white">4</text>
      <text x="104" y="1074" font-size="12" font-weight="700" fill="#7c2d12">Manage Faculty</text>
      <text x="104" y="1088" font-size="10" fill="#64748b">Add or edit faculty records, assign to</text>
<text x="104" y="1104" font-size="10" fill="#64748b">departments, deactivate as needed</text><rect x="446" y="1042" width="370" height="98" rx="6" fill="white" stroke="#fecaca" stroke-width="1"/>
      <rect x="446" y="1042" width="370" height="8" rx="3" fill="#7c2d12"/>
      <rect x="456" y="1060" width="28" height="28" rx="14" fill="#7c2d12"/>
      <text x="470" y="1078" text-anchor="middle" font-size="12" font-weight="800" fill="white">5</text>
      <text x="494" y="1074" font-size="12" font-weight="700" fill="#7c2d12">Create Window</text>
      <text x="494" y="1088" font-size="10" fill="#64748b">Set a title, description, start date, end</text>
<text x="494" y="1104" font-size="10" fill="#64748b">date, and target department (or global)</text><rect x="836" y="1042" width="370" height="98" rx="6" fill="white" stroke="#fecaca" stroke-width="1"/>
      <rect x="836" y="1042" width="370" height="8" rx="3" fill="#7c2d12"/>
      <rect x="846" y="1060" width="28" height="28" rx="14" fill="#7c2d12"/>
      <text x="860" y="1078" text-anchor="middle" font-size="12" font-weight="800" fill="white">6</text>
      <text x="884" y="1074" font-size="12" font-weight="700" fill="#7c2d12">Toggle Window</text>
      <text x="884" y="1088" font-size="10" fill="#64748b">Flip the Active toggle on any window to open</text>
<text x="884" y="1104" font-size="10" fill="#64748b">or close feedback collection</text><rect x="56" y="1150" width="370" height="98" rx="6" fill="white" stroke="#fecaca" stroke-width="1"/>
      <rect x="56" y="1150" width="370" height="8" rx="3" fill="#7c2d12"/>
      <rect x="66" y="1168" width="28" height="28" rx="14" fill="#7c2d12"/>
      <text x="80" y="1186" text-anchor="middle" font-size="12" font-weight="800" fill="white">7</text>
      <text x="104" y="1182" font-size="12" font-weight="700" fill="#7c2d12">Cross-Dept View</text>
      <text x="104" y="1196" font-size="10" fill="#64748b">Use the comparison panel to see relative</text>
<text x="104" y="1212" font-size="10" fill="#64748b">performance across all departments</text>
    <rect x="40" y="1276" width="1160" height="380" rx="8" fill="#fdf4ff" stroke="#e9d5ff" stroke-width="1.5"/>
    <rect x="40" y="1276" width="1160" height="44" rx="8" fill="#4c1d95"/>
    <text x="68" y="1304" font-size="17" font-weight="800" fill="white">FACULTY -- Step by Step Guide</text>
    <rect x="56" y="1330" width="370" height="98" rx="6" fill="white" stroke="#e9d5ff" stroke-width="1"/>
      <rect x="56" y="1330" width="370" height="8" rx="3" fill="#4c1d95"/>
      <rect x="66" y="1348" width="28" height="28" rx="14" fill="#4c1d95"/>
      <text x="80" y="1366" text-anchor="middle" font-size="12" font-weight="800" fill="white">1</text>
      <text x="104" y="1362" font-size="12" font-weight="700" fill="#4c1d95">Log In</text>
      <text x="104" y="1376" font-size="10" fill="#64748b">Enter Faculty ID (e.g. CUPGS/CSE/101) and</text>
<text x="104" y="1392" font-size="10" fill="#64748b">4-digit PIN</text><rect x="446" y="1330" width="370" height="98" rx="6" fill="white" stroke="#e9d5ff" stroke-width="1"/>
      <rect x="446" y="1330" width="370" height="8" rx="3" fill="#4c1d95"/>
      <rect x="456" y="1348" width="28" height="28" rx="14" fill="#4c1d95"/>
      <text x="470" y="1366" text-anchor="middle" font-size="12" font-weight="800" fill="white">2</text>
      <text x="494" y="1362" font-size="12" font-weight="700" fill="#4c1d95">View My Courses</text>
      <text x="494" y="1376" font-size="10" fill="#64748b">The dashboard lists all courses assigned to</text>
<text x="494" y="1392" font-size="10" fill="#64748b">you in the current semester</text><rect x="836" y="1330" width="370" height="98" rx="6" fill="white" stroke="#e9d5ff" stroke-width="1"/>
      <rect x="836" y="1330" width="370" height="8" rx="3" fill="#4c1d95"/>
      <rect x="846" y="1348" width="28" height="28" rx="14" fill="#4c1d95"/>
      <text x="860" y="1366" text-anchor="middle" font-size="12" font-weight="800" fill="white">3</text>
      <text x="884" y="1362" font-size="12" font-weight="700" fill="#4c1d95">Select a Course</text>
      <text x="884" y="1376" font-size="10" fill="#64748b">Click on any course to see detailed feedback</text>
<text x="884" y="1392" font-size="10" fill="#64748b">analytics for that course</text><rect x="56" y="1438" width="370" height="98" rx="6" fill="white" stroke="#e9d5ff" stroke-width="1"/>
      <rect x="56" y="1438" width="370" height="8" rx="3" fill="#4c1d95"/>
      <rect x="66" y="1456" width="28" height="28" rx="14" fill="#4c1d95"/>
      <text x="80" y="1474" text-anchor="middle" font-size="12" font-weight="800" fill="white">4</text>
      <text x="104" y="1470" font-size="12" font-weight="700" fill="#4c1d95">Review Ratings</text>
      <text x="104" y="1484" font-size="10" fill="#64748b">See average ratings for each of the 5</text>
<text x="104" y="1500" font-size="10" fill="#64748b">categories and the overall average</text><rect x="446" y="1438" width="370" height="98" rx="6" fill="white" stroke="#e9d5ff" stroke-width="1"/>
      <rect x="446" y="1438" width="370" height="8" rx="3" fill="#4c1d95"/>
      <rect x="456" y="1456" width="28" height="28" rx="14" fill="#4c1d95"/>
      <text x="470" y="1474" text-anchor="middle" font-size="12" font-weight="800" fill="white">5</text>
      <text x="494" y="1470" font-size="12" font-weight="700" fill="#4c1d95">Read Comments</text>
      <text x="494" y="1484" font-size="10" fill="#64748b">Anonymous student comments are displayed</text>
<text x="494" y="1500" font-size="10" fill="#64748b">below the ratings — no names shown</text><rect x="836" y="1438" width="370" height="98" rx="6" fill="white" stroke="#e9d5ff" stroke-width="1"/>
      <rect x="836" y="1438" width="370" height="8" rx="3" fill="#4c1d95"/>
      <rect x="846" y="1456" width="28" height="28" rx="14" fill="#4c1d95"/>
      <text x="860" y="1474" text-anchor="middle" font-size="12" font-weight="800" fill="white">6</text>
      <text x="884" y="1470" font-size="12" font-weight="700" fill="#4c1d95">Track Progress</text>
      <text x="884" y="1484" font-size="10" fill="#64748b">Switch between semesters to compare how your</text>
<text x="884" y="1500" font-size="10" fill="#64748b">ratings have changed over time</text>

  <rect x="0" y="1714" width="1240" height="40" fill="#0f172a"/>
  <text x="620" y="1738" text-anchor="middle" font-size="10" fill="#475569">CUPGS Feedback Manager  |  Project Documentation</text>
  <text x="1200" y="1738" text-anchor="end" font-size="10" fill="#475569">8 / 10</text>
</svg>