<?xml version="1.0" encoding="UTF-8"?>
<svg xmlns="http://www.w3.org/2000/svg" width="1240" height="1754" viewBox="0 0 1240 1754" font-family="Arial,Helvetica,sans-serif">
  <rect width="1240" height="1754" fill="white"/>
  <rect x="0" y="0" width="1240" height="72" fill="#1e3a8a"/>
  <text x="60" y="32" font-size="13" fill="#93c5fd">CUPGS Academic Feedback Management System</text>
  <text x="60" y="54" font-size="20" font-weight="800" fill="white">8. Data Flow &amp; Security Design</text>
  <text x="1180" y="42" text-anchor="end" font-size="12" fill="#93c5fd">Page 9 of 10</text>

  
  <rect x="40" y="88" width="1160" height="36" rx="4" fill="#1e3a8a"/>
  <text x="56" y="112" font-size="16" font-weight="800" fill="white">8.1. Feedback Submission Data Flow</text>

  <!-- Step-by-step flow boxes -->
  <defs>
    <marker id="fl" markerWidth="12" markerHeight="9" refX="12" refY="4.5" orient="auto">
      <polygon points="0 0,12 4.5,0 9" fill="#4b5563"/>
    </marker>
  </defs>
  <rect x="40" y="128" width="216" height="116" rx="8" fill="white" stroke="#1e3a8a" stroke-width="2"/>
    <rect x="40" y="128" width="216" height="8" rx="4" fill="#1e3a8a"/>
    <text x="148" y="172" text-anchor="middle" font-size="28"></text>
    <text x="148" y="200" text-anchor="middle" font-size="11" font-weight="700" fill="#1e3a8a">Student submits form</text>
    <line x1="256" y1="186" x2="276" y2="186" stroke="#4b5563" stroke-width="2" marker-end="url(#fl)"/>
    <rect x="276" y="128" width="216" height="116" rx="8" fill="white" stroke="#0284c7" stroke-width="2"/>
    <rect x="276" y="128" width="216" height="8" rx="4" fill="#0284c7"/>
    <text x="384" y="172" text-anchor="middle" font-size="28">[OK]</text>
    <text x="384" y="200" text-anchor="middle" font-size="11" font-weight="700" fill="#0284c7">Frontend validates input</text><text x="384" y="220" text-anchor="middle" font-size="11" font-weight="400" fill="#64748b">(required fields, rating range)</text>
    <line x1="492" y1="186" x2="512" y2="186" stroke="#4b5563" stroke-width="2" marker-end="url(#fl)"/>
    <rect x="512" y="128" width="216" height="116" rx="8" fill="white" stroke="#0284c7" stroke-width="2"/>
    <rect x="512" y="128" width="216" height="8" rx="4" fill="#0284c7"/>
    <text x="620" y="172" text-anchor="middle" font-size="28"></text>
    <text x="620" y="200" text-anchor="middle" font-size="11" font-weight="700" fill="#0284c7">POST /api/feedback</text><text x="620" y="220" text-anchor="middle" font-size="11" font-weight="400" fill="#64748b">(HTTP request with JSON)</text>
    <line x1="728" y1="186" x2="748" y2="186" stroke="#4b5563" stroke-width="2" marker-end="url(#fl)"/>
    <rect x="748" y="128" width="216" height="116" rx="8" fill="white" stroke="#d97706" stroke-width="2"/>
    <rect x="748" y="128" width="216" height="8" rx="4" fill="#d97706"/>
    <text x="856" y="172" text-anchor="middle" font-size="28"></text>
    <text x="856" y="200" text-anchor="middle" font-size="11" font-weight="700" fill="#d97706">Rate limit check</text><text x="856" y="220" text-anchor="middle" font-size="11" font-weight="400" fill="#64748b">(20 req / 10 min)</text>
    <line x1="964" y1="186" x2="984" y2="186" stroke="#4b5563" stroke-width="2" marker-end="url(#fl)"/>
    <rect x="984" y="128" width="216" height="116" rx="8" fill="white" stroke="#7c3aed" stroke-width="2"/>
    <rect x="984" y="128" width="216" height="8" rx="4" fill="#7c3aed"/>
    <text x="1092" y="172" text-anchor="middle" font-size="28"></text>
    <text x="1092" y="200" text-anchor="middle" font-size="11" font-weight="700" fill="#7c3aed">Session auth check</text><text x="1092" y="220" text-anchor="middle" font-size="11" font-weight="400" fill="#64748b">(is student logged in?)</text>
    
    <path d="M1092,244 L1092,268" stroke="#4b5563" stroke-width="2" marker-end="url(#fl)"/><rect x="40" y="268" width="216" height="116" rx="8" fill="white" stroke="#14532d" stroke-width="2"/>
    <rect x="40" y="268" width="216" height="8" rx="4" fill="#14532d"/>
    <text x="148" y="312" text-anchor="middle" font-size="28"></text>
    <text x="148" y="340" text-anchor="middle" font-size="11" font-weight="700" fill="#14532d">Zod schema validate</text><text x="148" y="360" text-anchor="middle" font-size="11" font-weight="400" fill="#64748b">(type + range check)</text>
    <line x1="256" y1="326" x2="276" y2="326" stroke="#4b5563" stroke-width="2" marker-end="url(#fl)"/>
    <rect x="276" y="268" width="216" height="116" rx="8" fill="white" stroke="#14532d" stroke-width="2"/>
    <rect x="276" y="268" width="216" height="8" rx="4" fill="#14532d"/>
    <text x="384" y="312" text-anchor="middle" font-size="28"></text>
    <text x="384" y="340" text-anchor="middle" font-size="11" font-weight="700" fill="#14532d">Course-Faculty integrity</text><text x="384" y="360" text-anchor="middle" font-size="11" font-weight="400" fill="#64748b">(dept + assignment check)</text>
    <line x1="492" y1="326" x2="512" y2="326" stroke="#4b5563" stroke-width="2" marker-end="url(#fl)"/>
    <rect x="512" y="268" width="216" height="116" rx="8" fill="white" stroke="#d97706" stroke-width="2"/>
    <rect x="512" y="268" width="216" height="8" rx="4" fill="#d97706"/>
    <text x="620" y="312" text-anchor="middle" font-size="28"></text>
    <text x="620" y="340" text-anchor="middle" font-size="11" font-weight="700" fill="#d97706">Feedback window check</text><text x="620" y="360" text-anchor="middle" font-size="11" font-weight="400" fill="#64748b">(is window active?)</text>
    <line x1="728" y1="326" x2="748" y2="326" stroke="#4b5563" stroke-width="2" marker-end="url(#fl)"/>
    <rect x="748" y="268" width="216" height="116" rx="8" fill="white" stroke="#7c2d12" stroke-width="2"/>
    <rect x="748" y="268" width="216" height="8" rx="4" fill="#7c2d12"/>
    <text x="856" y="312" text-anchor="middle" font-size="28"></text>
    <text x="856" y="340" text-anchor="middle" font-size="11" font-weight="700" fill="#7c2d12">Store in PostgreSQL</text><text x="856" y="360" text-anchor="middle" font-size="11" font-weight="400" fill="#64748b">(feedback table)</text>
    <line x1="964" y1="326" x2="984" y2="326" stroke="#4b5563" stroke-width="2" marker-end="url(#fl)"/>
    <rect x="984" y="268" width="216" height="116" rx="8" fill="white" stroke="#065f46" stroke-width="2"/>
    <rect x="984" y="268" width="216" height="8" rx="4" fill="#065f46"/>
    <text x="1092" y="312" text-anchor="middle" font-size="28"></text>
    <text x="1092" y="340" text-anchor="middle" font-size="11" font-weight="700" fill="#065f46">Return Reference ID</text><text x="1092" y="360" text-anchor="middle" font-size="11" font-weight="400" fill="#64748b">(FB-YYYYMMDD-XXXXXX)</text>
    
    

  
  <rect x="40" y="410" width="1160" height="36" rx="4" fill="#1e3a8a"/>
  <text x="56" y="434" font-size="16" font-weight="800" fill="white">8.2. Database Schema — Complete</text>
  <!-- Entity relationship quick ref -->
  <rect x="40" y="450" width="374" height="200" rx="6" fill="#1a7a6e20" stroke="#1a7a6e" stroke-width="1.5"/>
    <rect x="40" y="450" width="374" height="32" rx="6" fill="#1a7a6e"/>
    <text x="48" y="471" font-size="13" font-weight="800" fill="white">departments</text>
    
      <text x="52" y="501" font-size="11" fill="#d97706" font-weight="700">id PK</text><line x1="44" y1="510" x2="410" y2="510" stroke="#1a7a6e40" stroke-width="0.8"/>
      <text x="52" y="529" font-size="11" fill="#0f172a" font-weight="400">code UNIQUE</text><line x1="44" y1="538" x2="410" y2="538" stroke="#1a7a6e40" stroke-width="0.8"/>
      <text x="52" y="557" font-size="11" fill="#0f172a" font-weight="400">name</text><line x1="44" y1="566" x2="410" y2="566" stroke="#1a7a6e40" stroke-width="0.8"/>
      <text x="52" y="585" font-size="11" fill="#0f172a" font-weight="400">hod_name</text><line x1="44" y1="594" x2="410" y2="594" stroke="#1a7a6e40" stroke-width="0.8"/>
      <text x="52" y="613" font-size="11" fill="#0f172a" font-weight="400">hod_employee_id</text><line x1="44" y1="622" x2="410" y2="622" stroke="#1a7a6e40" stroke-width="0.8"/>
      <text x="52" y="641" font-size="11" fill="#0f172a" font-weight="400">created_at</text><rect x="434" y="450" width="374" height="228" rx="6" fill="#1a7a6e20" stroke="#1a7a6e" stroke-width="1.5"/>
    <rect x="434" y="450" width="374" height="32" rx="6" fill="#1a7a6e"/>
    <text x="442" y="471" font-size="13" font-weight="800" fill="white">faculty</text>
    
      <text x="446" y="501" font-size="11" fill="#d97706" font-weight="700">id PK</text><line x1="438" y1="510" x2="804" y2="510" stroke="#1a7a6e40" stroke-width="0.8"/>
      <text x="446" y="529" font-size="11" fill="#d97706" font-weight="700">department_id FK</text><line x1="438" y1="538" x2="804" y2="538" stroke="#1a7a6e40" stroke-width="0.8"/>
      <text x="446" y="557" font-size="11" fill="#0f172a" font-weight="400">employee_id UNIQUE</text><line x1="438" y1="566" x2="804" y2="566" stroke="#1a7a6e40" stroke-width="0.8"/>
      <text x="446" y="585" font-size="11" fill="#0f172a" font-weight="400">name</text><line x1="438" y1="594" x2="804" y2="594" stroke="#1a7a6e40" stroke-width="0.8"/>
      <text x="446" y="613" font-size="11" fill="#0f172a" font-weight="400">designation</text><line x1="438" y1="622" x2="804" y2="622" stroke="#1a7a6e40" stroke-width="0.8"/>
      <text x="446" y="641" font-size="11" fill="#0f172a" font-weight="400">email</text><line x1="438" y1="650" x2="804" y2="650" stroke="#1a7a6e40" stroke-width="0.8"/>
      <text x="446" y="669" font-size="11" fill="#0f172a" font-weight="400">is_active</text><rect x="828" y="450" width="374" height="256" rx="6" fill="#1a7a6e20" stroke="#1a7a6e" stroke-width="1.5"/>
    <rect x="828" y="450" width="374" height="32" rx="6" fill="#1a7a6e"/>
    <text x="836" y="471" font-size="13" font-weight="800" fill="white">courses</text>
    
      <text x="840" y="501" font-size="11" fill="#d97706" font-weight="700">id PK</text><line x1="832" y1="510" x2="1198" y2="510" stroke="#1a7a6e40" stroke-width="0.8"/>
      <text x="840" y="529" font-size="11" fill="#d97706" font-weight="700">department_id FK</text><line x1="832" y1="538" x2="1198" y2="538" stroke="#1a7a6e40" stroke-width="0.8"/>
      <text x="840" y="557" font-size="11" fill="#d97706" font-weight="700">faculty_id FK?</text><line x1="832" y1="566" x2="1198" y2="566" stroke="#1a7a6e40" stroke-width="0.8"/>
      <text x="840" y="585" font-size="11" fill="#0f172a" font-weight="400">code UNIQUE</text><line x1="832" y1="594" x2="1198" y2="594" stroke="#1a7a6e40" stroke-width="0.8"/>
      <text x="840" y="613" font-size="11" fill="#0f172a" font-weight="400">name</text><line x1="832" y1="622" x2="1198" y2="622" stroke="#1a7a6e40" stroke-width="0.8"/>
      <text x="840" y="641" font-size="11" fill="#0f172a" font-weight="400">semester</text><line x1="832" y1="650" x2="1198" y2="650" stroke="#1a7a6e40" stroke-width="0.8"/>
      <text x="840" y="669" font-size="11" fill="#0f172a" font-weight="400">academic_year</text><line x1="832" y1="678" x2="1198" y2="678" stroke="#1a7a6e40" stroke-width="0.8"/>
      <text x="840" y="697" font-size="11" fill="#0f172a" font-weight="400">credits</text><rect x="40" y="700" width="374" height="284" rx="6" fill="#92400e20" stroke="#92400e" stroke-width="1.5"/>
    <rect x="40" y="700" width="374" height="32" rx="6" fill="#92400e"/>
    <text x="48" y="721" font-size="13" font-weight="800" fill="white">feedback</text>
    
      <text x="52" y="751" font-size="11" fill="#d97706" font-weight="700">id PK</text><line x1="44" y1="760" x2="410" y2="760" stroke="#92400e40" stroke-width="0.8"/>
      <text x="52" y="779" font-size="11" fill="#0f172a" font-weight="400">reference_id UNIQUE</text><line x1="44" y1="788" x2="410" y2="788" stroke="#92400e40" stroke-width="0.8"/>
      <text x="52" y="807" font-size="11" fill="#d97706" font-weight="700">course_id FK</text><line x1="44" y1="816" x2="410" y2="816" stroke="#92400e40" stroke-width="0.8"/>
      <text x="52" y="835" font-size="11" fill="#d97706" font-weight="700">faculty_id FK?</text><line x1="44" y1="844" x2="410" y2="844" stroke="#92400e40" stroke-width="0.8"/>
      <text x="52" y="863" font-size="11" fill="#d97706" font-weight="700">department_id FK</text><line x1="44" y1="872" x2="410" y2="872" stroke="#92400e40" stroke-width="0.8"/>
      <text x="52" y="891" font-size="11" fill="#0f172a" font-weight="400">semester</text><line x1="44" y1="900" x2="410" y2="900" stroke="#92400e40" stroke-width="0.8"/>
      <text x="52" y="919" font-size="11" fill="#0f172a" font-weight="400">5× real ratings</text><line x1="44" y1="928" x2="410" y2="928" stroke="#92400e40" stroke-width="0.8"/>
      <text x="52" y="947" font-size="11" fill="#0f172a" font-weight="400">comments</text><line x1="44" y1="956" x2="410" y2="956" stroke="#92400e40" stroke-width="0.8"/>
      <text x="52" y="975" font-size="11" fill="#0f172a" font-weight="400">custom_answers JSONB</text><rect x="434" y="700" width="374" height="172" rx="6" fill="#6b21a820" stroke="#6b21a8" stroke-width="1.5"/>
    <rect x="434" y="700" width="374" height="32" rx="6" fill="#6b21a8"/>
    <text x="442" y="721" font-size="13" font-weight="800" fill="white">form_templates</text>
    
      <text x="446" y="751" font-size="11" fill="#d97706" font-weight="700">id PK</text><line x1="438" y1="760" x2="804" y2="760" stroke="#6b21a840" stroke-width="0.8"/>
      <text x="446" y="779" font-size="11" fill="#d97706" font-weight="700">department_id FK UNIQUE</text><line x1="438" y1="788" x2="804" y2="788" stroke="#6b21a840" stroke-width="0.8"/>
      <text x="446" y="807" font-size="11" fill="#0f172a" font-weight="400">fields JSONB</text><line x1="438" y1="816" x2="804" y2="816" stroke="#6b21a840" stroke-width="0.8"/>
      <text x="446" y="835" font-size="11" fill="#0f172a" font-weight="400">created_at</text><line x1="438" y1="844" x2="804" y2="844" stroke="#6b21a840" stroke-width="0.8"/>
      <text x="446" y="863" font-size="11" fill="#0f172a" font-weight="400">updated_at</text><rect x="828" y="700" width="374" height="200" rx="6" fill="#6b21a820" stroke="#6b21a8" stroke-width="1.5"/>
    <rect x="828" y="700" width="374" height="32" rx="6" fill="#6b21a8"/>
    <text x="836" y="721" font-size="13" font-weight="800" fill="white">feedback_windows</text>
    
      <text x="840" y="751" font-size="11" fill="#d97706" font-weight="700">id PK</text><line x1="832" y1="760" x2="1198" y2="760" stroke="#6b21a840" stroke-width="0.8"/>
      <text x="840" y="779" font-size="11" fill="#d97706" font-weight="700">department_id FK?</text><line x1="832" y1="788" x2="1198" y2="788" stroke="#6b21a840" stroke-width="0.8"/>
      <text x="840" y="807" font-size="11" fill="#0f172a" font-weight="400">title</text><line x1="832" y1="816" x2="1198" y2="816" stroke="#6b21a840" stroke-width="0.8"/>
      <text x="840" y="835" font-size="11" fill="#0f172a" font-weight="400">is_active</text><line x1="832" y1="844" x2="1198" y2="844" stroke="#6b21a840" stroke-width="0.8"/>
      <text x="840" y="863" font-size="11" fill="#0f172a" font-weight="400">start_date</text><line x1="832" y1="872" x2="1198" y2="872" stroke="#6b21a840" stroke-width="0.8"/>
      <text x="840" y="891" font-size="11" fill="#0f172a" font-weight="400">end_date</text>

  
  <rect x="40" y="966" width="1160" height="36" rx="4" fill="#1e3a8a"/>
  <text x="56" y="990" font-size="16" font-weight="800" fill="white">8.3. Security Measures</text>
  <rect x="40" y="1006" width="1160" height="340" rx="6" fill="#fafafa" stroke="#e5e7eb" stroke-width="1"/>

  
    <text x="60" y="1034" font-size="12" font-weight="700" fill="#1e3a8a"> Session Management</text>
    <text x="280" y="1021" font-size="11" fill="#64748b">Server-side express-session — SESSION_SECRET environment variable mein, never in code. Browser</text>
<text x="280" y="1038" font-size="11" fill="#64748b">mein sirf session cookie store hoti hai.</text><line x1="56" y1="1057" x2="1184" y2="1057" stroke="#e5e7eb" stroke-width="0.8"/>
    <text x="60" y="1075" font-size="12" font-weight="700" fill="#d97706"> Rate Limiting (3 levels)</text>
    <text x="280" y="1062" font-size="11" fill="#64748b">Global: 100/15min · Auth: 10/15min · Feedback POST: 20/10min. Trust proxy enabled for correct</text>
<text x="280" y="1079" font-size="11" fill="#64748b">IP behind reverse proxy.</text><line x1="56" y1="1098" x2="1184" y2="1098" stroke="#e5e7eb" stroke-width="0.8"/>
    <text x="60" y="1116" font-size="12" font-weight="700" fill="#14532d">[OK] Input Validation</text>
    <text x="280" y="1103" font-size="11" fill="#64748b">Zod schemas har API route pe — types, ranges, required fields. Invalid input pe clear error</text>
<text x="280" y="1120" font-size="11" fill="#64748b">message, server crash nahi hota.</text><line x1="56" y1="1139" x2="1184" y2="1139" stroke="#e5e7eb" stroke-width="0.8"/>
    <text x="60" y="1157" font-size="12" font-weight="700" fill="#065f46"> Anonymous Guarantee</text>
    <text x="280" y="1144" font-size="11" fill="#64748b">Server kabhi student ID aur feedback ID link karke store nahi karta. Reference ID</text>
<text x="280" y="1161" font-size="11" fill="#64748b">cryptographically unique — guessing se track nahi hota.</text><line x1="56" y1="1180" x2="1184" y2="1180" stroke="#e5e7eb" stroke-width="0.8"/>
    <text x="60" y="1198" font-size="12" font-weight="700" fill="#7c3aed"> Faculty-Course Integrity</text>
    <text x="280" y="1185" font-size="11" fill="#64748b">Cross-department feedback manipulation impossible — server course ka department aur student ka</text>
<text x="280" y="1202" font-size="11" fill="#64748b">department match karta hai.</text><line x1="56" y1="1221" x2="1184" y2="1221" stroke="#e5e7eb" stroke-width="0.8"/>
    <text x="60" y="1239" font-size="12" font-weight="700" fill="#0284c7"> Window Enforcement</text>
    <text x="280" y="1226" font-size="11" fill="#64748b">Server-side window check — client-side bypass possible nahi. Server database se active window</text>
<text x="280" y="1243" font-size="11" fill="#64748b">check karta hai har submission pe.</text><line x1="56" y1="1262" x2="1184" y2="1262" stroke="#e5e7eb" stroke-width="0.8"/>
    <text x="60" y="1280" font-size="12" font-weight="700" fill="#4c1d95"> No Direct DB Access</text>
    <text x="280" y="1267" font-size="11" fill="#64748b">Database sirf Drizzle ORM ke through access hoti hai. Raw SQL queries nahi — SQL injection</text>
<text x="280" y="1284" font-size="11" fill="#64748b">practically impossible.</text><line x1="56" y1="1303" x2="1184" y2="1303" stroke="#e5e7eb" stroke-width="0.8"/>
    <text x="60" y="1321" font-size="12" font-weight="700" fill="#92400e"> CORS + Proxy Config</text>
    <text x="280" y="1308" font-size="11" fill="#64748b">Vite dev proxy configure hai — frontend-backend same origin pe, CORS issues nahi. Production</text>
<text x="280" y="1325" font-size="11" fill="#64748b">mein Express sirf trusted paths serve karta hai.</text>

  
  <rect x="40" y="1360" width="1160" height="36" rx="4" fill="#1e3a8a"/>
  <text x="56" y="1384" font-size="16" font-weight="800" fill="white">8.4. Anonymity Architecture</text>
  <rect x="40" y="1400" width="1160" height="290" rx="6" fill="#fffbeb" stroke="#fde68a" stroke-width="1.5"/>
  <text x="60" y="1428" font-size="14" font-weight="800" fill="#92400e">How Anonymity is Guaranteed:</text>
  <text x="60" y="1442" font-size="12" fill="#0f172a">Jab student feedback submit karta hai, server ek cryptographically random Reference ID generate karta hai (format:</text>
<text x="60" y="1462" font-size="12" fill="#0f172a">FB-YYYYMMDD-XXXXXX). Yeh ID feedback record mein store hoti hai, lekin student ka login ID (CUPGS/CSE/042) kabhi</text>
<text x="60" y="1482" font-size="12" fill="#0f172a">feedback table mein store nahi hota.</text>

  <rect x="60" y="1496" width="1100" height="60" rx="6" fill="white" stroke="#fde68a" stroke-width="1"/>
  <text x="80" y="1522" font-size="12" font-weight="700" fill="#92400e">What is STORED in feedback table:</text>
  <text x="80" y="1542" font-size="11" fill="#64748b">reference_id, course_id, department_id, semester, academic_year, student_year, section, ratings, comments, custom_answers</text>

  <rect x="60" y="1566" width="1100" height="60" rx="6" fill="white" stroke="#fde68a" stroke-width="1"/>
  <text x="80" y="1592" font-size="12" font-weight="700" fill="#dc2626">What is NEVER STORED in feedback table:</text>
  <text x="80" y="1612" font-size="11" fill="#64748b">student_id, employee_id, name, login credentials, IP address, browser info — NOTHING that identifies the student</text>

  <text x="60" y="1650" font-size="12" fill="#14532d" font-weight="600">[OK] Even the developer / DBA cannot trace feedback back to a specific student.</text>
  <text x="60" y="1670" font-size="12" fill="#14532d" font-weight="600">[OK] Student can verify OWN feedback using their Reference ID — but others cannot use it to identify them.</text>

  
  <rect x="40" y="1698" width="1160" height="36" rx="4" fill="#1e3a8a"/>
  <text x="56" y="1722" font-size="16" font-weight="800" fill="white">8.5. Error Handling</text>
  <rect x="40" y="1738" width="1160" height="100" rx="6" fill="#fafafa" stroke="#e5e7eb" stroke-width="1"/>
  <circle cx="68" cy="1748" r="4" fill="#dc2626"/><text x="80" y="1752" font-size="12" fill="#0f172a">Validation errors: 400 Bad Request with field-specific error messages from Zod</text><circle cx="68" cy="1780" r="4" fill="#dc2626"/><text x="80" y="1784" font-size="12" fill="#0f172a">Auth errors: 401 Unauthorized — session invalid ya expired</text><circle cx="68" cy="1812" r="4" fill="#dc2626"/><text x="80" y="1816" font-size="12" fill="#0f172a">Rate limit hit: 429 Too Many Requests — retry-after header included</text><circle cx="68" cy="1844" r="4" fill="#dc2626"/><text x="80" y="1848" font-size="12" fill="#0f172a">Server errors: 500 Internal Server Error — logged with Pino, user gets generic message (no</text><text x="80" y="1868" font-size="12" fill="#0f172a">stack trace exposed)</text>

  <rect x="0" y="1714" width="1240" height="40" fill="#0f172a"/>
  <text x="620" y="1738" text-anchor="middle" font-size="10" fill="#475569">CUPGS Feedback Manager — Project Documentation</text>
  <text x="1200" y="1738" text-anchor="end" font-size="10" fill="#475569">9 / 10</text>
</svg>