<?xml version="1.0" encoding="UTF-8"?>
<svg xmlns="http://www.w3.org/2000/svg" width="1240" height="1754" viewBox="0 0 1240 1754" font-family="Arial,Helvetica,sans-serif">
  <rect width="1240" height="1754" fill="white"/>
  <rect x="0" y="0" width="1240" height="72" fill="#1e3a8a"/>
  <text x="60" y="32" font-size="13" fill="#93c5fd">CUPGS Academic Feedback Management System</text>
  <text x="60" y="54" font-size="20" font-weight="800" fill="white">8. Data Flow &amp; Security Design</text>
  <text x="1180" y="42" text-anchor="end" font-size="12" fill="#93c5fd">Page 9 of 10</text>

  
  <rect x="40" y="88" width="1160" height="36" rx="4" fill="#1e3a8a"/>
  <text x="56" y="112" font-size="16" font-weight="800" fill="white">8.1. Feedback Submission Data Flow (10 Steps)</text>

  <rect x="40" y="128" width="216" height="116" rx="8" fill="white" stroke="#1e3a8a" stroke-width="2"/>
    <rect x="40" y="128" width="216" height="8" rx="4" fill="#1e3a8a"/>
    <rect x="128" y="146" width="40" height="40" rx="20" fill="#1e3a8a20" stroke="#1e3a8a" stroke-width="1"/>
    <text x="148" y="171" text-anchor="middle" font-size="16" font-weight="800" fill="#1e3a8a">1</text>
    <text x="148" y="202" text-anchor="middle" font-size="11" font-weight="700" fill="#1e3a8a">Student submits</text><text x="148" y="220" text-anchor="middle" font-size="11" font-weight="400" fill="#64748b">feedback form</text>
    <line x1="256" y1="186" x2="276" y2="186" stroke="#4b5563" stroke-width="2" marker-end="url(#arr)"/><rect x="276" y="128" width="216" height="116" rx="8" fill="white" stroke="#0284c7" stroke-width="2"/>
    <rect x="276" y="128" width="216" height="8" rx="4" fill="#0284c7"/>
    <rect x="364" y="146" width="40" height="40" rx="20" fill="#0284c720" stroke="#0284c7" stroke-width="1"/>
    <text x="384" y="171" text-anchor="middle" font-size="16" font-weight="800" fill="#0284c7">2</text>
    <text x="384" y="202" text-anchor="middle" font-size="11" font-weight="700" fill="#0284c7">Frontend validates</text><text x="384" y="220" text-anchor="middle" font-size="11" font-weight="400" fill="#64748b">input (required, ranges)</text>
    <line x1="492" y1="186" x2="512" y2="186" stroke="#4b5563" stroke-width="2" marker-end="url(#arr)"/><rect x="512" y="128" width="216" height="116" rx="8" fill="white" stroke="#0284c7" stroke-width="2"/>
    <rect x="512" y="128" width="216" height="8" rx="4" fill="#0284c7"/>
    <rect x="600" y="146" width="40" height="40" rx="20" fill="#0284c720" stroke="#0284c7" stroke-width="1"/>
    <text x="620" y="171" text-anchor="middle" font-size="16" font-weight="800" fill="#0284c7">3</text>
    <text x="620" y="202" text-anchor="middle" font-size="11" font-weight="700" fill="#0284c7">POST /api/feedback</text><text x="620" y="220" text-anchor="middle" font-size="11" font-weight="400" fill="#64748b">(HTTP JSON request)</text>
    <line x1="728" y1="186" x2="748" y2="186" stroke="#4b5563" stroke-width="2" marker-end="url(#arr)"/><rect x="748" y="128" width="216" height="116" rx="8" fill="white" stroke="#d97706" stroke-width="2"/>
    <rect x="748" y="128" width="216" height="8" rx="4" fill="#d97706"/>
    <rect x="836" y="146" width="40" height="40" rx="20" fill="#d9770620" stroke="#d97706" stroke-width="1"/>
    <text x="856" y="171" text-anchor="middle" font-size="16" font-weight="800" fill="#d97706">4</text>
    <text x="856" y="202" text-anchor="middle" font-size="11" font-weight="700" fill="#d97706">Rate limit check</text><text x="856" y="220" text-anchor="middle" font-size="11" font-weight="400" fill="#64748b">(20 req per 10 min)</text>
    <line x1="964" y1="186" x2="984" y2="186" stroke="#4b5563" stroke-width="2" marker-end="url(#arr)"/><rect x="984" y="128" width="216" height="116" rx="8" fill="white" stroke="#7c3aed" stroke-width="2"/>
    <rect x="984" y="128" width="216" height="8" rx="4" fill="#7c3aed"/>
    <rect x="1072" y="146" width="40" height="40" rx="20" fill="#7c3aed20" stroke="#7c3aed" stroke-width="1"/>
    <text x="1092" y="171" text-anchor="middle" font-size="16" font-weight="800" fill="#7c3aed">5</text>
    <text x="1092" y="202" text-anchor="middle" font-size="11" font-weight="700" fill="#7c3aed">Session auth check</text><text x="1092" y="220" text-anchor="middle" font-size="11" font-weight="400" fill="#64748b">(is student logged in?)</text>
    <rect x="40" y="268" width="216" height="116" rx="8" fill="white" stroke="#14532d" stroke-width="2"/>
    <rect x="40" y="268" width="216" height="8" rx="4" fill="#14532d"/>
    <rect x="128" y="286" width="40" height="40" rx="20" fill="#14532d20" stroke="#14532d" stroke-width="1"/>
    <text x="148" y="311" text-anchor="middle" font-size="16" font-weight="800" fill="#14532d">6</text>
    <text x="148" y="342" text-anchor="middle" font-size="11" font-weight="700" fill="#14532d">Zod schema validation</text><text x="148" y="360" text-anchor="middle" font-size="11" font-weight="400" fill="#64748b">(type + range check)</text>
    <line x1="256" y1="326" x2="276" y2="326" stroke="#4b5563" stroke-width="2" marker-end="url(#arr)"/><rect x="276" y="268" width="216" height="116" rx="8" fill="white" stroke="#14532d" stroke-width="2"/>
    <rect x="276" y="268" width="216" height="8" rx="4" fill="#14532d"/>
    <rect x="364" y="286" width="40" height="40" rx="20" fill="#14532d20" stroke="#14532d" stroke-width="1"/>
    <text x="384" y="311" text-anchor="middle" font-size="16" font-weight="800" fill="#14532d">7</text>
    <text x="384" y="342" text-anchor="middle" font-size="11" font-weight="700" fill="#14532d">Course-Faculty</text><text x="384" y="360" text-anchor="middle" font-size="11" font-weight="400" fill="#64748b">integrity check</text>
    <line x1="492" y1="326" x2="512" y2="326" stroke="#4b5563" stroke-width="2" marker-end="url(#arr)"/><rect x="512" y="268" width="216" height="116" rx="8" fill="white" stroke="#d97706" stroke-width="2"/>
    <rect x="512" y="268" width="216" height="8" rx="4" fill="#d97706"/>
    <rect x="600" y="286" width="40" height="40" rx="20" fill="#d9770620" stroke="#d97706" stroke-width="1"/>
    <text x="620" y="311" text-anchor="middle" font-size="16" font-weight="800" fill="#d97706">8</text>
    <text x="620" y="342" text-anchor="middle" font-size="11" font-weight="700" fill="#d97706">Feedback window</text><text x="620" y="360" text-anchor="middle" font-size="11" font-weight="400" fill="#64748b">check (is window open?)</text>
    <line x1="728" y1="326" x2="748" y2="326" stroke="#4b5563" stroke-width="2" marker-end="url(#arr)"/><rect x="748" y="268" width="216" height="116" rx="8" fill="white" stroke="#7c2d12" stroke-width="2"/>
    <rect x="748" y="268" width="216" height="8" rx="4" fill="#7c2d12"/>
    <rect x="836" y="286" width="40" height="40" rx="20" fill="#7c2d1220" stroke="#7c2d12" stroke-width="1"/>
    <text x="856" y="311" text-anchor="middle" font-size="16" font-weight="800" fill="#7c2d12">9</text>
    <text x="856" y="342" text-anchor="middle" font-size="11" font-weight="700" fill="#7c2d12">Store record in</text><text x="856" y="360" text-anchor="middle" font-size="11" font-weight="400" fill="#64748b">PostgreSQL database</text>
    <line x1="964" y1="326" x2="984" y2="326" stroke="#4b5563" stroke-width="2" marker-end="url(#arr)"/><rect x="984" y="268" width="216" height="116" rx="8" fill="white" stroke="#065f46" stroke-width="2"/>
    <rect x="984" y="268" width="216" height="8" rx="4" fill="#065f46"/>
    <rect x="1072" y="286" width="40" height="40" rx="20" fill="#065f4620" stroke="#065f46" stroke-width="1"/>
    <text x="1092" y="311" text-anchor="middle" font-size="16" font-weight="800" fill="#065f46">10</text>
    <text x="1092" y="342" text-anchor="middle" font-size="11" font-weight="700" fill="#065f46">Return Reference ID</text><text x="1092" y="360" text-anchor="middle" font-size="11" font-weight="400" fill="#64748b">(FB-YYYYMMDD-XXXXXX)</text>
    
  <defs><marker id="arr" markerWidth="10" markerHeight="8" refX="10" refY="4" orient="auto"><polygon points="0 0,10 4,0 8" fill="#4b5563"/></marker></defs>
  <path d="M1200,186 Q1220,186 1220,326 L40,326" stroke="#4b5563" stroke-width="2" fill="none" marker-end="url(#arr)"/>

  
  <rect x="40" y="400" width="1160" height="36" rx="4" fill="#1e3a8a"/>
  <text x="56" y="424" font-size="16" font-weight="800" fill="white">8.2. Database Schema -- All 6 Tables</text>
  <rect x="40" y="440" width="374" height="228" rx="6" fill="#1a7a6e15" stroke="#1a7a6e" stroke-width="1.5"/>
    <rect x="40" y="440" width="374" height="32" rx="6" fill="#1a7a6e"/>
    <text x="48" y="461" font-size="13" font-weight="800" fill="white">departments</text>
    
      <text x="52" y="491" font-size="11" fill="#d97706" font-weight="700">id PK</text><line x1="44" y1="500" x2="410" y2="500" stroke="#1a7a6e30" stroke-width="0.8"/>
      <text x="52" y="519" font-size="11" fill="#0f172a" font-weight="400">code UNIQUE</text><line x1="44" y1="528" x2="410" y2="528" stroke="#1a7a6e30" stroke-width="0.8"/>
      <text x="52" y="547" font-size="11" fill="#0f172a" font-weight="400">name</text><line x1="44" y1="556" x2="410" y2="556" stroke="#1a7a6e30" stroke-width="0.8"/>
      <text x="52" y="575" font-size="11" fill="#0f172a" font-weight="400">hod_name</text><line x1="44" y1="584" x2="410" y2="584" stroke="#1a7a6e30" stroke-width="0.8"/>
      <text x="52" y="603" font-size="11" fill="#0f172a" font-weight="400">hod_employee_id</text><line x1="44" y1="612" x2="410" y2="612" stroke="#1a7a6e30" stroke-width="0.8"/>
      <text x="52" y="631" font-size="11" fill="#0f172a" font-weight="400">created_at</text><line x1="44" y1="640" x2="410" y2="640" stroke="#1a7a6e30" stroke-width="0.8"/>
      <text x="52" y="659" font-size="11" fill="#0f172a" font-weight="400">updated_at</text><rect x="434" y="440" width="374" height="228" rx="6" fill="#1a7a6e15" stroke="#1a7a6e" stroke-width="1.5"/>
    <rect x="434" y="440" width="374" height="32" rx="6" fill="#1a7a6e"/>
    <text x="442" y="461" font-size="13" font-weight="800" fill="white">faculty</text>
    
      <text x="446" y="491" font-size="11" fill="#d97706" font-weight="700">id PK</text><line x1="438" y1="500" x2="804" y2="500" stroke="#1a7a6e30" stroke-width="0.8"/>
      <text x="446" y="519" font-size="11" fill="#d97706" font-weight="700">department_id FK</text><line x1="438" y1="528" x2="804" y2="528" stroke="#1a7a6e30" stroke-width="0.8"/>
      <text x="446" y="547" font-size="11" fill="#0f172a" font-weight="400">employee_id UNIQUE</text><line x1="438" y1="556" x2="804" y2="556" stroke="#1a7a6e30" stroke-width="0.8"/>
      <text x="446" y="575" font-size="11" fill="#0f172a" font-weight="400">name</text><line x1="438" y1="584" x2="804" y2="584" stroke="#1a7a6e30" stroke-width="0.8"/>
      <text x="446" y="603" font-size="11" fill="#0f172a" font-weight="400">designation</text><line x1="438" y1="612" x2="804" y2="612" stroke="#1a7a6e30" stroke-width="0.8"/>
      <text x="446" y="631" font-size="11" fill="#0f172a" font-weight="400">email</text><line x1="438" y1="640" x2="804" y2="640" stroke="#1a7a6e30" stroke-width="0.8"/>
      <text x="446" y="659" font-size="11" fill="#0f172a" font-weight="400">is_active</text><rect x="828" y="440" width="374" height="256" rx="6" fill="#1a7a6e15" stroke="#1a7a6e" stroke-width="1.5"/>
    <rect x="828" y="440" width="374" height="32" rx="6" fill="#1a7a6e"/>
    <text x="836" y="461" font-size="13" font-weight="800" fill="white">courses</text>
    
      <text x="840" y="491" font-size="11" fill="#d97706" font-weight="700">id PK</text><line x1="832" y1="500" x2="1198" y2="500" stroke="#1a7a6e30" stroke-width="0.8"/>
      <text x="840" y="519" font-size="11" fill="#d97706" font-weight="700">department_id FK</text><line x1="832" y1="528" x2="1198" y2="528" stroke="#1a7a6e30" stroke-width="0.8"/>
      <text x="840" y="547" font-size="11" fill="#d97706" font-weight="700">faculty_id FK nullable</text><line x1="832" y1="556" x2="1198" y2="556" stroke="#1a7a6e30" stroke-width="0.8"/>
      <text x="840" y="575" font-size="11" fill="#0f172a" font-weight="400">code UNIQUE</text><line x1="832" y1="584" x2="1198" y2="584" stroke="#1a7a6e30" stroke-width="0.8"/>
      <text x="840" y="603" font-size="11" fill="#0f172a" font-weight="400">name</text><line x1="832" y1="612" x2="1198" y2="612" stroke="#1a7a6e30" stroke-width="0.8"/>
      <text x="840" y="631" font-size="11" fill="#0f172a" font-weight="400">semester</text><line x1="832" y1="640" x2="1198" y2="640" stroke="#1a7a6e30" stroke-width="0.8"/>
      <text x="840" y="659" font-size="11" fill="#0f172a" font-weight="400">academic_year</text><line x1="832" y1="668" x2="1198" y2="668" stroke="#1a7a6e30" stroke-width="0.8"/>
      <text x="840" y="687" font-size="11" fill="#0f172a" font-weight="400">credits</text><rect x="40" y="710" width="374" height="312" rx="6" fill="#92400e15" stroke="#92400e" stroke-width="1.5"/>
    <rect x="40" y="710" width="374" height="32" rx="6" fill="#92400e"/>
    <text x="48" y="731" font-size="13" font-weight="800" fill="white">feedback</text>
    
      <text x="52" y="761" font-size="11" fill="#d97706" font-weight="700">id PK</text><line x1="44" y1="770" x2="410" y2="770" stroke="#92400e30" stroke-width="0.8"/>
      <text x="52" y="789" font-size="11" fill="#0f172a" font-weight="400">reference_id UNIQUE</text><line x1="44" y1="798" x2="410" y2="798" stroke="#92400e30" stroke-width="0.8"/>
      <text x="52" y="817" font-size="11" fill="#d97706" font-weight="700">course_id FK</text><line x1="44" y1="826" x2="410" y2="826" stroke="#92400e30" stroke-width="0.8"/>
      <text x="52" y="845" font-size="11" fill="#d97706" font-weight="700">faculty_id FK?</text><line x1="44" y1="854" x2="410" y2="854" stroke="#92400e30" stroke-width="0.8"/>
      <text x="52" y="873" font-size="11" fill="#d97706" font-weight="700">department_id FK</text><line x1="44" y1="882" x2="410" y2="882" stroke="#92400e30" stroke-width="0.8"/>
      <text x="52" y="901" font-size="11" fill="#0f172a" font-weight="400">semester</text><line x1="44" y1="910" x2="410" y2="910" stroke="#92400e30" stroke-width="0.8"/>
      <text x="52" y="929" font-size="11" fill="#0f172a" font-weight="400">academic_year</text><line x1="44" y1="938" x2="410" y2="938" stroke="#92400e30" stroke-width="0.8"/>
      <text x="52" y="957" font-size="11" fill="#0f172a" font-weight="400">5 x real ratings</text><line x1="44" y1="966" x2="410" y2="966" stroke="#92400e30" stroke-width="0.8"/>
      <text x="52" y="985" font-size="11" fill="#0f172a" font-weight="400">comments text</text><line x1="44" y1="994" x2="410" y2="994" stroke="#92400e30" stroke-width="0.8"/>
      <text x="52" y="1013" font-size="11" fill="#0f172a" font-weight="400">custom_answers JSONB</text><rect x="434" y="710" width="374" height="200" rx="6" fill="#6b21a815" stroke="#6b21a8" stroke-width="1.5"/>
    <rect x="434" y="710" width="374" height="32" rx="6" fill="#6b21a8"/>
    <text x="442" y="731" font-size="13" font-weight="800" fill="white">form_templates</text>
    
      <text x="446" y="761" font-size="11" fill="#d97706" font-weight="700">id PK</text><line x1="438" y1="770" x2="804" y2="770" stroke="#6b21a830" stroke-width="0.8"/>
      <text x="446" y="789" font-size="11" fill="#d97706" font-weight="700">department_id FK UNIQUE</text><line x1="438" y1="798" x2="804" y2="798" stroke="#6b21a830" stroke-width="0.8"/>
      <text x="446" y="817" font-size="11" fill="#0f172a" font-weight="400">fields JSONB</text><line x1="438" y1="826" x2="804" y2="826" stroke="#6b21a830" stroke-width="0.8"/>
      <text x="446" y="845" font-size="11" fill="#0f172a" font-weight="400">created_at</text><line x1="438" y1="854" x2="804" y2="854" stroke="#6b21a830" stroke-width="0.8"/>
      <text x="446" y="873" font-size="11" fill="#0f172a" font-weight="400">updated_at</text><line x1="438" y1="882" x2="804" y2="882" stroke="#6b21a830" stroke-width="0.8"/>
      <text x="446" y="901" font-size="11" fill="#0f172a" font-weight="400">updated_by</text><rect x="828" y="710" width="374" height="228" rx="6" fill="#6b21a815" stroke="#6b21a8" stroke-width="1.5"/>
    <rect x="828" y="710" width="374" height="32" rx="6" fill="#6b21a8"/>
    <text x="836" y="731" font-size="13" font-weight="800" fill="white">feedback_windows</text>
    
      <text x="840" y="761" font-size="11" fill="#d97706" font-weight="700">id PK</text><line x1="832" y1="770" x2="1198" y2="770" stroke="#6b21a830" stroke-width="0.8"/>
      <text x="840" y="789" font-size="11" fill="#d97706" font-weight="700">department_id FK nullable</text><line x1="832" y1="798" x2="1198" y2="798" stroke="#6b21a830" stroke-width="0.8"/>
      <text x="840" y="817" font-size="11" fill="#0f172a" font-weight="400">title</text><line x1="832" y1="826" x2="1198" y2="826" stroke="#6b21a830" stroke-width="0.8"/>
      <text x="840" y="845" font-size="11" fill="#0f172a" font-weight="400">is_active boolean</text><line x1="832" y1="854" x2="1198" y2="854" stroke="#6b21a830" stroke-width="0.8"/>
      <text x="840" y="873" font-size="11" fill="#0f172a" font-weight="400">start_date</text><line x1="832" y1="882" x2="1198" y2="882" stroke="#6b21a830" stroke-width="0.8"/>
      <text x="840" y="901" font-size="11" fill="#0f172a" font-weight="400">end_date</text><line x1="832" y1="910" x2="1198" y2="910" stroke="#6b21a830" stroke-width="0.8"/>
      <text x="840" y="929" font-size="11" fill="#0f172a" font-weight="400">description</text>

  
  <rect x="40" y="990" width="1160" height="36" rx="4" fill="#1e3a8a"/>
  <text x="56" y="1014" font-size="16" font-weight="800" fill="white">8.3. Security Measures Implemented</text>
  <rect x="40" y="1030" width="1160" height="380" rx="6" fill="#fafafa" stroke="#e5e7eb" stroke-width="1"/>
  
    <text x="60" y="1058" font-size="12" font-weight="700" fill="#1e3a8a">Session Management</text>
    <text x="260" y="1045" font-size="11" fill="#64748b">Server-side express-session. SESSION_SECRET is stored as an environment secret — never in code. The</text>
<text x="260" y="1061" font-size="11" fill="#64748b">browser stores only a session cookie, no sensitive data.</text><line x1="56" y1="1086" x2="1184" y2="1086" stroke="#e5e7eb" stroke-width="0.8"/>
    <text x="60" y="1104" font-size="12" font-weight="700" fill="#1e3a8a">Rate Limiting (3 Levels)</text>
    <text x="260" y="1091" font-size="11" fill="#64748b">Global: 100 requests per 15 min per IP. Auth endpoint: 10 login attempts per 15 min. Feedback POST:</text>
<text x="260" y="1107" font-size="11" fill="#64748b">20 submissions per 10 min. Prevents brute-force and flooding.</text><line x1="56" y1="1132" x2="1184" y2="1132" stroke="#e5e7eb" stroke-width="0.8"/>
    <text x="60" y="1150" font-size="12" font-weight="700" fill="#1e3a8a">Input Validation</text>
    <text x="260" y="1137" font-size="11" fill="#64748b">Zod schema validation on every API route — type checks, value ranges, and required fields. Server</text>
<text x="260" y="1153" font-size="11" fill="#64748b">returns field-level error messages; invalid input never reaches the database.</text><line x1="56" y1="1178" x2="1184" y2="1178" stroke="#e5e7eb" stroke-width="0.8"/>
    <text x="60" y="1196" font-size="12" font-weight="700" fill="#1e3a8a">Anonymous Guarantee</text>
    <text x="260" y="1183" font-size="11" fill="#64748b">Student login ID is never written to the feedback table. Only the system-generated Reference ID is</text>
<text x="260" y="1199" font-size="11" fill="#64748b">stored. Even a database administrator cannot trace feedback to a student.</text><line x1="56" y1="1224" x2="1184" y2="1224" stroke="#e5e7eb" stroke-width="0.8"/>
    <text x="60" y="1242" font-size="12" font-weight="700" fill="#1e3a8a">Integrity Enforcement</text>
    <text x="260" y="1229" font-size="11" fill="#64748b">Server validates: course belongs to student's department, faculty is assigned to that course.</text>
<text x="260" y="1245" font-size="11" fill="#64748b">Cross-department submissions are rejected at the server, independent of client-side checks.</text><line x1="56" y1="1270" x2="1184" y2="1270" stroke="#e5e7eb" stroke-width="0.8"/>
    <text x="60" y="1288" font-size="12" font-weight="700" fill="#1e3a8a">Window Enforcement</text>
    <text x="260" y="1275" font-size="11" fill="#64748b">Feedback window is verified server-side on every submission. Client-side bypass has no effect — the</text>
<text x="260" y="1291" font-size="11" fill="#64748b">server checks the database for an active window before accepting any record.</text><line x1="56" y1="1316" x2="1184" y2="1316" stroke="#e5e7eb" stroke-width="0.8"/>
    <text x="60" y="1334" font-size="12" font-weight="700" fill="#1e3a8a">No Raw SQL</text>
    <text x="260" y="1321" font-size="11" fill="#64748b">All database access goes through Drizzle ORM with parameterized queries. SQL injection is</text>
<text x="260" y="1337" font-size="11" fill="#64748b">effectively impossible — no string interpolation in queries.</text><line x1="56" y1="1362" x2="1184" y2="1362" stroke="#e5e7eb" stroke-width="0.8"/>
    <text x="60" y="1380" font-size="12" font-weight="700" fill="#1e3a8a">Error Handling</text>
    <text x="260" y="1367" font-size="11" fill="#64748b">Server errors are logged with Pino (JSON format). Clients receive generic error messages — stack</text>
<text x="260" y="1383" font-size="11" fill="#64748b">traces and database details are never exposed in API responses.</text>

  
  <rect x="40" y="1424" width="1160" height="36" rx="4" fill="#1e3a8a"/>
  <text x="56" y="1448" font-size="16" font-weight="800" fill="white">8.4. Anonymity Architecture -- How It Is Guaranteed</text>
  <rect x="40" y="1464" width="1160" height="230" rx="6" fill="#fffbeb" stroke="#fde68a" stroke-width="1.5"/>
  <text x="60" y="1492" font-size="14" font-weight="800" fill="#92400e">How Anonymity Is Guaranteed:</text>
  <text x="60" y="1508" font-size="12" fill="#0f172a">When a student submits feedback, the server generates a cryptographically unique Reference ID (format:</text>
<text x="60" y="1528" font-size="12" fill="#0f172a">FB-YYYYMMDD-XXXXXX). This ID is stored in the feedback record. The student's login ID (e.g. CUPGS/CSE/042) is</text>
<text x="60" y="1548" font-size="12" fill="#0f172a">NEVER written to the feedback table. There is no column, no join, and no log entry that links a student's identity</text>
<text x="60" y="1568" font-size="12" fill="#0f172a">to their feedback.</text>

  <rect x="60" y="1578" width="500" height="50" rx="6" fill="white" stroke="#fde68a" stroke-width="1"/>
  <text x="80" y="1598" font-size="12" font-weight="700" fill="#92400e">STORED in the feedback table:</text>
  <text x="80" y="1618" font-size="11" fill="#64748b">reference_id, course_id, dept_id, semester, year, ratings, comments, custom_answers</text>

  <rect x="600" y="1578" width="560" height="50" rx="6" fill="white" stroke="#fde68a" stroke-width="1"/>
  <text x="620" y="1598" font-size="12" font-weight="700" fill="#dc2626">NEVER STORED in the feedback table:</text>
  <text x="620" y="1618" font-size="11" fill="#64748b">student_id, employee_id, name, login credentials, IP address, browser fingerprint</text>

  <text x="60" y="1662" font-size="12" fill="#14532d" font-weight="600">- Even the developer and database admin cannot trace feedback back to a specific student.</text>
  <text x="60" y="1682" font-size="12" fill="#14532d" font-weight="600">- Students can verify their own submission using their Reference ID — but no one else can use it to identify them.</text>

  
  <rect x="40" y="1702" width="1160" height="36" rx="4" fill="#1e3a8a"/>
  <text x="56" y="1726" font-size="16" font-weight="800" fill="white">8.5. Error Handling Strategy</text>
  <rect x="40" y="1742" width="1160" height="100" rx="6" fill="#fafafa" stroke="#e5e7eb" stroke-width="1"/>
  <circle cx="68" cy="1752" r="4" fill="#dc2626"/><text x="80" y="1756" font-size="12" fill="#0f172a">Validation errors (HTTP 400): Field-specific error messages from Zod schema; user sees</text><text x="80" y="1776" font-size="12" fill="#0f172a">exactly what is wrong</text><circle cx="68" cy="1804" r="4" fill="#dc2626"/><text x="80" y="1808" font-size="12" fill="#0f172a">Auth errors (HTTP 401): Session missing or expired — client is redirected to the login</text><text x="80" y="1828" font-size="12" fill="#0f172a">page</text><circle cx="68" cy="1856" r="4" fill="#dc2626"/><text x="80" y="1860" font-size="12" fill="#0f172a">Rate limit exceeded (HTTP 429): Includes Retry-After header; client shows a countdown</text><text x="80" y="1880" font-size="12" fill="#0f172a">before allowing retry</text><circle cx="68" cy="1908" r="4" fill="#dc2626"/><text x="80" y="1912" font-size="12" fill="#0f172a">Server errors (HTTP 500): Logged with Pino for developer review; client receives a safe</text><text x="80" y="1932" font-size="12" fill="#0f172a">generic message (no stack trace exposed)</text>

  <rect x="0" y="1714" width="1240" height="40" fill="#0f172a"/>
  <text x="620" y="1738" text-anchor="middle" font-size="10" fill="#475569">CUPGS Feedback Manager  |  Project Documentation</text>
  <text x="1200" y="1738" text-anchor="end" font-size="10" fill="#475569">9 / 10</text>
</svg>