<?xml version="1.0" encoding="UTF-8"?>
<svg xmlns="http://www.w3.org/2000/svg" width="1240" height="1754" viewBox="0 0 1240 1754" font-family="Times New Roman,Georgia,serif">
  <defs>
    <linearGradient id="topBand" x1="0" y1="0" x2="1" y2="0">
      <stop offset="0%" stop-color="#0f3460"/>
      <stop offset="50%" stop-color="#1a4a8a"/>
      <stop offset="100%" stop-color="#0f3460"/>
    </linearGradient>
  </defs>

  <!-- Background -->
  <rect width="1240" height="1754" fill="white"/>

  <!-- Top decorative band -->
  <rect x="0" y="0" width="1240" height="10" fill="url(#topBand)"/>
  <rect x="0" y="10" width="1240" height="4" fill="#e94560"/>

  <!-- University Name Block -->
  <rect x="0" y="14" width="1240" height="110" fill="#0f3460"/>
  <text x="620" y="60" text-anchor="middle" font-size="20" font-weight="700" fill="#ffffff">BIJU PATNAIK UNIVERSITY OF TECHNOLOGY</text>
  <text x="620" y="88" text-anchor="middle" font-size="15" fill="#bfdbfe">Centre for Urban &amp; Planning Graduate Studies (CUPGS), Rourkela</text>
  <text x="620" y="112" text-anchor="middle" font-size="13" fill="#93c5fd">Department of Computer Science &amp; Engineering</text>

  <!-- Border frame -->
  <rect x="30" y="140" width="1180" height="1534" fill="none" stroke="#0f3460" stroke-width="3" rx="2"/>
  <rect x="38" y="148" width="1164" height="1518" fill="none" stroke="#e94560" stroke-width="1" rx="1"/>

  <!-- Decorative corner elements -->
  <rect x="30" y="140" width="60" height="60" fill="#0f3460"/>
  <rect x="1150" y="140" width="60" height="60" fill="#0f3460"/>
  <rect x="30" y="1534" width="60" height="60" fill="#0f3460"/>
  <rect x="1150" y="1534" width="60" height="60" fill="#0f3460"/>
  <rect x="34" y="144" width="52" height="52" fill="#e94560"/>
  <rect x="1154" y="144" width="52" height="52" fill="#e94560"/>
  <rect x="34" y="1538" width="52" height="52" fill="#e94560"/>
  <rect x="1154" y="1538" width="52" height="52" fill="#e94560"/>

  <!-- PROJECT REPORT label -->
  <text x="620" y="230" text-anchor="middle" font-size="14" fill="#6b7280" letter-spacing="6">PROJECT REPORT</text>
  <text x="620" y="258" text-anchor="middle" font-size="13" fill="#6b7280">Submitted in partial fulfillment of the requirements for the degree of</text>
  <text x="620" y="282" text-anchor="middle" font-size="14" font-weight="700" fill="#374151">Bachelor of Technology in Computer Science &amp; Engineering</text>

  <!-- Divider -->
  <line x1="160" y1="306" x2="1080" y2="306" stroke="#e94560" stroke-width="2"/>

  <!-- Project Title -->
  <text x="620" y="350" text-anchor="middle" font-size="13" fill="#6b7280" letter-spacing="3">PROJECT TITLE</text>
  <text x="620" y="404" text-anchor="middle" font-size="30" font-weight="700" fill="#0f3460">CUPGS Academic</text>
  <text x="620" y="448" text-anchor="middle" font-size="30" font-weight="700" fill="#0f3460">Feedback Manager</text>
  <text x="620" y="490" text-anchor="middle" font-size="16" fill="#374151">An Anonymous Student Feedback System</text>
  <text x="620" y="516" text-anchor="middle" font-size="16" fill="#374151">with Role-Based Access Control</text>

  <!-- Divider -->
  <line x1="160" y1="544" x2="1080" y2="544" stroke="#e94560" stroke-width="2"/>

  <!-- Submitted By -->
  <text x="620" y="590" text-anchor="middle" font-size="13" fill="#6b7280" letter-spacing="3">SUBMITTED BY</text>
  <rect x="280" y="610" width="680" height="190" rx="6" fill="#0f346008" stroke="#0f346030" stroke-width="1"/>

  <text x="620" y="648" text-anchor="middle" font-size="22" font-weight="700" fill="#0f3460">Akshaya Gardia</text>
  <text x="620" y="678" text-anchor="middle" font-size="14" fill="#374151">B.Tech — Computer Science &amp; Engineering</text>

  <line x1="320" y1="696" x2="920" y2="696" stroke="#d1d5db" stroke-width="1" stroke-dasharray="4,4"/>

  <text x="400" y="724" font-size="13" fill="#6b7280">Roll Number:</text>
  <text x="560" y="724" font-size="13" fill="#374151">_____________________________</text>
  <text x="400" y="752" font-size="13" fill="#6b7280">Registration No.:</text>
  <text x="560" y="752" font-size="13" fill="#374151">_____________________________</text>
  <text x="400" y="780" font-size="13" fill="#6b7280">Academic Year:</text>
  <text x="560" y="780" font-size="13" fill="#374151">2024 - 2025</text>

  <!-- Divider -->
  <line x1="160" y1="820" x2="1080" y2="820" stroke="#e94560" stroke-width="2"/>

  <!-- Submitted To -->
  <text x="620" y="864" text-anchor="middle" font-size="13" fill="#6b7280" letter-spacing="3">SUBMITTED TO</text>
  <rect x="280" y="882" width="680" height="200" rx="6" fill="#0f346008" stroke="#0f346030" stroke-width="1"/>

  <text x="400" y="918" font-size="13" fill="#6b7280">Guide Name:</text>
  <text x="560" y="918" font-size="13" fill="#374151">_____________________________</text>
  <text x="400" y="946" font-size="13" fill="#6b7280">Designation:</text>
  <text x="560" y="946" font-size="13" fill="#374151">_____________________________</text>
  <text x="400" y="974" font-size="13" fill="#6b7280">Department:</text>
  <text x="560" y="974" font-size="13" fill="#374151">Computer Science &amp; Engineering</text>
  <text x="400" y="1002" font-size="13" fill="#6b7280">Institution:</text>
  <text x="560" y="1002" font-size="13" fill="#374151">CUPGS, BPUT Rourkela</text>
  <text x="400" y="1030" font-size="13" fill="#6b7280">Semester:</text>
  <text x="560" y="1030" font-size="13" fill="#374151">_____________________________</text>

  <!-- Divider -->
  <line x1="160" y1="1102" x2="1080" y2="1102" stroke="#e94560" stroke-width="2"/>

  <!-- University Logos / Seal area -->
  <text x="620" y="1150" text-anchor="middle" font-size="13" fill="#6b7280" letter-spacing="3">INSTITUTION SEAL</text>
  <circle cx="620" cy="1270" r="100" fill="none" stroke="#0f3460" stroke-width="2" stroke-dasharray="6,4"/>
  <circle cx="620" cy="1270" r="86" fill="none" stroke="#0f346050" stroke-width="1"/>
  <text x="620" y="1262" text-anchor="middle" font-size="13" fill="#0f3460">Official</text>
  <text x="620" y="1282" text-anchor="middle" font-size="13" fill="#0f3460">Seal</text>

  <!-- Exam year -->
  <text x="620" y="1432" text-anchor="middle" font-size="15" font-weight="700" fill="#0f3460">Biju Patnaik University of Technology</text>
  <text x="620" y="1458" text-anchor="middle" font-size="13" fill="#374151">Odisha, India</text>
  <text x="620" y="1488" text-anchor="middle" font-size="14" font-weight="700" fill="#e94560">Academic Year: 2024 - 2025</text>

  <!-- Bottom decorative band -->
  <rect x="0" y="1674" width="1240" height="80" fill="#0f3460"/>
  <rect x="0" y="1674" width="1240" height="4" fill="#e94560"/>
  <text x="620" y="1710" text-anchor="middle" font-size="13" fill="#93c5fd">CUPGS Academic Feedback Manager  |  CSE Project Report</text>
  <text x="620" y="1734" text-anchor="middle" font-size="12" fill="#64748b">Biju Patnaik University of Technology, Rourkela  |  2024-25</text>
</svg>