<?xml version="1.0" encoding="UTF-8"?>
<svg xmlns="http://www.w3.org/2000/svg" width="1240" height="1754" viewBox="0 0 1240 1754" font-family="Times New Roman,Georgia,serif">
  <rect width="1240" height="1754" fill="white"/>
  <rect x="0" y="0" width="1240" height="10" fill="#0f3460"/>
  <rect x="0" y="10" width="1240" height="4" fill="#e94560"/>
  <rect x="0" y="14" width="1240" height="56" fill="#0f3460"/>
  <rect x="0" y="70" width="1240" height="4" fill="#e94560"/>
  <text x="60" y="50" font-size="22" font-weight="800" fill="#ffffff">Chapter 3: System Requirements Specification (SRS)</text>

  <rect x="60" y="88" width="1120" height="30" rx="4" fill="#0f346015" stroke="#0f346040" stroke-width="1"/>
  <text x="72" y="108" font-size="13" font-weight="800" fill="#0f3460">3.1  Functional Requirements</text>
  <text x="80" y="130" font-size="12" fill="#374151" font-weight="normal">The system shall provide the following functional capabilities:</text>

  <!-- FR Table -->
  <rect x="60" y="154" width="1120" height="34" fill="#0f3460"/><text x="70" y="176" font-size="13" fill="#ffffff" font-weight="700">FR-ID</text><line x1="140" y1="154" x2="140" y2="188" stroke="#d1d5db" stroke-width="0.8"/><text x="150" y="176" font-size="13" fill="#ffffff" font-weight="700">Module</text><line x1="300" y1="154" x2="300" y2="188" stroke="#d1d5db" stroke-width="0.8"/><text x="310" y="176" font-size="13" fill="#ffffff" font-weight="700">Requirement Description</text><line x1="60" y1="188" x2="1180" y2="188" stroke="#d1d5db" stroke-width="0.8"/>
  <rect x="60" y="188" width="1120" height="34" fill="#f9fafb"/><text x="70" y="210" font-size="11" fill="#374151" font-weight="400">FR-01</text><line x1="140" y1="188" x2="140" y2="222" stroke="#d1d5db" stroke-width="0.8"/><text x="150" y="210" font-size="11" fill="#374151" font-weight="400">Auth</text><line x1="300" y1="188" x2="300" y2="222" stroke="#d1d5db" stroke-width="0.8"/><text x="310" y="210" font-size="11" fill="#374151" font-weight="400">The system shall authenticate users based on role-specific ID format and PIN/password.</text><line x1="60" y1="222" x2="1180" y2="222" stroke="#d1d5db" stroke-width="0.8"/><rect x="60" y="218" width="1120" height="34" fill="white"/><text x="70" y="240" font-size="11" fill="#374151" font-weight="400">FR-02</text><line x1="140" y1="218" x2="140" y2="252" stroke="#d1d5db" stroke-width="0.8"/><text x="150" y="240" font-size="11" fill="#374151" font-weight="400">Auth</text><line x1="300" y1="218" x2="300" y2="252" stroke="#d1d5db" stroke-width="0.8"/><text x="310" y="240" font-size="11" fill="#374151" font-weight="400">The system shall create server-side sessions upon successful login and destroy them on logout.</text><line x1="60" y1="252" x2="1180" y2="252" stroke="#d1d5db" stroke-width="0.8"/><rect x="60" y="248" width="1120" height="34" fill="#f9fafb"/><text x="70" y="270" font-size="11" fill="#374151" font-weight="400">FR-03</text><line x1="140" y1="248" x2="140" y2="282" stroke="#d1d5db" stroke-width="0.8"/><text x="150" y="270" font-size="11" fill="#374151" font-weight="400">Feedback</text><line x1="300" y1="248" x2="300" y2="282" stroke="#d1d5db" stroke-width="0.8"/><text x="310" y="270" font-size="11" fill="#374151" font-weight="400">Students shall be able to submit anonymous feedback with drag-based half-star ratings (0.5 to 5.0).</text><line x1="60" y1="282" x2="1180" y2="282" stroke="#d1d5db" stroke-width="0.8"/><rect x="60" y="278" width="1120" height="34" fill="white"/><text x="70" y="300" font-size="11" fill="#374151" font-weight="400">FR-04</text><line x1="140" y1="278" x2="140" y2="312" stroke="#d1d5db" stroke-width="0.8"/><text x="150" y="300" font-size="11" fill="#374151" font-weight="400">Feedback</text><line x1="300" y1="278" x2="300" y2="312" stroke="#d1d5db" stroke-width="0.8"/><text x="310" y="300" font-size="11" fill="#374151" font-weight="400">Each feedback submission shall generate a unique cryptographic Reference ID (FB-YYYYMMDD-XXXXXX).</text><line x1="60" y1="312" x2="1180" y2="312" stroke="#d1d5db" stroke-width="0.8"/><rect x="60" y="308" width="1120" height="34" fill="#f9fafb"/><text x="70" y="330" font-size="11" fill="#374151" font-weight="400">FR-05</text><line x1="140" y1="308" x2="140" y2="342" stroke="#d1d5db" stroke-width="0.8"/><text x="150" y="330" font-size="11" fill="#374151" font-weight="400">Feedback</text><line x1="300" y1="308" x2="300" y2="342" stroke="#d1d5db" stroke-width="0.8"/><text x="310" y="330" font-size="11" fill="#374151" font-weight="400">Students shall be able to verify their submission using the Reference ID without revealing identity.</text><line x1="60" y1="342" x2="1180" y2="342" stroke="#d1d5db" stroke-width="0.8"/><rect x="60" y="338" width="1120" height="34" fill="white"/><text x="70" y="360" font-size="11" fill="#374151" font-weight="400">FR-06</text><line x1="140" y1="338" x2="140" y2="372" stroke="#d1d5db" stroke-width="0.8"/><text x="150" y="360" font-size="11" fill="#374151" font-weight="400">Feedback</text><line x1="300" y1="338" x2="300" y2="372" stroke="#d1d5db" stroke-width="0.8"/><text x="310" y="360" font-size="11" fill="#374151" font-weight="400">The system shall validate that the submitted course belongs to the student's registered department.</text><line x1="60" y1="372" x2="1180" y2="372" stroke="#d1d5db" stroke-width="0.8"/><rect x="60" y="368" width="1120" height="34" fill="#f9fafb"/><text x="70" y="390" font-size="11" fill="#374151" font-weight="400">FR-07</text><line x1="140" y1="368" x2="140" y2="402" stroke="#d1d5db" stroke-width="0.8"/><text x="150" y="390" font-size="11" fill="#374151" font-weight="400">HOD</text><line x1="300" y1="368" x2="300" y2="402" stroke="#d1d5db" stroke-width="0.8"/><text x="310" y="390" font-size="11" fill="#374151" font-weight="400">HODs shall access a real-time analytics dashboard for their department with per-course ratings.</text><line x1="60" y1="402" x2="1180" y2="402" stroke="#d1d5db" stroke-width="0.8"/><rect x="60" y="398" width="1120" height="34" fill="white"/><text x="70" y="420" font-size="11" fill="#374151" font-weight="400">FR-08</text><line x1="140" y1="398" x2="140" y2="432" stroke="#d1d5db" stroke-width="0.8"/><text x="150" y="420" font-size="11" fill="#374151" font-weight="400">HOD</text><line x1="300" y1="398" x2="300" y2="432" stroke="#d1d5db" stroke-width="0.8"/><text x="310" y="420" font-size="11" fill="#374151" font-weight="400">HODs shall be able to download a formatted PDF report of department analytics with one click.</text><line x1="60" y1="432" x2="1180" y2="432" stroke="#d1d5db" stroke-width="0.8"/><rect x="60" y="428" width="1120" height="34" fill="#f9fafb"/><text x="70" y="450" font-size="11" fill="#374151" font-weight="400">FR-09</text><line x1="140" y1="428" x2="140" y2="462" stroke="#d1d5db" stroke-width="0.8"/><text x="150" y="450" font-size="11" fill="#374151" font-weight="400">HOD</text><line x1="300" y1="428" x2="300" y2="462" stroke="#d1d5db" stroke-width="0.8"/><text x="310" y="450" font-size="11" fill="#374151" font-weight="400">HODs shall be able to add, edit, and remove custom questions from the department feedback form.</text><line x1="60" y1="462" x2="1180" y2="462" stroke="#d1d5db" stroke-width="0.8"/><rect x="60" y="458" width="1120" height="34" fill="white"/><text x="70" y="480" font-size="11" fill="#374151" font-weight="400">FR-10</text><line x1="140" y1="458" x2="140" y2="492" stroke="#d1d5db" stroke-width="0.8"/><text x="150" y="480" font-size="11" fill="#374151" font-weight="400">Admin</text><line x1="300" y1="458" x2="300" y2="492" stroke="#d1d5db" stroke-width="0.8"/><text x="310" y="480" font-size="11" fill="#374151" font-weight="400">Admins shall be able to create, activate, and deactivate time-bound feedback windows.</text><line x1="60" y1="492" x2="1180" y2="492" stroke="#d1d5db" stroke-width="0.8"/><rect x="60" y="488" width="1120" height="34" fill="#f9fafb"/><text x="70" y="510" font-size="11" fill="#374151" font-weight="400">FR-11</text><line x1="140" y1="488" x2="140" y2="522" stroke="#d1d5db" stroke-width="0.8"/><text x="150" y="510" font-size="11" fill="#374151" font-weight="400">Admin</text><line x1="300" y1="488" x2="300" y2="522" stroke="#d1d5db" stroke-width="0.8"/><text x="310" y="510" font-size="11" fill="#374151" font-weight="400">Admins shall manage departments, courses, and faculty assignments institution-wide.</text><line x1="60" y1="522" x2="1180" y2="522" stroke="#d1d5db" stroke-width="0.8"/><rect x="60" y="518" width="1120" height="34" fill="white"/><text x="70" y="540" font-size="11" fill="#374151" font-weight="400">FR-12</text><line x1="140" y1="518" x2="140" y2="552" stroke="#d1d5db" stroke-width="0.8"/><text x="150" y="540" font-size="11" fill="#374151" font-weight="400">Faculty</text><line x1="300" y1="518" x2="300" y2="552" stroke="#d1d5db" stroke-width="0.8"/><text x="310" y="540" font-size="11" fill="#374151" font-weight="400">Faculty shall be able to view anonymized feedback analytics for their assigned courses.</text><line x1="60" y1="552" x2="1180" y2="552" stroke="#d1d5db" stroke-width="0.8"/>
  <rect x="60" y="154" width="1120" height="390" fill="none" stroke="#d1d5db" stroke-width="1"/>

  <rect x="60" y="554" width="1120" height="30" rx="4" fill="#0f346015" stroke="#0f346040" stroke-width="1"/>
  <text x="72" y="574" font-size="13" font-weight="800" fill="#0f3460">3.2  Non-Functional Requirements</text>
  <rect x="60" y="594" width="1120" height="34" fill="#0f3460"/><text x="70" y="616" font-size="13" fill="#ffffff" font-weight="700">NFR-ID</text><line x1="150" y1="594" x2="150" y2="628" stroke="#d1d5db" stroke-width="0.8"/><text x="160" y="616" font-size="13" fill="#ffffff" font-weight="700">Category</text><line x1="330" y1="594" x2="330" y2="628" stroke="#d1d5db" stroke-width="0.8"/><text x="340" y="616" font-size="13" fill="#ffffff" font-weight="700">Requirement</text><line x1="60" y1="628" x2="1180" y2="628" stroke="#d1d5db" stroke-width="0.8"/>
  <rect x="60" y="628" width="1120" height="34" fill="#f9fafb"/><text x="70" y="650" font-size="11" fill="#374151" font-weight="400">NFR-01</text><line x1="150" y1="628" x2="150" y2="662" stroke="#d1d5db" stroke-width="0.8"/><text x="160" y="650" font-size="11" fill="#374151" font-weight="400">Security</text><line x1="330" y1="628" x2="330" y2="662" stroke="#d1d5db" stroke-width="0.8"/><text x="340" y="650" font-size="11" fill="#374151" font-weight="400">All API endpoints shall implement rate limiting. Auth: 10/15min. Feedback: 20/10min. Global: 100/15min.</text><line x1="60" y1="662" x2="1180" y2="662" stroke="#d1d5db" stroke-width="0.8"/><rect x="60" y="664" width="1120" height="34" fill="white"/><text x="70" y="686" font-size="11" fill="#374151" font-weight="400">NFR-02</text><line x1="150" y1="664" x2="150" y2="698" stroke="#d1d5db" stroke-width="0.8"/><text x="160" y="686" font-size="11" fill="#374151" font-weight="400">Anonymity</text><line x1="330" y1="664" x2="330" y2="698" stroke="#d1d5db" stroke-width="0.8"/><text x="340" y="686" font-size="11" fill="#374151" font-weight="400">Student login identity shall never be persisted in or linked to any feedback record in the database.</text><line x1="60" y1="698" x2="1180" y2="698" stroke="#d1d5db" stroke-width="0.8"/><rect x="60" y="700" width="1120" height="34" fill="#f9fafb"/><text x="70" y="722" font-size="11" fill="#374151" font-weight="400">NFR-03</text><line x1="150" y1="700" x2="150" y2="734" stroke="#d1d5db" stroke-width="0.8"/><text x="160" y="722" font-size="11" fill="#374151" font-weight="400">Performance</text><line x1="330" y1="700" x2="330" y2="734" stroke="#d1d5db" stroke-width="0.8"/><text x="340" y="722" font-size="11" fill="#374151" font-weight="400">The HOD dashboard shall load within 3 seconds on a standard broadband connection.</text><line x1="60" y1="734" x2="1180" y2="734" stroke="#d1d5db" stroke-width="0.8"/><rect x="60" y="736" width="1120" height="34" fill="white"/><text x="70" y="758" font-size="11" fill="#374151" font-weight="400">NFR-04</text><line x1="150" y1="736" x2="150" y2="770" stroke="#d1d5db" stroke-width="0.8"/><text x="160" y="758" font-size="11" fill="#374151" font-weight="400">Usability</text><line x1="330" y1="736" x2="330" y2="770" stroke="#d1d5db" stroke-width="0.8"/><text x="340" y="758" font-size="11" fill="#374151" font-weight="400">The interface shall be fully responsive and usable on screen widths from 320px to 4K resolution.</text><line x1="60" y1="770" x2="1180" y2="770" stroke="#d1d5db" stroke-width="0.8"/><rect x="60" y="772" width="1120" height="34" fill="#f9fafb"/><text x="70" y="794" font-size="11" fill="#374151" font-weight="400">NFR-05</text><line x1="150" y1="772" x2="150" y2="806" stroke="#d1d5db" stroke-width="0.8"/><text x="160" y="794" font-size="11" fill="#374151" font-weight="400">Reliability</text><line x1="330" y1="772" x2="330" y2="806" stroke="#d1d5db" stroke-width="0.8"/><text x="340" y="794" font-size="11" fill="#374151" font-weight="400">The system shall handle concurrent submissions without data loss or integrity violations.</text><line x1="60" y1="806" x2="1180" y2="806" stroke="#d1d5db" stroke-width="0.8"/><rect x="60" y="808" width="1120" height="34" fill="white"/><text x="70" y="830" font-size="11" fill="#374151" font-weight="400">NFR-06</text><line x1="150" y1="808" x2="150" y2="842" stroke="#d1d5db" stroke-width="0.8"/><text x="160" y="830" font-size="11" fill="#374151" font-weight="400">Maintainability</text><line x1="330" y1="808" x2="330" y2="842" stroke="#d1d5db" stroke-width="0.8"/><text x="340" y="830" font-size="11" fill="#374151" font-weight="400">All API inputs shall be validated using Zod schemas to prevent runtime type errors.</text><line x1="60" y1="842" x2="1180" y2="842" stroke="#d1d5db" stroke-width="0.8"/><rect x="60" y="844" width="1120" height="34" fill="#f9fafb"/><text x="70" y="866" font-size="11" fill="#374151" font-weight="400">NFR-07</text><line x1="150" y1="844" x2="150" y2="878" stroke="#d1d5db" stroke-width="0.8"/><text x="160" y="866" font-size="11" fill="#374151" font-weight="400">Portability</text><line x1="330" y1="844" x2="330" y2="878" stroke="#d1d5db" stroke-width="0.8"/><text x="340" y="866" font-size="11" fill="#374151" font-weight="400">The application shall be deployable as a PWA, installable on Android, iOS, and desktop browsers.</text><line x1="60" y1="878" x2="1180" y2="878" stroke="#d1d5db" stroke-width="0.8"/><rect x="60" y="880" width="1120" height="34" fill="white"/><text x="70" y="902" font-size="11" fill="#374151" font-weight="400">NFR-08</text><line x1="150" y1="880" x2="150" y2="914" stroke="#d1d5db" stroke-width="0.8"/><text x="160" y="902" font-size="11" fill="#374151" font-weight="400">Scalability</text><line x1="330" y1="880" x2="330" y2="914" stroke="#d1d5db" stroke-width="0.8"/><text x="340" y="902" font-size="11" fill="#374151" font-weight="400">The PostgreSQL schema shall support addition of new departments without structural migration.</text><line x1="60" y1="914" x2="1180" y2="914" stroke="#d1d5db" stroke-width="0.8"/>
  <rect x="60" y="594" width="1120" height="324" fill="none" stroke="#d1d5db" stroke-width="1"/>

  <rect x="60" y="930" width="1120" height="30" rx="4" fill="#0f346015" stroke="#0f346040" stroke-width="1"/>
  <text x="72" y="950" font-size="13" font-weight="800" fill="#0f3460">3.3  Feasibility Study</text>

  <text x="80" y="972" font-size="13" font-weight="700" fill="#0f3460">3.3.1  Technical Feasibility</text>
  <line x1="80" y1="976" x2="280" y2="976" stroke="#e94560" stroke-width="2"/>
  <text x="80" y="994" font-size="12" fill="#374151" font-weight="normal">The technologies selected — React 18, Node.js, Express.js, and PostgreSQL — are all mature, open-source,</text>
<text x="80" y="1015" font-size="12" fill="#374151" font-weight="normal">and widely supported. The development environment (cloud platform with pnpm workspaces) provides</text>
<text x="80" y="1036" font-size="12" fill="#374151" font-weight="normal">immediate deployment capability. The team possesses the necessary skills in JavaScript/TypeScript</text>
<text x="80" y="1057" font-size="12" fill="#374151" font-weight="normal">development. All tools are freely available with extensive documentation.</text>

  <text x="80" y="1090" font-size="13" font-weight="700" fill="#0f3460">3.3.2  Economic Feasibility</text>
  <line x1="80" y1="1094" x2="280" y2="1094" stroke="#e94560" stroke-width="2"/>
  <text x="80" y="1112" font-size="12" fill="#374151" font-weight="normal">The entire system is built using open-source technologies with no licensing cost. The hosting platform</text>
<text x="80" y="1133" font-size="12" fill="#374151" font-weight="normal">provides free-tier infrastructure for development and basic production use. The only recurring cost is</text>
<text x="80" y="1154" font-size="12" fill="#374151" font-weight="normal">database hosting, which is included in the platform subscription. The development effort of one</text>
<text x="80" y="1175" font-size="12" fill="#374151" font-weight="normal">developer over one academic semester is the primary cost, estimated in Chapter 7.</text>

  <text x="80" y="1208" font-size="13" font-weight="700" fill="#0f3460">3.3.3  Operational Feasibility</text>
  <line x1="80" y1="1212" x2="280" y2="1212" stroke="#e94560" stroke-width="2"/>
  <text x="80" y="1230" font-size="12" fill="#374151" font-weight="normal">The system replaces a familiar paper-based process with a digital equivalent that is simpler to use.</text>
<text x="80" y="1251" font-size="12" fill="#374151" font-weight="normal">Students submit feedback via any web browser — no app installation required. HODs access analytics</text>
<text x="80" y="1272" font-size="12" fill="#374151" font-weight="normal">without any special training. Admins manage the system through an intuitive panel. A PWA interface</text>
<text x="80" y="1293" font-size="12" fill="#374151" font-weight="normal">further reduces the learning curve by providing a native-app-like experience.</text>

  <text x="80" y="1326" font-size="13" font-weight="700" fill="#0f3460">3.3.4  Schedule Feasibility</text>
  <line x1="80" y1="1330" x2="280" y2="1330" stroke="#e94560" stroke-width="2"/>
  <text x="80" y="1348" font-size="12" fill="#374151" font-weight="normal">The project was planned to be completed within one academic semester (approximately 5 months). The scope</text>
<text x="80" y="1369" font-size="12" fill="#374151" font-weight="normal">was defined conservatively to ensure all core modules — authentication, feedback submission, HOD</text>
<text x="80" y="1390" font-size="12" fill="#374151" font-weight="normal">analytics, admin management, and PDF generation — could be fully implemented and tested within the</text>
<text x="80" y="1411" font-size="12" fill="#374151" font-weight="normal">allocated time.</text>

  <rect x="60" y="1440" width="1120" height="30" rx="4" fill="#0f346015" stroke="#0f346040" stroke-width="1"/>
  <text x="72" y="1460" font-size="13" font-weight="800" fill="#0f3460">3.4  Hardware and Software Requirements</text>
  <rect x="60" y="1480" width="540" height="200" rx="4" fill="#f9fafb" stroke="#d1d5db" stroke-width="1"/>
  <text x="330" y="1506" text-anchor="middle" font-size="13" font-weight="700" fill="#0f3460">Hardware Requirements (Development)</text>
  <text x="80" y="1530" font-size="12" font-weight="700" fill="#374151">Processor:</text><text x="200" y="1530" font-size="12" fill="#6b7280">Intel Core i5 or equivalent (minimum)</text><text x="80" y="1558" font-size="12" font-weight="700" fill="#374151">RAM:</text><text x="200" y="1558" font-size="12" fill="#6b7280">8 GB minimum, 16 GB recommended</text><text x="80" y="1586" font-size="12" font-weight="700" fill="#374151">Storage:</text><text x="200" y="1586" font-size="12" fill="#6b7280">50 GB free disk space</text><text x="80" y="1614" font-size="12" font-weight="700" fill="#374151">Network:</text><text x="200" y="1614" font-size="12" fill="#6b7280">Stable broadband internet connection</text><text x="80" y="1642" font-size="12" font-weight="700" fill="#374151">Display:</text><text x="200" y="1642" font-size="12" fill="#6b7280">1920x1080 minimum resolution</text>

  <rect x="640" y="1480" width="540" height="200" rx="4" fill="#f9fafb" stroke="#d1d5db" stroke-width="1"/>
  <text x="910" y="1506" text-anchor="middle" font-size="13" font-weight="700" fill="#0f3460">Software Requirements</text>
  <text x="660" y="1530" font-size="12" font-weight="700" fill="#374151">OS:</text><text x="780" y="1530" font-size="12" fill="#6b7280">Windows 10 / macOS / Linux</text><text x="660" y="1558" font-size="12" font-weight="700" fill="#374151">Runtime:</text><text x="780" y="1558" font-size="12" fill="#6b7280">Node.js v18+, pnpm v8+</text><text x="660" y="1586" font-size="12" font-weight="700" fill="#374151">Database:</text><text x="780" y="1586" font-size="12" fill="#6b7280">PostgreSQL 15+</text><text x="660" y="1614" font-size="12" font-weight="700" fill="#374151">Browser:</text><text x="780" y="1614" font-size="12" fill="#6b7280">Chrome 110+ / Firefox 110+ / Safari 16+</text><text x="660" y="1642" font-size="12" font-weight="700" fill="#374151">Editor:</text><text x="780" y="1642" font-size="12" fill="#6b7280">VS Code with TypeScript extension</text>

  <rect x="0" y="1706" width="1240" height="48" fill="#0f3460"/>
  <line x1="0" y1="1706" x2="1240" y2="1706" stroke="#e94560" stroke-width="3"/>
  <text x="60" y="1736" font-size="11" fill="#94a3b8">CUPGS Academic Feedback Manager  |  Software Engineering Project Report</text>
  <text x="1180" y="1736" text-anchor="end" font-size="11" fill="#94a3b8">Page 6 of 16</text>
</svg>