<?xml version="1.0" encoding="UTF-8"?>
<svg xmlns="http://www.w3.org/2000/svg" width="1240" height="1754" viewBox="0 0 1240 1754" font-family="Times New Roman,Georgia,serif">
  <rect width="1240" height="1754" fill="white"/>
  <rect x="0" y="0" width="1240" height="10" fill="#0f3460"/>
  <rect x="0" y="10" width="1240" height="4" fill="#e94560"/>
  <rect x="0" y="14" width="1240" height="56" fill="#0f3460"/>
  <rect x="0" y="70" width="1240" height="4" fill="#e94560"/>
  <text x="60" y="50" font-size="22" font-weight="800" fill="#ffffff">Chapter 4: System Design</text>

  <rect x="60" y="88" width="1120" height="30" rx="4" fill="#0f346015" stroke="#0f346040" stroke-width="1"/>
  <text x="72" y="108" font-size="13" font-weight="800" fill="#0f3460">4.1  System Architecture Overview</text>
  <text x="80" y="130" font-size="12" fill="#374151" font-weight="normal">The CUPGS Feedback Manager follows a classic three-tier client-server architecture. The Presentation</text>
<text x="80" y="151" font-size="12" fill="#374151" font-weight="normal">Layer (React + TypeScript + Vite) communicates with the Application Layer (Node.js + Express.js) via</text>
<text x="80" y="172" font-size="12" fill="#374151" font-weight="normal">RESTful HTTP APIs. The Application Layer interfaces with the Data Layer (PostgreSQL via Drizzle ORM).</text>
<text x="80" y="193" font-size="12" fill="#374151" font-weight="normal">This separation ensures maintainability, testability, and independent scalability of each layer.</text>

  <!-- Architecture Diagram -->
  <rect x="60"  y="230" width="1120" height="80" rx="6" fill="#eff6ff" stroke="#bfdbfe" stroke-width="2"/>
  <text x="200" y="262" font-size="13" font-weight="700" fill="#1e3a8a">PRESENTATION LAYER</text>
  <text x="200" y="284" font-size="11" fill="#6b7280">React 18 + TypeScript + Vite + Tailwind CSS + shadcn/ui</text>
  <text x="930" y="272" font-size="11" fill="#6b7280">Browser / PWA (Any device)</text>

  <text x="620" y="332" text-anchor="middle" font-size="13" fill="#6b7280">REST API (HTTP/JSON via Axios)</text>
  <line x1="620" y1="310" x2="620" y2="352" stroke="#6b7280" stroke-width="2" stroke-dasharray="4,3"/>

  <rect x="60"  y="356" width="1120" height="80" rx="6" fill="#f0fdf4" stroke="#bbf7d0" stroke-width="2"/>
  <text x="200" y="388" font-size="13" font-weight="700" fill="#14532d">APPLICATION LAYER</text>
  <text x="200" y="410" font-size="11" fill="#6b7280">Node.js + Express.js + TypeScript | Session, Rate Limit, Zod Validation</text>
  <text x="930" y="398" font-size="11" fill="#6b7280">Port 8080</text>

  <text x="620" y="458" text-anchor="middle" font-size="13" fill="#6b7280">Drizzle ORM (type-safe SQL)</text>
  <line x1="620" y1="436" x2="620" y2="478" stroke="#6b7280" stroke-width="2" stroke-dasharray="4,3"/>

  <rect x="60"  y="482" width="1120" height="80" rx="6" fill="#fdf4ff" stroke="#e9d5ff" stroke-width="2"/>
  <text x="200" y="514" font-size="13" font-weight="700" fill="#7c3aed">DATA LAYER</text>
  <text x="200" y="536" font-size="11" fill="#6b7280">PostgreSQL 15 | 6 tables | JSONB + real type | Replit managed database</text>
  <text x="930" y="524" font-size="11" fill="#6b7280">DATABASE_URL env</text>

  <rect x="60" y="584" width="1120" height="30" rx="4" fill="#0f346015" stroke="#0f346040" stroke-width="1"/>
  <text x="72" y="604" font-size="13" font-weight="800" fill="#0f3460">4.2  Data Flow Diagram -- Level 0 (Context Diagram)</text>
  <text x="80" y="626" font-size="12" fill="#374151" font-weight="normal">The Level 0 DFD represents the entire system as a single process (Process 0) with external entities and</text>
<text x="80" y="646" font-size="12" fill="#374151" font-weight="normal">data flows. Notation: Yourdon-Coad.</text>

  <!-- Level 0 DFD Drawing -->
  <!-- External entities -->
  <rect x="60"  y="660" width="180" height="60" rx="4" fill="#1e3a8a" stroke="#1e40af" stroke-width="2"/>
  <text x="150" y="695" text-anchor="middle" font-size="13" font-weight="700" fill="white">STUDENT</text>
  <rect x="980" y="660" width="180" height="60" rx="4" fill="#1e3a8a" stroke="#1e40af" stroke-width="2"/>
  <text x="1070" y="695" text-anchor="middle" font-size="13" font-weight="700" fill="white">HOD</text>
  <rect x="60"  y="910" width="180" height="60" rx="4" fill="#1e3a8a" stroke="#1e40af" stroke-width="2"/>
  <text x="150" y="945" text-anchor="middle" font-size="13" font-weight="700" fill="white">FACULTY</text>
  <rect x="980" y="910" width="180" height="60" rx="4" fill="#1e3a8a" stroke="#1e40af" stroke-width="2"/>
  <text x="1070" y="945" text-anchor="middle" font-size="13" font-weight="700" fill="white">ADMIN</text>

  <!-- Central Process -->
  <ellipse cx="620" cy="810" rx="200" ry="110" fill="#14532d20" stroke="#14532d" stroke-width="3"/>
  <text x="620" y="798" text-anchor="middle" font-size="14" font-weight="700" fill="#14532d">Process 0</text>
  <text x="620" y="820" text-anchor="middle" font-size="12" fill="#14532d">CUPGS Feedback</text>
  <text x="620" y="840" text-anchor="middle" font-size="12" fill="#14532d">Management System</text>

  <!-- Arrows Student -->
  <line x1="240" y1="690" x2="420" y2="780" stroke="#374151" stroke-width="2" marker-end="url(#a1)"/>
  <text x="290" y="728" font-size="10" fill="#6b7280">Feedback Submission</text>
  <line x1="420" y1="800" x2="240" y2="720" stroke="#374151" stroke-width="2" marker-end="url(#a1)"/>
  <text x="280" y="778" font-size="10" fill="#6b7280">Reference ID</text>

  <!-- Arrows HOD -->
  <line x1="980" y1="690" x2="820" y2="780" stroke="#374151" stroke-width="2" marker-end="url(#a1)"/>
  <text x="870" y="720" font-size="10" fill="#6b7280">Form Config</text>
  <line x1="820" y1="800" x2="980" y2="720" stroke="#374151" stroke-width="2" marker-end="url(#a1)"/>
  <text x="864" y="776" font-size="10" fill="#6b7280">Analytics / PDF</text>

  <!-- Arrows Faculty -->
  <line x1="240" y1="940" x2="420" y2="840" stroke="#374151" stroke-width="2" marker-end="url(#a1)"/>
  <text x="268" y="900" font-size="10" fill="#6b7280">View Request</text>
  <line x1="420" y1="840" x2="240" y2="960" stroke="#374151" stroke-width="2" marker-end="url(#a1)"/>
  <text x="265" y="926" font-size="10" fill="#6b7280">Performance Data</text>

  <!-- Arrows Admin -->
  <line x1="980" y1="940" x2="820" y2="840" stroke="#374151" stroke-width="2" marker-end="url(#a1)"/>
  <text x="876" y="904" font-size="10" fill="#6b7280">Mgmt Request</text>
  <line x1="820" y1="840" x2="980" y2="960" stroke="#374151" stroke-width="2" marker-end="url(#a1)"/>
  <text x="863" y="930" font-size="10" fill="#6b7280">System Dashboard</text>

  <defs><marker id="a1" markerWidth="10" markerHeight="8" refX="10" refY="4" orient="auto"><polygon points="0 0,10 4,0 8" fill="#374151"/></marker></defs>

  <rect x="60" y="1050" width="1120" height="30" rx="4" fill="#0f346015" stroke="#0f346040" stroke-width="1"/>
  <text x="72" y="1070" font-size="13" font-weight="800" fill="#0f3460">4.3  Data Flow Diagram -- Level 1 (Functional Decomposition)</text>
  <text x="80" y="1092" font-size="12" fill="#374151" font-weight="normal">The Level 1 DFD decomposes the system into 5 major sub-processes: Authentication (1.0), Feedback</text>
<text x="80" y="1113" font-size="12" fill="#374151" font-weight="normal">Collection (2.0), Form Template Management (3.0), Analytics and Reporting (4.0), and Institution</text>
<text x="80" y="1134" font-size="12" fill="#374151" font-weight="normal">Management (5.0). Each process communicates with corresponding data stores.</text>

  <!-- Level 1 text-based representation -->
  <rect x="60" y="1116" width="560" height="140" rx="6" fill="#1e3a8a15" stroke="#1e3a8a" stroke-width="1.5"/>
    <rect x="60" y="1116" width="560" height="28" rx="6" fill="#1e3a8a"/>
    <text x="340" y="1135" text-anchor="middle" font-size="12" font-weight="700" fill="white">1.0 Authentication</text>
    <text x="76" y="1164" font-size="11" font-weight="700" fill="#374151">In: Login Credentials (All Roles)</text>
    <text x="76" y="1206" font-size="11" fill="#6b7280">Out: Auth Token / Session</text><text x="76" y="1226" font-size="11" fill="#6b7280">Out: Role Redirect</text><rect x="640" y="1116" width="560" height="140" rx="6" fill="#14532d15" stroke="#14532d" stroke-width="1.5"/>
    <rect x="640" y="1116" width="560" height="28" rx="6" fill="#14532d"/>
    <text x="920" y="1135" text-anchor="middle" font-size="12" font-weight="700" fill="white">2.0 Feedback Collection</text>
    <text x="656" y="1164" font-size="11" font-weight="700" fill="#374151">In: Feedback Form Data (Student)</text><text x="656" y="1184" font-size="11" font-weight="700" fill="#374151">In: Form Template (HOD)</text>
    <text x="656" y="1206" font-size="11" fill="#6b7280">Out: Reference ID</text><text x="656" y="1226" font-size="11" fill="#6b7280">Out: Confirmation Message</text><rect x="60" y="1276" width="560" height="140" rx="6" fill="#065f4615" stroke="#065f46" stroke-width="1.5"/>
    <rect x="60" y="1276" width="560" height="28" rx="6" fill="#065f46"/>
    <text x="340" y="1295" text-anchor="middle" font-size="12" font-weight="700" fill="white">3.0 Form Template Mgmt</text>
    <text x="76" y="1324" font-size="11" font-weight="700" fill="#374151">In: HOD Custom Form Config</text>
    <text x="76" y="1366" font-size="11" fill="#6b7280">Out: Saved Template Confirmation</text><text x="76" y="1386" font-size="11" fill="#6b7280">Out: Updated Student Form</text><rect x="640" y="1276" width="560" height="140" rx="6" fill="#7c2d1215" stroke="#7c2d12" stroke-width="1.5"/>
    <rect x="640" y="1276" width="560" height="28" rx="6" fill="#7c2d12"/>
    <text x="920" y="1295" text-anchor="middle" font-size="12" font-weight="700" fill="white">4.0 Analytics &amp; Reporting</text>
    <text x="656" y="1324" font-size="11" font-weight="700" fill="#374151">In: Analytics Request (HOD/Faculty)</text><text x="656" y="1344" font-size="11" font-weight="700" fill="#374151">In: PDF Request (HOD)</text>
    <text x="656" y="1366" font-size="11" fill="#6b7280">Out: Dashboard Data</text><text x="656" y="1386" font-size="11" fill="#6b7280">Out: PDF Report</text><rect x="280" y="1436" width="680" height="140" rx="6" fill="#4c1d9515" stroke="#4c1d95" stroke-width="1.5"/>
      <rect x="280" y="1436" width="680" height="28" rx="6" fill="#4c1d95"/>
      <text x="620" y="1455" text-anchor="middle" font-size="12" font-weight="700" fill="white">5.0 Institution Management</text>
      <text x="296" y="1484" font-size="11" font-weight="700" fill="#374151">Inputs: Management Request (Admin)</text>
      <text x="296" y="1506" font-size="11" font-weight="700" fill="#374151">Outputs: System Config Updates</text>

  <rect x="0" y="1706" width="1240" height="48" fill="#0f3460"/>
  <line x1="0" y1="1706" x2="1240" y2="1706" stroke="#e94560" stroke-width="3"/>
  <text x="60" y="1736" font-size="11" fill="#94a3b8">CUPGS Academic Feedback Manager  |  Software Engineering Project Report</text>
  <text x="1180" y="1736" text-anchor="end" font-size="11" fill="#94a3b8">Page 7 of 16</text>
</svg>