<?xml version="1.0" encoding="UTF-8"?>
<svg xmlns="http://www.w3.org/2000/svg" width="1240" height="1754" viewBox="0 0 1240 1754" font-family="Times New Roman,Georgia,serif">
  <rect width="1240" height="1754" fill="white"/>
  <rect x="0" y="0" width="1240" height="10" fill="#0f3460"/>
  <rect x="0" y="10" width="1240" height="4" fill="#e94560"/>
  <rect x="0" y="14" width="1240" height="36" fill="#0f346060"/>
  <text x="60" y="40" font-size="16" font-weight="700" fill="white">Chapter 4 (Continued): System Design</text>

  <rect x="60" y="60" width="1120" height="30" rx="4" fill="#0f346015" stroke="#0f346040" stroke-width="1"/>
  <text x="72" y="80" font-size="13" font-weight="800" fill="#0f3460">4.4  Entity-Relationship (ER) Diagram</text>
  <text x="80" y="102" font-size="12" fill="#374151" font-weight="normal">The database consists of 6 entities: departments, faculty, courses, feedback, form_templates, and</text>
<text x="80" y="122" font-size="12" fill="#374151" font-weight="normal">feedback_windows. Notation: Chen's ER model with Crow's Foot cardinality. PK = Primary Key, FK = Foreign</text>
<text x="80" y="142" font-size="12" fill="#374151" font-weight="normal">Key.</text>

  <!-- ER Entities -->
  <rect x="60" y="138" width="360" height="188" rx="4" fill="#1a7a6e15" stroke="#1a7a6e" stroke-width="2"/>
    <rect x="60" y="138" width="360" height="32" rx="4" fill="#1a7a6e"/>
    <text x="240" y="159" text-anchor="middle" font-size="13" font-weight="800" fill="white">departments</text>
    
      <text x="70" y="187" font-size="11" fill="#d97706" font-weight="700">id PK</text><line x1="64" y1="196" x2="416" y2="196" stroke="#1a7a6e30" stroke-width="0.7"/>
      <text x="70" y="213" font-size="11" fill="#374151" font-weight="400">code (UNIQUE)</text><line x1="64" y1="222" x2="416" y2="222" stroke="#1a7a6e30" stroke-width="0.7"/>
      <text x="70" y="239" font-size="11" fill="#374151" font-weight="400">name</text><line x1="64" y1="248" x2="416" y2="248" stroke="#1a7a6e30" stroke-width="0.7"/>
      <text x="70" y="265" font-size="11" fill="#374151" font-weight="400">hod_name</text><line x1="64" y1="274" x2="416" y2="274" stroke="#1a7a6e30" stroke-width="0.7"/>
      <text x="70" y="291" font-size="11" fill="#374151" font-weight="400">hod_employee_id</text><line x1="64" y1="300" x2="416" y2="300" stroke="#1a7a6e30" stroke-width="0.7"/>
      <text x="70" y="317" font-size="11" fill="#374151" font-weight="400">created_at</text><rect x="460" y="138" width="360" height="214" rx="4" fill="#1a7a6e15" stroke="#1a7a6e" stroke-width="2"/>
    <rect x="460" y="138" width="360" height="32" rx="4" fill="#1a7a6e"/>
    <text x="640" y="159" text-anchor="middle" font-size="13" font-weight="800" fill="white">faculty</text>
    
      <text x="470" y="187" font-size="11" fill="#d97706" font-weight="700">id PK</text><line x1="464" y1="196" x2="816" y2="196" stroke="#1a7a6e30" stroke-width="0.7"/>
      <text x="470" y="213" font-size="11" fill="#0284c7" font-weight="700">department_id FK</text><line x1="464" y1="222" x2="816" y2="222" stroke="#1a7a6e30" stroke-width="0.7"/>
      <text x="470" y="239" font-size="11" fill="#374151" font-weight="400">employee_id (UNQ)</text><line x1="464" y1="248" x2="816" y2="248" stroke="#1a7a6e30" stroke-width="0.7"/>
      <text x="470" y="265" font-size="11" fill="#374151" font-weight="400">name</text><line x1="464" y1="274" x2="816" y2="274" stroke="#1a7a6e30" stroke-width="0.7"/>
      <text x="470" y="291" font-size="11" fill="#374151" font-weight="400">designation</text><line x1="464" y1="300" x2="816" y2="300" stroke="#1a7a6e30" stroke-width="0.7"/>
      <text x="470" y="317" font-size="11" fill="#374151" font-weight="400">email</text><line x1="464" y1="326" x2="816" y2="326" stroke="#1a7a6e30" stroke-width="0.7"/>
      <text x="470" y="343" font-size="11" fill="#374151" font-weight="400">is_active</text><rect x="860" y="138" width="360" height="240" rx="4" fill="#1a7a6e15" stroke="#1a7a6e" stroke-width="2"/>
    <rect x="860" y="138" width="360" height="32" rx="4" fill="#1a7a6e"/>
    <text x="1040" y="159" text-anchor="middle" font-size="13" font-weight="800" fill="white">courses</text>
    
      <text x="870" y="187" font-size="11" fill="#d97706" font-weight="700">id PK</text><line x1="864" y1="196" x2="1216" y2="196" stroke="#1a7a6e30" stroke-width="0.7"/>
      <text x="870" y="213" font-size="11" fill="#0284c7" font-weight="700">department_id FK</text><line x1="864" y1="222" x2="1216" y2="222" stroke="#1a7a6e30" stroke-width="0.7"/>
      <text x="870" y="239" font-size="11" fill="#0284c7" font-weight="700">faculty_id FK (opt)</text><line x1="864" y1="248" x2="1216" y2="248" stroke="#1a7a6e30" stroke-width="0.7"/>
      <text x="870" y="265" font-size="11" fill="#374151" font-weight="400">code (UNIQUE)</text><line x1="864" y1="274" x2="1216" y2="274" stroke="#1a7a6e30" stroke-width="0.7"/>
      <text x="870" y="291" font-size="11" fill="#374151" font-weight="400">name</text><line x1="864" y1="300" x2="1216" y2="300" stroke="#1a7a6e30" stroke-width="0.7"/>
      <text x="870" y="317" font-size="11" fill="#374151" font-weight="400">semester</text><line x1="864" y1="326" x2="1216" y2="326" stroke="#1a7a6e30" stroke-width="0.7"/>
      <text x="870" y="343" font-size="11" fill="#374151" font-weight="400">academic_year</text><line x1="864" y1="352" x2="1216" y2="352" stroke="#1a7a6e30" stroke-width="0.7"/>
      <text x="870" y="369" font-size="11" fill="#374151" font-weight="400">credits</text><rect x="60" y="560" width="360" height="266" rx="4" fill="#92400e15" stroke="#92400e" stroke-width="2"/>
    <rect x="60" y="560" width="360" height="32" rx="4" fill="#92400e"/>
    <text x="240" y="581" text-anchor="middle" font-size="13" font-weight="800" fill="white">feedback</text>
    
      <text x="70" y="609" font-size="11" fill="#d97706" font-weight="700">id PK</text><line x1="64" y1="618" x2="416" y2="618" stroke="#92400e30" stroke-width="0.7"/>
      <text x="70" y="635" font-size="11" fill="#374151" font-weight="400">reference_id (UNQ)</text><line x1="64" y1="644" x2="416" y2="644" stroke="#92400e30" stroke-width="0.7"/>
      <text x="70" y="661" font-size="11" fill="#0284c7" font-weight="700">course_id FK</text><line x1="64" y1="670" x2="416" y2="670" stroke="#92400e30" stroke-width="0.7"/>
      <text x="70" y="687" font-size="11" fill="#0284c7" font-weight="700">faculty_id FK (opt)</text><line x1="64" y1="696" x2="416" y2="696" stroke="#92400e30" stroke-width="0.7"/>
      <text x="70" y="713" font-size="11" fill="#0284c7" font-weight="700">department_id FK</text><line x1="64" y1="722" x2="416" y2="722" stroke="#92400e30" stroke-width="0.7"/>
      <text x="70" y="739" font-size="11" fill="#374151" font-weight="400">semester</text><line x1="64" y1="748" x2="416" y2="748" stroke="#92400e30" stroke-width="0.7"/>
      <text x="70" y="765" font-size="11" fill="#374151" font-weight="400">5 x rating (real)</text><line x1="64" y1="774" x2="416" y2="774" stroke="#92400e30" stroke-width="0.7"/>
      <text x="70" y="791" font-size="11" fill="#374151" font-weight="400">comments (text)</text><line x1="64" y1="800" x2="416" y2="800" stroke="#92400e30" stroke-width="0.7"/>
      <text x="70" y="817" font-size="11" fill="#374151" font-weight="400">custom_answers (JSONB)</text><rect x="460" y="560" width="360" height="162" rx="4" fill="#6b21a815" stroke="#6b21a8" stroke-width="2"/>
    <rect x="460" y="560" width="360" height="32" rx="4" fill="#6b21a8"/>
    <text x="640" y="581" text-anchor="middle" font-size="13" font-weight="800" fill="white">form_templates</text>
    
      <text x="470" y="609" font-size="11" fill="#d97706" font-weight="700">id PK</text><line x1="464" y1="618" x2="816" y2="618" stroke="#6b21a830" stroke-width="0.7"/>
      <text x="470" y="635" font-size="11" fill="#0284c7" font-weight="700">department_id FK UNQ</text><line x1="464" y1="644" x2="816" y2="644" stroke="#6b21a830" stroke-width="0.7"/>
      <text x="470" y="661" font-size="11" fill="#374151" font-weight="400">fields (JSONB)</text><line x1="464" y1="670" x2="816" y2="670" stroke="#6b21a830" stroke-width="0.7"/>
      <text x="470" y="687" font-size="11" fill="#374151" font-weight="400">created_at</text><line x1="464" y1="696" x2="816" y2="696" stroke="#6b21a830" stroke-width="0.7"/>
      <text x="470" y="713" font-size="11" fill="#374151" font-weight="400">updated_at</text><rect x="860" y="560" width="360" height="188" rx="4" fill="#6b21a815" stroke="#6b21a8" stroke-width="2"/>
    <rect x="860" y="560" width="360" height="32" rx="4" fill="#6b21a8"/>
    <text x="1040" y="581" text-anchor="middle" font-size="13" font-weight="800" fill="white">feedback_windows</text>
    
      <text x="870" y="609" font-size="11" fill="#d97706" font-weight="700">id PK</text><line x1="864" y1="618" x2="1216" y2="618" stroke="#6b21a830" stroke-width="0.7"/>
      <text x="870" y="635" font-size="11" fill="#0284c7" font-weight="700">department_id FK (opt)</text><line x1="864" y1="644" x2="1216" y2="644" stroke="#6b21a830" stroke-width="0.7"/>
      <text x="870" y="661" font-size="11" fill="#374151" font-weight="400">title</text><line x1="864" y1="670" x2="1216" y2="670" stroke="#6b21a830" stroke-width="0.7"/>
      <text x="870" y="687" font-size="11" fill="#374151" font-weight="400">is_active (bool)</text><line x1="864" y1="696" x2="1216" y2="696" stroke="#6b21a830" stroke-width="0.7"/>
      <text x="870" y="713" font-size="11" fill="#374151" font-weight="400">start_date</text><line x1="864" y1="722" x2="1216" y2="722" stroke="#6b21a830" stroke-width="0.7"/>
      <text x="870" y="739" font-size="11" fill="#374151" font-weight="400">end_date</text>

  <!-- ER Relationships -->
  <!-- dept -> faculty 1:N -->
  <line x1="420" y1="192" x2="460" y2="192" stroke="#374151" stroke-width="1.5" stroke-dasharray="none"/>
  <text x="430" y="186" font-size="10" fill="#6b7280">1:N</text>
  <!-- dept -> courses 1:N -->
  <line x1="420" y1="210" x2="860" y2="210" stroke="#374151" stroke-width="1.5"/>
  <text x="630" y="206" font-size="10" fill="#6b7280">1:N</text>
  <!-- dept -> feedback -->
  <line x1="240" y1="330" x2="240" y2="560" stroke="#374151" stroke-width="1.5"/>
  <text x="244" y="450" font-size="10" fill="#6b7280">1:N</text>
  <!-- courses -> feedback -->
  <line x1="1040" y1="330" x2="1040" y2="470" stroke="#374151" stroke-width="1.5"/>
  <line x1="1040" y1="470" x2="280" y2="470" stroke="#374151" stroke-width="1.5"/>
  <line x1="280" y1="470" x2="280" y2="560" stroke="#374151" stroke-width="1.5"/>
  <text x="660" y="466" font-size="10" fill="#6b7280">1:N</text>
  <!-- dept -> form_templates 1:1 -->
  <line x1="640" y1="330" x2="640" y2="560" stroke="#374151" stroke-width="1.5"/>
  <text x="644" y="450" font-size="10" fill="#6b7280">1:1</text>
  <!-- faculty -> courses 0..1:N -->
  <line x1="680" y1="220" x2="860" y2="220" stroke="#374151" stroke-width="1.5" stroke-dasharray="5,3"/>
  <text x="760" y="215" font-size="10" fill="#6b7280">0..1:N</text>

  <rect x="60" y="948" width="1120" height="30" rx="4" fill="#0f346015" stroke="#0f346040" stroke-width="1"/>
  <text x="72" y="968" font-size="13" font-weight="800" fill="#0f3460">4.5  Data Flow Diagram -- Level 2 (Process 2.0: Feedback Collection)</text>
  <text x="80" y="990" font-size="12" fill="#374151" font-weight="normal">Process 2.0 is decomposed into 6 sub-processes: Input Validation (2.1), Window Check (2.2), Profanity</text>
<text x="80" y="1011" font-size="12" fill="#374151" font-weight="normal">Filter (2.3), Course-Faculty Integrity Check (2.4), Reference ID Generation (2.5), and Database Storage</text>
<text x="80" y="1032" font-size="12" fill="#374151" font-weight="normal">(2.6).</text>

  <!-- Level 2 DFD: linear flow -->
  <ellipse cx="132" cy="1080" rx="72" ry="44" fill="#1e3a8a20" stroke="#1e3a8a" stroke-width="2"/>
    <text x="132" y="1084" text-anchor="middle" font-size="11" font-weight="700" fill="#1e3a8a">2.1</text>
    <text x="132" y="1100" text-anchor="middle" font-size="10" fill="#1e3a8a">Validate</text><text x="132" y="1116" text-anchor="middle" font-size="10" fill="#1e3a8a">Inputs</text>
    <line x1="204" y1="1080" x2="216" y2="1080" stroke="#374151" stroke-width="2" marker-end="url(#a2)"/><ellipse cx="324" cy="1080" rx="72" ry="44" fill="#d9770620" stroke="#d97706" stroke-width="2"/>
    <text x="324" y="1084" text-anchor="middle" font-size="11" font-weight="700" fill="#d97706">2.2</text>
    <text x="324" y="1100" text-anchor="middle" font-size="10" fill="#d97706">Check</text><text x="324" y="1116" text-anchor="middle" font-size="10" fill="#d97706">Window</text>
    <line x1="396" y1="1080" x2="408" y2="1080" stroke="#374151" stroke-width="2" marker-end="url(#a2)"/><ellipse cx="516" cy="1080" rx="72" ry="44" fill="#0284c720" stroke="#0284c7" stroke-width="2"/>
    <text x="516" y="1084" text-anchor="middle" font-size="11" font-weight="700" fill="#0284c7">2.3</text>
    <text x="516" y="1100" text-anchor="middle" font-size="10" fill="#0284c7">Profanity</text><text x="516" y="1116" text-anchor="middle" font-size="10" fill="#0284c7">Filter</text>
    <line x1="588" y1="1080" x2="600" y2="1080" stroke="#374151" stroke-width="2" marker-end="url(#a2)"/><ellipse cx="708" cy="1080" rx="72" ry="44" fill="#14532d20" stroke="#14532d" stroke-width="2"/>
    <text x="708" y="1084" text-anchor="middle" font-size="11" font-weight="700" fill="#14532d">2.4</text>
    <text x="708" y="1100" text-anchor="middle" font-size="10" fill="#14532d">Course-Faculty</text><text x="708" y="1116" text-anchor="middle" font-size="10" fill="#14532d">Integrity</text>
    <line x1="780" y1="1080" x2="792" y2="1080" stroke="#374151" stroke-width="2" marker-end="url(#a2)"/><ellipse cx="900" cy="1080" rx="72" ry="44" fill="#7c3aed20" stroke="#7c3aed" stroke-width="2"/>
    <text x="900" y="1084" text-anchor="middle" font-size="11" font-weight="700" fill="#7c3aed">2.5</text>
    <text x="900" y="1100" text-anchor="middle" font-size="10" fill="#7c3aed">Generate</text><text x="900" y="1116" text-anchor="middle" font-size="10" fill="#7c3aed">Ref. ID</text>
    <line x1="972" y1="1080" x2="984" y2="1080" stroke="#374151" stroke-width="2" marker-end="url(#a2)"/><ellipse cx="1092" cy="1080" rx="72" ry="44" fill="#7c2d1220" stroke="#7c2d12" stroke-width="2"/>
    <text x="1092" y="1084" text-anchor="middle" font-size="11" font-weight="700" fill="#7c2d12">2.6</text>
    <text x="1092" y="1100" text-anchor="middle" font-size="10" fill="#7c2d12">Store</text><text x="1092" y="1116" text-anchor="middle" font-size="10" fill="#7c2d12">Feedback</text>
    

  <!-- Input and output arrows -->
  <text x="96" y="1014" text-anchor="middle" font-size="10" fill="#6b7280">Student Form Data</text>
  <line x1="96" y1="1016" x2="96" y2="1036" stroke="#6b7280" stroke-width="1.5" marker-end="url(#a2)"/>
  <text x="1108" y="1014" text-anchor="middle" font-size="10" fill="#6b7280">Reference ID</text>
  <line x1="1108" y1="1016" x2="1108" y2="1036" stroke="#6b7280" stroke-width="1.5" marker-end="url(#a2)"/>

  <!-- Data stores -->
  <rect x="60"  y="1148" width="180" height="30" rx="0" fill="#fef3c7" stroke="#d97706" stroke-width="1.5"/>
  <text x="150" y="1168" text-anchor="middle" font-size="11" fill="#92400e">D6: Feedback Windows</text>
  <line x1="250" y1="1148" x2="310" y2="1124" stroke="#6b7280" stroke-width="1" stroke-dasharray="4,3"/>

  <rect x="440" y="1148" width="180" height="30" rx="0" fill="#eff6ff" stroke="#3b82f6" stroke-width="1.5"/>
  <text x="530" y="1168" text-anchor="middle" font-size="11" fill="#1e3a8a">D2: Courses</text>
  <rect x="640" y="1148" width="180" height="30" rx="0" fill="#eff6ff" stroke="#3b82f6" stroke-width="1.5"/>
  <text x="730" y="1168" text-anchor="middle" font-size="11" fill="#1e3a8a">D3: Faculty</text>
  <line x1="590" y1="1148" x2="700" y2="1124" stroke="#6b7280" stroke-width="1" stroke-dasharray="4,3"/>
  <line x1="690" y1="1148" x2="750" y2="1124" stroke="#6b7280" stroke-width="1" stroke-dasharray="4,3"/>

  <rect x="980" y="1148" width="180" height="30" rx="0" fill="#fdf4ff" stroke="#7c3aed" stroke-width="1.5"/>
  <text x="1070" y="1168" text-anchor="middle" font-size="11" fill="#6b21a8">D1: Feedback</text>
  <line x1="1070" y1="1148" x2="1100" y2="1124" stroke="#6b7280" stroke-width="1" stroke-dasharray="4,3"/>

  <defs><marker id="a2" markerWidth="10" markerHeight="8" refX="10" refY="4" orient="auto"><polygon points="0 0,10 4,0 8" fill="#374151"/></marker></defs>

  <rect x="60" y="1208" width="1120" height="30" rx="4" fill="#0f346015" stroke="#0f346040" stroke-width="1"/>
  <text x="72" y="1228" font-size="13" font-weight="800" fill="#0f3460">4.6  Use Case Summary</text>
  <rect x="60" y="1248" width="1120" height="34" fill="#0f3460"/><text x="70" y="1270" font-size="13" fill="#ffffff" font-weight="700">Actor</text><line x1="260" y1="1248" x2="260" y2="1282" stroke="#d1d5db" stroke-width="0.8"/><text x="270" y="1270" font-size="13" fill="#ffffff" font-weight="700">Primary Use Cases</text><line x1="60" y1="1282" x2="1180" y2="1282" stroke="#d1d5db" stroke-width="0.8"/>
  <rect x="60" y="1282" width="1120" height="34" fill="#f9fafb"/><text x="70" y="1304" font-size="11" fill="#374151" font-weight="400">Student</text><line x1="260" y1="1282" x2="260" y2="1316" stroke="#d1d5db" stroke-width="0.8"/><text x="270" y="1304" font-size="11" fill="#374151" font-weight="400">Login, Select Course, Submit Feedback (drag rating + comments + custom Q), View Reference ID, Verify Submission</text><line x1="60" y1="1316" x2="1180" y2="1316" stroke="#d1d5db" stroke-width="0.8"/><rect x="60" y="1326" width="1120" height="34" fill="white"/><text x="70" y="1348" font-size="11" fill="#374151" font-weight="400">Faculty</text><line x1="260" y1="1326" x2="260" y2="1360" stroke="#d1d5db" stroke-width="0.8"/><text x="270" y="1348" font-size="11" fill="#374151" font-weight="400">Login, View Assigned Courses, View Category Ratings, Read Anonymous Comments, Compare Semesters</text><line x1="60" y1="1360" x2="1180" y2="1360" stroke="#d1d5db" stroke-width="0.8"/><rect x="60" y="1370" width="1120" height="34" fill="#f9fafb"/><text x="70" y="1392" font-size="11" fill="#374151" font-weight="400">HOD</text><line x1="260" y1="1370" x2="260" y2="1404" stroke="#d1d5db" stroke-width="0.8"/><text x="270" y="1392" font-size="11" fill="#374151" font-weight="400">Login, View Dept Dashboard, Sort Courses, Download PDF Report, Add Custom Questions, View Window Status</text><line x1="60" y1="1404" x2="1180" y2="1404" stroke="#d1d5db" stroke-width="0.8"/><rect x="60" y="1414" width="1120" height="34" fill="white"/><text x="70" y="1436" font-size="11" fill="#374151" font-weight="400">Admin</text><line x1="260" y1="1414" x2="260" y2="1448" stroke="#d1d5db" stroke-width="0.8"/><text x="270" y="1436" font-size="11" fill="#374151" font-weight="400">Login, View Institution Dashboard, Add/Edit Courses, Assign Faculty, Create Feedback Window, Toggle Window</text><line x1="60" y1="1448" x2="1180" y2="1448" stroke="#d1d5db" stroke-width="0.8"/>
  <rect x="60" y="1248" width="1120" height="220" fill="none" stroke="#d1d5db" stroke-width="1"/>

  <rect x="0" y="1706" width="1240" height="48" fill="#0f3460"/>
  <line x1="0" y1="1706" x2="1240" y2="1706" stroke="#e94560" stroke-width="3"/>
  <text x="60" y="1736" font-size="11" fill="#94a3b8">CUPGS Academic Feedback Manager  |  Software Engineering Project Report</text>
  <text x="1180" y="1736" text-anchor="end" font-size="11" fill="#94a3b8">Page 8 of 16</text>
</svg>