<?xml version="1.0" encoding="UTF-8"?>
<svg xmlns="http://www.w3.org/2000/svg" width="1240" height="1754" viewBox="0 0 1240 1754" font-family="Times New Roman,Georgia,serif">
  <rect width="1240" height="1754" fill="white"/>
  <rect x="0" y="0" width="1240" height="10" fill="#0f3460"/>
  <rect x="0" y="10" width="1240" height="4" fill="#e94560"/>
  <rect x="0" y="14" width="1240" height="56" fill="#0f3460"/>
  <rect x="0" y="70" width="1240" height="4" fill="#e94560"/>
  <text x="60" y="50" font-size="22" font-weight="800" fill="#ffffff">Chapter 5: Implementation</text>

  <rect x="60" y="88" width="1120" height="30" rx="4" fill="#0f346015" stroke="#0f346040" stroke-width="1"/>
  <text x="72" y="108" font-size="13" font-weight="800" fill="#0f3460">5.1  Technology Stack</text>
  <rect x="60" y="126" width="1120" height="34" fill="#0f3460"/><text x="70" y="148" font-size="13" fill="#ffffff" font-weight="700">Category</text><line x1="220" y1="126" x2="220" y2="160" stroke="#d1d5db" stroke-width="0.8"/><text x="230" y="148" font-size="13" fill="#ffffff" font-weight="700">Technology</text><line x1="420" y1="126" x2="420" y2="160" stroke="#d1d5db" stroke-width="0.8"/><text x="430" y="148" font-size="13" fill="#ffffff" font-weight="700">Version</text><line x1="540" y1="126" x2="540" y2="160" stroke="#d1d5db" stroke-width="0.8"/><text x="550" y="148" font-size="13" fill="#ffffff" font-weight="700">Purpose</text><line x1="60" y1="160" x2="1180" y2="160" stroke="#d1d5db" stroke-width="0.8"/>
  <rect x="60" y="160" width="1120" height="34" fill="#f9fafb"/><text x="70" y="182" font-size="11" fill="#374151" font-weight="400">Frontend</text><line x1="220" y1="160" x2="220" y2="194" stroke="#d1d5db" stroke-width="0.8"/><text x="230" y="182" font-size="11" fill="#374151" font-weight="400">React</text><line x1="420" y1="160" x2="420" y2="194" stroke="#d1d5db" stroke-width="0.8"/><text x="430" y="182" font-size="11" fill="#374151" font-weight="400">18.x</text><line x1="540" y1="160" x2="540" y2="194" stroke="#d1d5db" stroke-width="0.8"/><text x="550" y="182" font-size="11" fill="#374151" font-weight="400">Component-based UI library with hooks</text><line x1="60" y1="194" x2="1180" y2="194" stroke="#d1d5db" stroke-width="0.8"/><rect x="60" y="190" width="1120" height="34" fill="white"/><text x="70" y="212" font-size="11" fill="#374151" font-weight="400">Frontend</text><line x1="220" y1="190" x2="220" y2="224" stroke="#d1d5db" stroke-width="0.8"/><text x="230" y="212" font-size="11" fill="#374151" font-weight="400">TypeScript</text><line x1="420" y1="190" x2="420" y2="224" stroke="#d1d5db" stroke-width="0.8"/><text x="430" y="212" font-size="11" fill="#374151" font-weight="400">5.x</text><line x1="540" y1="190" x2="540" y2="224" stroke="#d1d5db" stroke-width="0.8"/><text x="550" y="212" font-size="11" fill="#374151" font-weight="400">Static typing for frontend and backend</text><line x1="60" y1="224" x2="1180" y2="224" stroke="#d1d5db" stroke-width="0.8"/><rect x="60" y="220" width="1120" height="34" fill="#f9fafb"/><text x="70" y="242" font-size="11" fill="#374151" font-weight="400">Frontend</text><line x1="220" y1="220" x2="220" y2="254" stroke="#d1d5db" stroke-width="0.8"/><text x="230" y="242" font-size="11" fill="#374151" font-weight="400">Vite</text><line x1="420" y1="220" x2="420" y2="254" stroke="#d1d5db" stroke-width="0.8"/><text x="430" y="242" font-size="11" fill="#374151" font-weight="400">5.x</text><line x1="540" y1="220" x2="540" y2="254" stroke="#d1d5db" stroke-width="0.8"/><text x="550" y="242" font-size="11" fill="#374151" font-weight="400">Build tool with HMR and optimized bundles</text><line x1="60" y1="254" x2="1180" y2="254" stroke="#d1d5db" stroke-width="0.8"/><rect x="60" y="250" width="1120" height="34" fill="white"/><text x="70" y="272" font-size="11" fill="#374151" font-weight="400">Frontend</text><line x1="220" y1="250" x2="220" y2="284" stroke="#d1d5db" stroke-width="0.8"/><text x="230" y="272" font-size="11" fill="#374151" font-weight="400">Tailwind CSS</text><line x1="420" y1="250" x2="420" y2="284" stroke="#d1d5db" stroke-width="0.8"/><text x="430" y="272" font-size="11" fill="#374151" font-weight="400">3.x</text><line x1="540" y1="250" x2="540" y2="284" stroke="#d1d5db" stroke-width="0.8"/><text x="550" y="272" font-size="11" fill="#374151" font-weight="400">Utility-first responsive styling</text><line x1="60" y1="284" x2="1180" y2="284" stroke="#d1d5db" stroke-width="0.8"/><rect x="60" y="280" width="1120" height="34" fill="#f9fafb"/><text x="70" y="302" font-size="11" fill="#374151" font-weight="400">Frontend</text><line x1="220" y1="280" x2="220" y2="314" stroke="#d1d5db" stroke-width="0.8"/><text x="230" y="302" font-size="11" fill="#374151" font-weight="400">shadcn/ui</text><line x1="420" y1="280" x2="420" y2="314" stroke="#d1d5db" stroke-width="0.8"/><text x="430" y="302" font-size="11" fill="#374151" font-weight="400">Latest</text><line x1="540" y1="280" x2="540" y2="314" stroke="#d1d5db" stroke-width="0.8"/><text x="550" y="302" font-size="11" fill="#374151" font-weight="400">Accessible pre-built UI components</text><line x1="60" y1="314" x2="1180" y2="314" stroke="#d1d5db" stroke-width="0.8"/><rect x="60" y="310" width="1120" height="34" fill="white"/><text x="70" y="332" font-size="11" fill="#374151" font-weight="400">Frontend</text><line x1="220" y1="310" x2="220" y2="344" stroke="#d1d5db" stroke-width="0.8"/><text x="230" y="332" font-size="11" fill="#374151" font-weight="400">React Query</text><line x1="420" y1="310" x2="420" y2="344" stroke="#d1d5db" stroke-width="0.8"/><text x="430" y="332" font-size="11" fill="#374151" font-weight="400">5.x</text><line x1="540" y1="310" x2="540" y2="344" stroke="#d1d5db" stroke-width="0.8"/><text x="550" y="332" font-size="11" fill="#374151" font-weight="400">Server state, caching, background sync</text><line x1="60" y1="344" x2="1180" y2="344" stroke="#d1d5db" stroke-width="0.8"/><rect x="60" y="340" width="1120" height="34" fill="#f9fafb"/><text x="70" y="362" font-size="11" fill="#374151" font-weight="400">Frontend</text><line x1="220" y1="340" x2="220" y2="374" stroke="#d1d5db" stroke-width="0.8"/><text x="230" y="362" font-size="11" fill="#374151" font-weight="400">React Hook Form</text><line x1="420" y1="340" x2="420" y2="374" stroke="#d1d5db" stroke-width="0.8"/><text x="430" y="362" font-size="11" fill="#374151" font-weight="400">7.x</text><line x1="540" y1="340" x2="540" y2="374" stroke="#d1d5db" stroke-width="0.8"/><text x="550" y="362" font-size="11" fill="#374151" font-weight="400">Form state management and validation</text><line x1="60" y1="374" x2="1180" y2="374" stroke="#d1d5db" stroke-width="0.8"/><rect x="60" y="370" width="1120" height="34" fill="white"/><text x="70" y="392" font-size="11" fill="#374151" font-weight="400">Frontend</text><line x1="220" y1="370" x2="220" y2="404" stroke="#d1d5db" stroke-width="0.8"/><text x="230" y="392" font-size="11" fill="#374151" font-weight="400">jsPDF</text><line x1="420" y1="370" x2="420" y2="404" stroke="#d1d5db" stroke-width="0.8"/><text x="430" y="392" font-size="11" fill="#374151" font-weight="400">2.x</text><line x1="540" y1="370" x2="540" y2="404" stroke="#d1d5db" stroke-width="0.8"/><text x="550" y="392" font-size="11" fill="#374151" font-weight="400">Client-side PDF report generation</text><line x1="60" y1="404" x2="1180" y2="404" stroke="#d1d5db" stroke-width="0.8"/><rect x="60" y="400" width="1120" height="34" fill="#f9fafb"/><text x="70" y="422" font-size="11" fill="#374151" font-weight="400">Backend</text><line x1="220" y1="400" x2="220" y2="434" stroke="#d1d5db" stroke-width="0.8"/><text x="230" y="422" font-size="11" fill="#374151" font-weight="400">Node.js</text><line x1="420" y1="400" x2="420" y2="434" stroke="#d1d5db" stroke-width="0.8"/><text x="430" y="422" font-size="11" fill="#374151" font-weight="400">18+</text><line x1="540" y1="400" x2="540" y2="434" stroke="#d1d5db" stroke-width="0.8"/><text x="550" y="422" font-size="11" fill="#374151" font-weight="400">JavaScript runtime for server</text><line x1="60" y1="434" x2="1180" y2="434" stroke="#d1d5db" stroke-width="0.8"/><rect x="60" y="430" width="1120" height="34" fill="white"/><text x="70" y="452" font-size="11" fill="#374151" font-weight="400">Backend</text><line x1="220" y1="430" x2="220" y2="464" stroke="#d1d5db" stroke-width="0.8"/><text x="230" y="452" font-size="11" fill="#374151" font-weight="400">Express.js</text><line x1="420" y1="430" x2="420" y2="464" stroke="#d1d5db" stroke-width="0.8"/><text x="430" y="452" font-size="11" fill="#374151" font-weight="400">4.x</text><line x1="540" y1="430" x2="540" y2="464" stroke="#d1d5db" stroke-width="0.8"/><text x="550" y="452" font-size="11" fill="#374151" font-weight="400">HTTP server, routing, and middleware</text><line x1="60" y1="464" x2="1180" y2="464" stroke="#d1d5db" stroke-width="0.8"/><rect x="60" y="460" width="1120" height="34" fill="#f9fafb"/><text x="70" y="482" font-size="11" fill="#374151" font-weight="400">Backend</text><line x1="220" y1="460" x2="220" y2="494" stroke="#d1d5db" stroke-width="0.8"/><text x="230" y="482" font-size="11" fill="#374151" font-weight="400">express-session</text><line x1="420" y1="460" x2="420" y2="494" stroke="#d1d5db" stroke-width="0.8"/><text x="430" y="482" font-size="11" fill="#374151" font-weight="400">1.x</text><line x1="540" y1="460" x2="540" y2="494" stroke="#d1d5db" stroke-width="0.8"/><text x="550" y="482" font-size="11" fill="#374151" font-weight="400">Server-side session management</text><line x1="60" y1="494" x2="1180" y2="494" stroke="#d1d5db" stroke-width="0.8"/><rect x="60" y="490" width="1120" height="34" fill="white"/><text x="70" y="512" font-size="11" fill="#374151" font-weight="400">Backend</text><line x1="220" y1="490" x2="220" y2="524" stroke="#d1d5db" stroke-width="0.8"/><text x="230" y="512" font-size="11" fill="#374151" font-weight="400">express-rate-limit</text><line x1="420" y1="490" x2="420" y2="524" stroke="#d1d5db" stroke-width="0.8"/><text x="430" y="512" font-size="11" fill="#374151" font-weight="400">7.x</text><line x1="540" y1="490" x2="540" y2="524" stroke="#d1d5db" stroke-width="0.8"/><text x="550" y="512" font-size="11" fill="#374151" font-weight="400">API rate limiting (3 layers)</text><line x1="60" y1="524" x2="1180" y2="524" stroke="#d1d5db" stroke-width="0.8"/><rect x="60" y="520" width="1120" height="34" fill="#f9fafb"/><text x="70" y="542" font-size="11" fill="#374151" font-weight="400">Backend</text><line x1="220" y1="520" x2="220" y2="554" stroke="#d1d5db" stroke-width="0.8"/><text x="230" y="542" font-size="11" fill="#374151" font-weight="400">Zod</text><line x1="420" y1="520" x2="420" y2="554" stroke="#d1d5db" stroke-width="0.8"/><text x="430" y="542" font-size="11" fill="#374151" font-weight="400">3.x</text><line x1="540" y1="520" x2="540" y2="554" stroke="#d1d5db" stroke-width="0.8"/><text x="550" y="542" font-size="11" fill="#374151" font-weight="400">Runtime schema validation</text><line x1="60" y1="554" x2="1180" y2="554" stroke="#d1d5db" stroke-width="0.8"/><rect x="60" y="550" width="1120" height="34" fill="white"/><text x="70" y="572" font-size="11" fill="#374151" font-weight="400">Backend</text><line x1="220" y1="550" x2="220" y2="584" stroke="#d1d5db" stroke-width="0.8"/><text x="230" y="572" font-size="11" fill="#374151" font-weight="400">Pino</text><line x1="420" y1="550" x2="420" y2="584" stroke="#d1d5db" stroke-width="0.8"/><text x="430" y="572" font-size="11" fill="#374151" font-weight="400">8.x</text><line x1="540" y1="550" x2="540" y2="584" stroke="#d1d5db" stroke-width="0.8"/><text x="550" y="572" font-size="11" fill="#374151" font-weight="400">High-performance structured logging</text><line x1="60" y1="584" x2="1180" y2="584" stroke="#d1d5db" stroke-width="0.8"/><rect x="60" y="580" width="1120" height="34" fill="#f9fafb"/><text x="70" y="602" font-size="11" fill="#374151" font-weight="400">Database</text><line x1="220" y1="580" x2="220" y2="614" stroke="#d1d5db" stroke-width="0.8"/><text x="230" y="602" font-size="11" fill="#374151" font-weight="400">PostgreSQL</text><line x1="420" y1="580" x2="420" y2="614" stroke="#d1d5db" stroke-width="0.8"/><text x="430" y="602" font-size="11" fill="#374151" font-weight="400">15+</text><line x1="540" y1="580" x2="540" y2="614" stroke="#d1d5db" stroke-width="0.8"/><text x="550" y="602" font-size="11" fill="#374151" font-weight="400">Production relational database</text><line x1="60" y1="614" x2="1180" y2="614" stroke="#d1d5db" stroke-width="0.8"/><rect x="60" y="610" width="1120" height="34" fill="white"/><text x="70" y="632" font-size="11" fill="#374151" font-weight="400">Database</text><line x1="220" y1="610" x2="220" y2="644" stroke="#d1d5db" stroke-width="0.8"/><text x="230" y="632" font-size="11" fill="#374151" font-weight="400">Drizzle ORM</text><line x1="420" y1="610" x2="420" y2="644" stroke="#d1d5db" stroke-width="0.8"/><text x="430" y="632" font-size="11" fill="#374151" font-weight="400">0.29+</text><line x1="540" y1="610" x2="540" y2="644" stroke="#d1d5db" stroke-width="0.8"/><text x="550" y="632" font-size="11" fill="#374151" font-weight="400">Type-safe schema and query builder</text><line x1="60" y1="644" x2="1180" y2="644" stroke="#d1d5db" stroke-width="0.8"/><rect x="60" y="640" width="1120" height="34" fill="#f9fafb"/><text x="70" y="662" font-size="11" fill="#374151" font-weight="400">Infra</text><line x1="220" y1="640" x2="220" y2="674" stroke="#d1d5db" stroke-width="0.8"/><text x="230" y="662" font-size="11" fill="#374151" font-weight="400">pnpm workspaces</text><line x1="420" y1="640" x2="420" y2="674" stroke="#d1d5db" stroke-width="0.8"/><text x="430" y="662" font-size="11" fill="#374151" font-weight="400">8.x</text><line x1="540" y1="640" x2="540" y2="674" stroke="#d1d5db" stroke-width="0.8"/><text x="550" y="662" font-size="11" fill="#374151" font-weight="400">Monorepo package management</text><line x1="60" y1="674" x2="1180" y2="674" stroke="#d1d5db" stroke-width="0.8"/>
  <rect x="60" y="126" width="1120" height="540" fill="none" stroke="#d1d5db" stroke-width="1"/>

  <rect x="60" y="710" width="1120" height="30" rx="4" fill="#0f346015" stroke="#0f346040" stroke-width="1"/>
  <text x="72" y="730" font-size="13" font-weight="800" fill="#0f3460">5.2  Project Structure (Monorepo)</text>
  <rect x="60" y="750" width="1120" height="320" rx="4" fill="#0f172a"/>
  <text x="80" y="780" font-size="12" fill="#94a3b8">workspace/</text>
  <text x="90" y="800" font-size="11" fill="#60a5fa" font-family="Courier New,monospace">  artifacts/</text><text x="90" y="820" font-size="11" fill="#34d399" font-family="Courier New,monospace">    api-server/</text><text x="90" y="840" font-size="11" fill="#94a3b8" font-family="Courier New,monospace">      src/</text><text x="90" y="860" font-size="11" fill="#e2e8f0" font-family="Courier New,monospace">        app.ts</text><text x="90" y="880" font-size="11" fill="#94a3b8" font-family="Courier New,monospace">        routes/</text><text x="90" y="900" font-size="11" fill="#94a3b8" font-family="Courier New,monospace">        db/</text><text x="90" y="920" font-size="11" fill="#34d399" font-family="Courier New,monospace">    bput-feedback/</text><text x="90" y="940" font-size="11" fill="#94a3b8" font-family="Courier New,monospace">      src/</text><text x="90" y="960" font-size="11" fill="#e2e8f0" font-family="Courier New,monospace">        pages/</text><text x="90" y="980" font-size="11" fill="#e2e8f0" font-family="Courier New,monospace">        components/</text><text x="90" y="1000" font-size="11" fill="#94a3b8" font-family="Courier New,monospace">        lib/</text><text x="90" y="1020" font-size="11" fill="#60a5fa" font-family="Courier New,monospace">  scripts/</text><text x="90" y="1040" font-size="11" fill="#fbbf24" font-family="Courier New,monospace">  pnpm-workspace.yaml</text><text x="90" y="1060" font-size="11" fill="#fbbf24" font-family="Courier New,monospace">  package.json</text>

  <rect x="60" y="1090" width="1120" height="30" rx="4" fill="#0f346015" stroke="#0f346040" stroke-width="1"/>
  <text x="72" y="1110" font-size="13" font-weight="800" fill="#0f3460">5.3  Database Schema Implementation</text>
  <text x="80" y="1132" font-size="12" fill="#374151" font-weight="normal">The database consists of 6 tables implemented using Drizzle ORM schema definitions. Key design</text>
<text x="80" y="1153" font-size="12" fill="#374151" font-weight="normal">decisions:</text>
  <circle cx="86" cy="1155" r="4" fill="#0f3460"/><text x="98" y="1158" font-size="12" fill="#374151">rating columns use PostgreSQL real type (not integer) to support 0.5-step precision (e.g., 3.5,</text><text x="98" y="1178" font-size="12" fill="#374151">4.5).</text><circle cx="86" cy="1201" r="4" fill="#0f3460"/><text x="98" y="1204" font-size="12" fill="#374151">feedback.custom_answers uses JSONB to store arbitrary question-answer pairs from HOD's form</text><text x="98" y="1224" font-size="12" fill="#374151">builder.</text><circle cx="86" cy="1247" r="4" fill="#0f3460"/><text x="98" y="1250" font-size="12" fill="#374151">form_templates.fields uses JSONB to store the HOD-configured custom question list per department.</text><circle cx="86" cy="1273" r="4" fill="#0f3460"/><text x="98" y="1276" font-size="12" fill="#374151">feedback_windows.department_id is nullable — NULL means a global window applied to all</text><text x="98" y="1296" font-size="12" fill="#374151">departments.</text><circle cx="86" cy="1319" r="4" fill="#0f3460"/><text x="98" y="1322" font-size="12" fill="#374151">All FK relationships enforce referential integrity at the database level via Drizzle FK</text><text x="98" y="1342" font-size="12" fill="#374151">constraints.</text><circle cx="86" cy="1365" r="4" fill="#0f3460"/><text x="98" y="1368" font-size="12" fill="#374151">faculty_id is nullable in both courses and feedback tables to support 'Faculty TBA' assignments.</text>

  <rect x="60" y="1394" width="1120" height="30" rx="4" fill="#0f346015" stroke="#0f346040" stroke-width="1"/>
  <text x="72" y="1414" font-size="13" font-weight="800" fill="#0f3460">5.4  API Design and Routing</text>
  <text x="80" y="1436" font-size="12" fill="#374151" font-weight="normal">The backend follows RESTful API design principles. All routes are prefixed with /api/. Input validation</text>
<text x="80" y="1456" font-size="12" fill="#374151" font-weight="normal">uses Zod schemas at the route handler level before any business logic executes.</text>
  <rect x="60" y="1468" width="1120" height="34" fill="#0f3460"/><text x="70" y="1490" font-size="13" fill="#ffffff" font-weight="700">Method</text><line x1="150" y1="1468" x2="150" y2="1502" stroke="#d1d5db" stroke-width="0.8"/><text x="160" y="1490" font-size="13" fill="#ffffff" font-weight="700">Endpoint</text><line x1="530" y1="1468" x2="530" y2="1502" stroke="#d1d5db" stroke-width="0.8"/><text x="540" y="1490" font-size="13" fill="#ffffff" font-weight="700">Auth Required</text><line x1="690" y1="1468" x2="690" y2="1502" stroke="#d1d5db" stroke-width="0.8"/><text x="700" y="1490" font-size="13" fill="#ffffff" font-weight="700">Description</text><line x1="60" y1="1502" x2="1180" y2="1502" stroke="#d1d5db" stroke-width="0.8"/>
  <rect x="60" y="1502" width="1120" height="34" fill="#f9fafb"/><text x="70" y="1524" font-size="11" fill="#374151" font-weight="400">POST</text><line x1="150" y1="1502" x2="150" y2="1536" stroke="#d1d5db" stroke-width="0.8"/><text x="160" y="1524" font-size="11" fill="#374151" font-weight="400">/api/auth/login</text><line x1="530" y1="1502" x2="530" y2="1536" stroke="#d1d5db" stroke-width="0.8"/><text x="540" y="1524" font-size="11" fill="#374151" font-weight="400">None</text><line x1="690" y1="1502" x2="690" y2="1536" stroke="#d1d5db" stroke-width="0.8"/><text x="700" y="1524" font-size="11" fill="#374151" font-weight="400">Authenticate user, create session</text><line x1="60" y1="1536" x2="1180" y2="1536" stroke="#d1d5db" stroke-width="0.8"/><rect x="60" y="1532" width="1120" height="34" fill="white"/><text x="70" y="1554" font-size="11" fill="#374151" font-weight="400">POST</text><line x1="150" y1="1532" x2="150" y2="1566" stroke="#d1d5db" stroke-width="0.8"/><text x="160" y="1554" font-size="11" fill="#374151" font-weight="400">/api/auth/logout</text><line x1="530" y1="1532" x2="530" y2="1566" stroke="#d1d5db" stroke-width="0.8"/><text x="540" y="1554" font-size="11" fill="#374151" font-weight="400">Any role</text><line x1="690" y1="1532" x2="690" y2="1566" stroke="#d1d5db" stroke-width="0.8"/><text x="700" y="1554" font-size="11" fill="#374151" font-weight="400">Destroy session, redirect to login</text><line x1="60" y1="1566" x2="1180" y2="1566" stroke="#d1d5db" stroke-width="0.8"/><rect x="60" y="1562" width="1120" height="34" fill="#f9fafb"/><text x="70" y="1584" font-size="11" fill="#374151" font-weight="400">POST</text><line x1="150" y1="1562" x2="150" y2="1596" stroke="#d1d5db" stroke-width="0.8"/><text x="160" y="1584" font-size="11" fill="#374151" font-weight="400">/api/feedback</text><line x1="530" y1="1562" x2="530" y2="1596" stroke="#d1d5db" stroke-width="0.8"/><text x="540" y="1584" font-size="11" fill="#374151" font-weight="400">Student</text><line x1="690" y1="1562" x2="690" y2="1596" stroke="#d1d5db" stroke-width="0.8"/><text x="700" y="1584" font-size="11" fill="#374151" font-weight="400">Submit anonymous feedback, return Ref ID</text><line x1="60" y1="1596" x2="1180" y2="1596" stroke="#d1d5db" stroke-width="0.8"/><rect x="60" y="1592" width="1120" height="34" fill="white"/><text x="70" y="1614" font-size="11" fill="#374151" font-weight="400">GET</text><line x1="150" y1="1592" x2="150" y2="1626" stroke="#d1d5db" stroke-width="0.8"/><text x="160" y="1614" font-size="11" fill="#374151" font-weight="400">/api/feedback/check/:refId</text><line x1="530" y1="1592" x2="530" y2="1626" stroke="#d1d5db" stroke-width="0.8"/><text x="540" y="1614" font-size="11" fill="#374151" font-weight="400">None</text><line x1="690" y1="1592" x2="690" y2="1626" stroke="#d1d5db" stroke-width="0.8"/><text x="700" y="1614" font-size="11" fill="#374151" font-weight="400">Verify submission by Reference ID</text><line x1="60" y1="1626" x2="1180" y2="1626" stroke="#d1d5db" stroke-width="0.8"/><rect x="60" y="1622" width="1120" height="34" fill="#f9fafb"/><text x="70" y="1644" font-size="11" fill="#374151" font-weight="400">GET</text><line x1="150" y1="1622" x2="150" y2="1656" stroke="#d1d5db" stroke-width="0.8"/><text x="160" y="1644" font-size="11" fill="#374151" font-weight="400">/api/departments/:id/hod-report</text><line x1="530" y1="1622" x2="530" y2="1656" stroke="#d1d5db" stroke-width="0.8"/><text x="540" y="1644" font-size="11" fill="#374151" font-weight="400">HOD</text><line x1="690" y1="1622" x2="690" y2="1656" stroke="#d1d5db" stroke-width="0.8"/><text x="700" y="1644" font-size="11" fill="#374151" font-weight="400">Fetch department analytics data</text><line x1="60" y1="1656" x2="1180" y2="1656" stroke="#d1d5db" stroke-width="0.8"/><rect x="60" y="1652" width="1120" height="34" fill="white"/><text x="70" y="1674" font-size="11" fill="#374151" font-weight="400">GET</text><line x1="150" y1="1652" x2="150" y2="1686" stroke="#d1d5db" stroke-width="0.8"/><text x="160" y="1674" font-size="11" fill="#374151" font-weight="400">/api/departments/:id/form-template</text><line x1="530" y1="1652" x2="530" y2="1686" stroke="#d1d5db" stroke-width="0.8"/><text x="540" y="1674" font-size="11" fill="#374151" font-weight="400">Any</text><line x1="690" y1="1652" x2="690" y2="1686" stroke="#d1d5db" stroke-width="0.8"/><text x="700" y="1674" font-size="11" fill="#374151" font-weight="400">Load HOD custom form configuration</text><line x1="60" y1="1686" x2="1180" y2="1686" stroke="#d1d5db" stroke-width="0.8"/><rect x="60" y="1682" width="1120" height="34" fill="#f9fafb"/><text x="70" y="1704" font-size="11" fill="#374151" font-weight="400">POST</text><line x1="150" y1="1682" x2="150" y2="1716" stroke="#d1d5db" stroke-width="0.8"/><text x="160" y="1704" font-size="11" fill="#374151" font-weight="400">/api/departments/:id/form-template</text><line x1="530" y1="1682" x2="530" y2="1716" stroke="#d1d5db" stroke-width="0.8"/><text x="540" y="1704" font-size="11" fill="#374151" font-weight="400">HOD</text><line x1="690" y1="1682" x2="690" y2="1716" stroke="#d1d5db" stroke-width="0.8"/><text x="700" y="1704" font-size="11" fill="#374151" font-weight="400">Save custom form questions</text><line x1="60" y1="1716" x2="1180" y2="1716" stroke="#d1d5db" stroke-width="0.8"/><rect x="60" y="1712" width="1120" height="34" fill="white"/><text x="70" y="1734" font-size="11" fill="#374151" font-weight="400">GET</text><line x1="150" y1="1712" x2="150" y2="1746" stroke="#d1d5db" stroke-width="0.8"/><text x="160" y="1734" font-size="11" fill="#374151" font-weight="400">/api/windows</text><line x1="530" y1="1712" x2="530" y2="1746" stroke="#d1d5db" stroke-width="0.8"/><text x="540" y="1734" font-size="11" fill="#374151" font-weight="400">Any</text><line x1="690" y1="1712" x2="690" y2="1746" stroke="#d1d5db" stroke-width="0.8"/><text x="700" y="1734" font-size="11" fill="#374151" font-weight="400">List all feedback windows with status</text><line x1="60" y1="1746" x2="1180" y2="1746" stroke="#d1d5db" stroke-width="0.8"/><rect x="60" y="1742" width="1120" height="34" fill="#f9fafb"/><text x="70" y="1764" font-size="11" fill="#374151" font-weight="400">POST</text><line x1="150" y1="1742" x2="150" y2="1776" stroke="#d1d5db" stroke-width="0.8"/><text x="160" y="1764" font-size="11" fill="#374151" font-weight="400">/api/windows</text><line x1="530" y1="1742" x2="530" y2="1776" stroke="#d1d5db" stroke-width="0.8"/><text x="540" y="1764" font-size="11" fill="#374151" font-weight="400">Admin</text><line x1="690" y1="1742" x2="690" y2="1776" stroke="#d1d5db" stroke-width="0.8"/><text x="700" y="1764" font-size="11" fill="#374151" font-weight="400">Create new feedback window</text><line x1="60" y1="1776" x2="1180" y2="1776" stroke="#d1d5db" stroke-width="0.8"/><rect x="60" y="1772" width="1120" height="34" fill="white"/><text x="70" y="1794" font-size="11" fill="#374151" font-weight="400">PATCH</text><line x1="150" y1="1772" x2="150" y2="1806" stroke="#d1d5db" stroke-width="0.8"/><text x="160" y="1794" font-size="11" fill="#374151" font-weight="400">/api/windows/:id</text><line x1="530" y1="1772" x2="530" y2="1806" stroke="#d1d5db" stroke-width="0.8"/><text x="540" y="1794" font-size="11" fill="#374151" font-weight="400">Admin</text><line x1="690" y1="1772" x2="690" y2="1806" stroke="#d1d5db" stroke-width="0.8"/><text x="700" y="1794" font-size="11" fill="#374151" font-weight="400">Toggle window active/inactive</text><line x1="60" y1="1806" x2="1180" y2="1806" stroke="#d1d5db" stroke-width="0.8"/><rect x="60" y="1802" width="1120" height="34" fill="#f9fafb"/><text x="70" y="1824" font-size="11" fill="#374151" font-weight="400">GET</text><line x1="150" y1="1802" x2="150" y2="1836" stroke="#d1d5db" stroke-width="0.8"/><text x="160" y="1824" font-size="11" fill="#374151" font-weight="400">/api/courses</text><line x1="530" y1="1802" x2="530" y2="1836" stroke="#d1d5db" stroke-width="0.8"/><text x="540" y="1824" font-size="11" fill="#374151" font-weight="400">Any auth</text><line x1="690" y1="1802" x2="690" y2="1836" stroke="#d1d5db" stroke-width="0.8"/><text x="700" y="1824" font-size="11" fill="#374151" font-weight="400">List courses with faculty assignments</text><line x1="60" y1="1836" x2="1180" y2="1836" stroke="#d1d5db" stroke-width="0.8"/><rect x="60" y="1832" width="1120" height="34" fill="white"/><text x="70" y="1854" font-size="11" fill="#374151" font-weight="400">POST</text><line x1="150" y1="1832" x2="150" y2="1866" stroke="#d1d5db" stroke-width="0.8"/><text x="160" y="1854" font-size="11" fill="#374151" font-weight="400">/api/courses</text><line x1="530" y1="1832" x2="530" y2="1866" stroke="#d1d5db" stroke-width="0.8"/><text x="540" y="1854" font-size="11" fill="#374151" font-weight="400">Admin</text><line x1="690" y1="1832" x2="690" y2="1866" stroke="#d1d5db" stroke-width="0.8"/><text x="700" y="1854" font-size="11" fill="#374151" font-weight="400">Add a new course with faculty assignment</text><line x1="60" y1="1866" x2="1180" y2="1866" stroke="#d1d5db" stroke-width="0.8"/>
  <rect x="60" y="1468" width="1120" height="390" fill="none" stroke="#d1d5db" stroke-width="1"/>

  <rect x="0" y="1706" width="1240" height="48" fill="#0f3460"/>
  <line x1="0" y1="1706" x2="1240" y2="1706" stroke="#e94560" stroke-width="3"/>
  <text x="60" y="1736" font-size="11" fill="#94a3b8">CUPGS Academic Feedback Manager  |  Software Engineering Project Report</text>
  <text x="1180" y="1736" text-anchor="end" font-size="11" fill="#94a3b8">Page 9 of 16</text>
</svg>