<?xml version="1.0" encoding="UTF-8"?>
<svg xmlns="http://www.w3.org/2000/svg" width="1240" height="1754" viewBox="0 0 1240 1754" font-family="Times New Roman,Georgia,serif">
  <rect width="1240" height="1754" fill="white"/>
  <rect x="0" y="0" width="1240" height="10" fill="#0f3460"/>
  <rect x="0" y="10" width="1240" height="4" fill="#e94560"/>
  <rect x="0" y="14" width="1240" height="36" fill="#0f346060"/>
  <text x="60" y="40" font-size="16" font-weight="700" fill="white">Chapter 5 (Continued): Implementation</text>

  <rect x="60" y="60" width="1120" height="30" rx="4" fill="#0f346015" stroke="#0f346040" stroke-width="1"/>
  <text x="72" y="80" font-size="13" font-weight="800" fill="#0f3460">5.5  Module Implementation Details</text>

  <rect x="60" y="88" width="1120" height="30" rx="4" fill="#0f346015" stroke="#0f346040" stroke-width="1"/>
  <text x="72" y="108" font-size="13" font-weight="800" fill="#0f3460">5.5.1  Authentication Module</text>
    <circle cx="86" cy="127" r="4" fill="#1e3a8a"/><text x="98" y="130" font-size="12" fill="#374151">Login page presents four role options. Student and Faculty IDs follow the CUPGS/DEPT/NNN pattern.</text><circle cx="86" cy="153" r="4" fill="#1e3a8a"/><text x="98" y="156" font-size="12" fill="#374151">HOD IDs follow HOD/DEPT/001. Admin uses a fixed identifier (bput@admin2025).</text><circle cx="86" cy="179" r="4" fill="#1e3a8a"/><text x="98" y="182" font-size="12" fill="#374151">Server verifies the ID pattern, then checks the PIN/password against the department record.</text><circle cx="86" cy="205" r="4" fill="#1e3a8a"/><text x="98" y="208" font-size="12" fill="#374151">On success, req.session.user is populated with role, department, and employee ID.</text><circle cx="86" cy="231" r="4" fill="#1e3a8a"/><text x="98" y="234" font-size="12" fill="#374151">Rate limiter blocks further attempts for 15 minutes after 10 consecutive failures from the same</text><text x="98" y="254" font-size="12" fill="#374151">IP.</text><rect x="60" y="448" width="1120" height="30" rx="4" fill="#0f346015" stroke="#0f346040" stroke-width="1"/>
  <text x="72" y="468" font-size="13" font-weight="800" fill="#0f3460">5.5.2  Feedback Submission Module</text>
    <circle cx="86" cy="487" r="4" fill="#14532d"/><text x="98" y="490" font-size="12" fill="#374151">Student selects department and course. Faculty is auto-populated from course.faculty_id.</text><circle cx="86" cy="513" r="4" fill="#14532d"/><text x="98" y="516" font-size="12" fill="#374151">Five DragStarRating components render with mouse/touch drag handlers for 0.5-step precision.</text><circle cx="86" cy="539" r="4" fill="#14532d"/><text x="98" y="542" font-size="12" fill="#374151">Semester is auto-detected (odd: July-Oct; even: Nov-June). Academic year is calculated</text><text x="98" y="562" font-size="12" fill="#374151">server-side.</text><circle cx="86" cy="585" r="4" fill="#14532d"/><text x="98" y="588" font-size="12" fill="#374151">Custom questions from HOD's form template are rendered dynamically if they exist for the</text><text x="98" y="608" font-size="12" fill="#374151">department.</text><circle cx="86" cy="631" r="4" fill="#14532d"/><text x="98" y="634" font-size="12" fill="#374151">On POST /api/feedback: Zod validates all fields, window is checked, integrity is enforced, record</text><text x="98" y="654" font-size="12" fill="#374151">is inserted, Ref ID returned.</text><rect x="60" y="808" width="1120" height="30" rx="4" fill="#0f346015" stroke="#0f346040" stroke-width="1"/>
  <text x="72" y="828" font-size="13" font-weight="800" fill="#0f3460">5.5.3  HOD Analytics Dashboard</text>
    <circle cx="86" cy="847" r="4" fill="#065f46"/><text x="98" y="850" font-size="12" fill="#374151">GET /api/departments/:id/hod-report returns aggregated averages per course per rating category.</text><circle cx="86" cy="873" r="4" fill="#065f46"/><text x="98" y="876" font-size="12" fill="#374151">Dashboard renders a sortable table of courses with 5 rating columns and submission count.</text><circle cx="86" cy="899" r="4" fill="#065f46"/><text x="98" y="902" font-size="12" fill="#374151">PDF generation uses jsPDF + html2canvas to snapshot the dashboard DOM into a formatted A4</text><text x="98" y="922" font-size="12" fill="#374151">document.</text><circle cx="86" cy="945" r="4" fill="#065f46"/><text x="98" y="948" font-size="12" fill="#374151">Form builder maintains a local state of question objects. On save, POST updates form_templates</text><text x="98" y="968" font-size="12" fill="#374151">table.</text><circle cx="86" cy="991" r="4" fill="#065f46"/><text x="98" y="994" font-size="12" fill="#374151">Window status is shown by querying GET /api/windows and filtering for the HOD's department ID.</text><rect x="60" y="1168" width="1120" height="30" rx="4" fill="#0f346015" stroke="#0f346040" stroke-width="1"/>
  <text x="72" y="1188" font-size="13" font-weight="800" fill="#0f3460">5.5.4  Admin Institution Management</text>
    <circle cx="86" cy="1207" r="4" fill="#7c2d12"/><text x="98" y="1210" font-size="12" fill="#374151">Admin dashboard fetches analytics across all 5 departments via GET /api/analytics/dashboard.</text><circle cx="86" cy="1233" r="4" fill="#7c2d12"/><text x="98" y="1236" font-size="12" fill="#374151">Course management allows adding courses with optional faculty assignment from the existing faculty</text><text x="98" y="1256" font-size="12" fill="#374151">list.</text><circle cx="86" cy="1279" r="4" fill="#7c2d12"/><text x="98" y="1282" font-size="12" fill="#374151">Feedback windows are created via POST /api/windows with title, dates, and optional department</text><text x="98" y="1302" font-size="12" fill="#374151">scope.</text><circle cx="86" cy="1325" r="4" fill="#7c2d12"/><text x="98" y="1328" font-size="12" fill="#374151">PATCH /api/windows/:id toggles the is_active boolean — immediately affects student submission</text><text x="98" y="1348" font-size="12" fill="#374151">eligibility.</text>

  <rect x="60" y="1528" width="1120" height="30" rx="4" fill="#0f346015" stroke="#0f346040" stroke-width="1"/>
  <text x="72" y="1548" font-size="13" font-weight="800" fill="#0f3460">5.6  PWA Implementation</text>
  <text x="80" y="1570" font-size="12" fill="#374151" font-weight="normal">The application is configured as a Progressive Web App using a Web App Manifest (manifest.json) and a</text>
<text x="80" y="1591" font-size="12" fill="#374151" font-weight="normal">Service Worker. The manifest defines the app name, icons, theme color (#0f3460), background color,</text>
<text x="80" y="1612" font-size="12" fill="#374151" font-weight="normal">display mode (standalone), and start URL. The Service Worker caches static assets on install and serves</text>
<text x="80" y="1633" font-size="12" fill="#374151" font-weight="normal">them from cache on subsequent loads, enabling offline access to previously visited pages.</text>
  <circle cx="86" cy="1665" r="4" fill="#0f3460"/><text x="98" y="1668" font-size="12" fill="#374151">Manifest.json: defines app identity, icons (192x192, 512x512), display mode, and theme.</text><circle cx="86" cy="1691" r="4" fill="#0f3460"/><text x="98" y="1694" font-size="12" fill="#374151">Service Worker: caches JS, CSS, and static assets for offline functionality.</text><circle cx="86" cy="1717" r="4" fill="#0f3460"/><text x="98" y="1720" font-size="12" fill="#374151">Users on Android and iOS see an 'Add to Home Screen' prompt after visiting the app.</text><circle cx="86" cy="1743" r="4" fill="#0f3460"/><text x="98" y="1746" font-size="12" fill="#374151">Custom splash screen: animated CUPGS logo displayed for 2 seconds on app launch.</text>

  <rect x="0" y="1706" width="1240" height="48" fill="#0f3460"/>
  <line x1="0" y1="1706" x2="1240" y2="1706" stroke="#e94560" stroke-width="3"/>
  <text x="60" y="1736" font-size="11" fill="#94a3b8">CUPGS Academic Feedback Manager  |  Software Engineering Project Report</text>
  <text x="1180" y="1736" text-anchor="end" font-size="11" fill="#94a3b8">Page 10 of 16</text>
</svg>