<?xml version="1.0" encoding="UTF-8"?>
<svg xmlns="http://www.w3.org/2000/svg" width="1240" height="1754" viewBox="0 0 1240 1754" font-family="Times New Roman,Georgia,serif">
  <rect width="1240" height="1754" fill="white"/>
  <rect x="0" y="0" width="1240" height="10" fill="#0f3460"/>
  <rect x="0" y="10" width="1240" height="4" fill="#e94560"/>
  <rect x="0" y="14" width="1240" height="56" fill="#0f3460"/>
  <rect x="0" y="70" width="1240" height="4" fill="#e94560"/>
  <text x="60" y="50" font-size="22" font-weight="800" fill="#ffffff">Chapter 6: Testing</text>

  <rect x="60" y="88" width="1120" height="30" rx="4" fill="#0f346015" stroke="#0f346040" stroke-width="1"/>
  <text x="72" y="108" font-size="13" font-weight="800" fill="#0f3460">6.1  Testing Strategy</text>
  <text x="80" y="130" font-size="12" fill="#374151" font-weight="normal">The testing strategy for CUPGS Feedback Manager follows a layered approach: Unit Testing (individual</text>
<text x="80" y="151" font-size="12" fill="#374151" font-weight="normal">functions and components), Integration Testing (API endpoints with database), System Testing (end-to-end</text>
<text x="80" y="172" font-size="12" fill="#374151" font-weight="normal">user flows), User Acceptance Testing (UAT with actual student and HOD users), and Security Testing (rate</text>
<text x="80" y="193" font-size="12" fill="#374151" font-weight="normal">limiting, session, and input validation).</text>

  <rect x="60" y="222" width="1120" height="30" rx="4" fill="#0f346015" stroke="#0f346040" stroke-width="1"/>
  <text x="72" y="242" font-size="13" font-weight="800" fill="#0f3460">6.2  Unit Test Cases</text>
  <rect x="60" y="262" width="1120" height="34" fill="#0f3460"/><text x="70" y="284" font-size="13" fill="#ffffff" font-weight="700">TC-ID</text><line x1="130" y1="262" x2="130" y2="296" stroke="#d1d5db" stroke-width="0.8"/><text x="140" y="284" font-size="13" fill="#ffffff" font-weight="700">Component/Function</text><line x1="330" y1="262" x2="330" y2="296" stroke="#d1d5db" stroke-width="0.8"/><text x="340" y="284" font-size="13" fill="#ffffff" font-weight="700">Test Description</text><line x1="650" y1="262" x2="650" y2="296" stroke="#d1d5db" stroke-width="0.8"/><text x="660" y="284" font-size="13" fill="#ffffff" font-weight="700">Expected Result</text><line x1="1010" y1="262" x2="1010" y2="296" stroke="#d1d5db" stroke-width="0.8"/><text x="1020" y="284" font-size="13" fill="#ffffff" font-weight="700">Status</text><line x1="60" y1="296" x2="1180" y2="296" stroke="#d1d5db" stroke-width="0.8"/>
  <rect x="60" y="296" width="1120" height="34" fill="#f9fafb"/><text x="70" y="318" font-size="11" fill="#374151" font-weight="400">UT-01</text><line x1="130" y1="296" x2="130" y2="330" stroke="#d1d5db" stroke-width="0.8"/><text x="140" y="318" font-size="11" fill="#374151" font-weight="400">wrapText()</text><line x1="330" y1="296" x2="330" y2="330" stroke="#d1d5db" stroke-width="0.8"/><text x="340" y="318" font-size="11" fill="#374151" font-weight="400">Wrap 120-char string with maxChars=40</text><line x1="650" y1="296" x2="650" y2="330" stroke="#d1d5db" stroke-width="0.8"/><text x="660" y="318" font-size="11" fill="#374151" font-weight="400">Returns array of 3 lines, each ≤ 40 chars</text><line x1="1010" y1="296" x2="1010" y2="330" stroke="#d1d5db" stroke-width="0.8"/><text x="1020" y="318" font-size="11" fill="#374151" font-weight="400">PASS</text><line x1="60" y1="330" x2="1180" y2="330" stroke="#d1d5db" stroke-width="0.8"/><rect x="60" y="330" width="1120" height="34" fill="white"/><text x="70" y="352" font-size="11" fill="#374151" font-weight="400">UT-02</text><line x1="130" y1="330" x2="130" y2="364" stroke="#d1d5db" stroke-width="0.8"/><text x="140" y="352" font-size="11" fill="#374151" font-weight="400">Academic Year Calc</text><line x1="330" y1="330" x2="330" y2="364" stroke="#d1d5db" stroke-width="0.8"/><text x="340" y="352" font-size="11" fill="#374151" font-weight="400">Input: month=4 (April), year=2025</text><line x1="650" y1="330" x2="650" y2="364" stroke="#d1d5db" stroke-width="0.8"/><text x="660" y="352" font-size="11" fill="#374151" font-weight="400">Returns '2025-26'</text><line x1="1010" y1="330" x2="1010" y2="364" stroke="#d1d5db" stroke-width="0.8"/><text x="1020" y="352" font-size="11" fill="#374151" font-weight="400">PASS</text><line x1="60" y1="364" x2="1180" y2="364" stroke="#d1d5db" stroke-width="0.8"/><rect x="60" y="364" width="1120" height="34" fill="#f9fafb"/><text x="70" y="386" font-size="11" fill="#374151" font-weight="400">UT-03</text><line x1="130" y1="364" x2="130" y2="398" stroke="#d1d5db" stroke-width="0.8"/><text x="140" y="386" font-size="11" fill="#374151" font-weight="400">Academic Year Calc</text><line x1="330" y1="364" x2="330" y2="398" stroke="#d1d5db" stroke-width="0.8"/><text x="340" y="386" font-size="11" fill="#374151" font-weight="400">Input: month=2 (Feb), year=2025</text><line x1="650" y1="364" x2="650" y2="398" stroke="#d1d5db" stroke-width="0.8"/><text x="660" y="386" font-size="11" fill="#374151" font-weight="400">Returns '2024-25'</text><line x1="1010" y1="364" x2="1010" y2="398" stroke="#d1d5db" stroke-width="0.8"/><text x="1020" y="386" font-size="11" fill="#374151" font-weight="400">PASS</text><line x1="60" y1="398" x2="1180" y2="398" stroke="#d1d5db" stroke-width="0.8"/><rect x="60" y="398" width="1120" height="34" fill="white"/><text x="70" y="420" font-size="11" fill="#374151" font-weight="400">UT-04</text><line x1="130" y1="398" x2="130" y2="432" stroke="#d1d5db" stroke-width="0.8"/><text x="140" y="420" font-size="11" fill="#374151" font-weight="400">Semester Detection</text><line x1="330" y1="398" x2="330" y2="432" stroke="#d1d5db" stroke-width="0.8"/><text x="340" y="420" font-size="11" fill="#374151" font-weight="400">Input: month=8 (August)</text><line x1="650" y1="398" x2="650" y2="432" stroke="#d1d5db" stroke-width="0.8"/><text x="660" y="420" font-size="11" fill="#374151" font-weight="400">Returns 'ODD' semester</text><line x1="1010" y1="398" x2="1010" y2="432" stroke="#d1d5db" stroke-width="0.8"/><text x="1020" y="420" font-size="11" fill="#374151" font-weight="400">PASS</text><line x1="60" y1="432" x2="1180" y2="432" stroke="#d1d5db" stroke-width="0.8"/><rect x="60" y="432" width="1120" height="34" fill="#f9fafb"/><text x="70" y="454" font-size="11" fill="#374151" font-weight="400">UT-05</text><line x1="130" y1="432" x2="130" y2="466" stroke="#d1d5db" stroke-width="0.8"/><text x="140" y="454" font-size="11" fill="#374151" font-weight="400">Semester Detection</text><line x1="330" y1="432" x2="330" y2="466" stroke="#d1d5db" stroke-width="0.8"/><text x="340" y="454" font-size="11" fill="#374151" font-weight="400">Input: month=12 (December)</text><line x1="650" y1="432" x2="650" y2="466" stroke="#d1d5db" stroke-width="0.8"/><text x="660" y="454" font-size="11" fill="#374151" font-weight="400">Returns 'EVEN' semester</text><line x1="1010" y1="432" x2="1010" y2="466" stroke="#d1d5db" stroke-width="0.8"/><text x="1020" y="454" font-size="11" fill="#374151" font-weight="400">PASS</text><line x1="60" y1="466" x2="1180" y2="466" stroke="#d1d5db" stroke-width="0.8"/><rect x="60" y="466" width="1120" height="34" fill="white"/><text x="70" y="488" font-size="11" fill="#374151" font-weight="400">UT-06</text><line x1="130" y1="466" x2="130" y2="500" stroke="#d1d5db" stroke-width="0.8"/><text x="140" y="488" font-size="11" fill="#374151" font-weight="400">DragStarRating</text><line x1="330" y1="466" x2="330" y2="500" stroke="#d1d5db" stroke-width="0.8"/><text x="340" y="488" font-size="11" fill="#374151" font-weight="400">Drag to position equivalent to 3.5 stars</text><line x1="650" y1="466" x2="650" y2="500" stroke="#d1d5db" stroke-width="0.8"/><text x="660" y="488" font-size="11" fill="#374151" font-weight="400">Rating state updates to 3.5, UI shows 3.5 stars</text><line x1="1010" y1="466" x2="1010" y2="500" stroke="#d1d5db" stroke-width="0.8"/><text x="1020" y="488" font-size="11" fill="#374151" font-weight="400">PASS</text><line x1="60" y1="500" x2="1180" y2="500" stroke="#d1d5db" stroke-width="0.8"/><rect x="60" y="500" width="1120" height="34" fill="#f9fafb"/><text x="70" y="522" font-size="11" fill="#374151" font-weight="400">UT-07</text><line x1="130" y1="500" x2="130" y2="534" stroke="#d1d5db" stroke-width="0.8"/><text x="140" y="522" font-size="11" fill="#374151" font-weight="400">Zod Schema Auth</text><line x1="330" y1="500" x2="330" y2="534" stroke="#d1d5db" stroke-width="0.8"/><text x="340" y="522" font-size="11" fill="#374151" font-weight="400">Input: empty employee_id field</text><line x1="650" y1="500" x2="650" y2="534" stroke="#d1d5db" stroke-width="0.8"/><text x="660" y="522" font-size="11" fill="#374151" font-weight="400">Returns ZodError with 'required' message</text><line x1="1010" y1="500" x2="1010" y2="534" stroke="#d1d5db" stroke-width="0.8"/><text x="1020" y="522" font-size="11" fill="#374151" font-weight="400">PASS</text><line x1="60" y1="534" x2="1180" y2="534" stroke="#d1d5db" stroke-width="0.8"/><rect x="60" y="534" width="1120" height="34" fill="white"/><text x="70" y="556" font-size="11" fill="#374151" font-weight="400">UT-08</text><line x1="130" y1="534" x2="130" y2="568" stroke="#d1d5db" stroke-width="0.8"/><text x="140" y="556" font-size="11" fill="#374151" font-weight="400">Zod Schema Feedback</text><line x1="330" y1="534" x2="330" y2="568" stroke="#d1d5db" stroke-width="0.8"/><text x="340" y="556" font-size="11" fill="#374151" font-weight="400">Input: rating = 5.5 (out of range)</text><line x1="650" y1="534" x2="650" y2="568" stroke="#d1d5db" stroke-width="0.8"/><text x="660" y="556" font-size="11" fill="#374151" font-weight="400">Returns ZodError for rating &gt; 5.0</text><line x1="1010" y1="534" x2="1010" y2="568" stroke="#d1d5db" stroke-width="0.8"/><text x="1020" y="556" font-size="11" fill="#374151" font-weight="400">PASS</text><line x1="60" y1="568" x2="1180" y2="568" stroke="#d1d5db" stroke-width="0.8"/><rect x="60" y="568" width="1120" height="34" fill="#f9fafb"/><text x="70" y="590" font-size="11" fill="#374151" font-weight="400">UT-09</text><line x1="130" y1="568" x2="130" y2="602" stroke="#d1d5db" stroke-width="0.8"/><text x="140" y="590" font-size="11" fill="#374151" font-weight="400">Reference ID Gen</text><line x1="330" y1="568" x2="330" y2="602" stroke="#d1d5db" stroke-width="0.8"/><text x="340" y="590" font-size="11" fill="#374151" font-weight="400">Call generateRefId() 1000 times</text><line x1="650" y1="568" x2="650" y2="602" stroke="#d1d5db" stroke-width="0.8"/><text x="660" y="590" font-size="11" fill="#374151" font-weight="400">All IDs unique, format matches FB-YYYYMMDD-XXXXXX</text><line x1="1010" y1="568" x2="1010" y2="602" stroke="#d1d5db" stroke-width="0.8"/><text x="1020" y="590" font-size="11" fill="#374151" font-weight="400">PASS</text><line x1="60" y1="602" x2="1180" y2="602" stroke="#d1d5db" stroke-width="0.8"/><rect x="60" y="602" width="1120" height="34" fill="white"/><text x="70" y="624" font-size="11" fill="#374151" font-weight="400">UT-10</text><line x1="130" y1="602" x2="130" y2="636" stroke="#d1d5db" stroke-width="0.8"/><text x="140" y="624" font-size="11" fill="#374151" font-weight="400">stripEmoji()</text><line x1="330" y1="602" x2="330" y2="636" stroke="#d1d5db" stroke-width="0.8"/><text x="340" y="624" font-size="11" fill="#374151" font-weight="400">SVG string containing emoji character U+1F600</text><line x1="650" y1="602" x2="650" y2="636" stroke="#d1d5db" stroke-width="0.8"/><text x="660" y="624" font-size="11" fill="#374151" font-weight="400">Emoji removed, remaining text preserved</text><line x1="1010" y1="602" x2="1010" y2="636" stroke="#d1d5db" stroke-width="0.8"/><text x="1020" y="624" font-size="11" fill="#374151" font-weight="400">PASS</text><line x1="60" y1="636" x2="1180" y2="636" stroke="#d1d5db" stroke-width="0.8"/>
  <rect x="60" y="262" width="1120" height="374" fill="none" stroke="#d1d5db" stroke-width="1"/>

  <rect x="60" y="642" width="1120" height="30" rx="4" fill="#0f346015" stroke="#0f346040" stroke-width="1"/>
  <text x="72" y="662" font-size="13" font-weight="800" fill="#0f3460">6.3  Integration Test Cases</text>
  <rect x="60" y="682" width="1120" height="34" fill="#0f3460"/><text x="70" y="704" font-size="13" fill="#ffffff" font-weight="700">TC-ID</text><line x1="130" y1="682" x2="130" y2="716" stroke="#d1d5db" stroke-width="0.8"/><text x="140" y="704" font-size="13" fill="#ffffff" font-weight="700">Endpoint</text><line x1="390" y1="682" x2="390" y2="716" stroke="#d1d5db" stroke-width="0.8"/><text x="400" y="704" font-size="13" fill="#ffffff" font-weight="700">Input</text><line x1="670" y1="682" x2="670" y2="716" stroke="#d1d5db" stroke-width="0.8"/><text x="680" y="704" font-size="13" fill="#ffffff" font-weight="700">Expected HTTP Response</text><line x1="1090" y1="682" x2="1090" y2="716" stroke="#d1d5db" stroke-width="0.8"/><text x="1100" y="704" font-size="13" fill="#ffffff" font-weight="700">Status</text><line x1="60" y1="716" x2="1180" y2="716" stroke="#d1d5db" stroke-width="0.8"/>
  <rect x="60" y="716" width="1120" height="34" fill="#f9fafb"/><text x="70" y="738" font-size="11" fill="#374151" font-weight="400">IT-01</text><line x1="130" y1="716" x2="130" y2="750" stroke="#d1d5db" stroke-width="0.8"/><text x="140" y="738" font-size="11" fill="#374151" font-weight="400">POST /api/auth/login</text><line x1="390" y1="716" x2="390" y2="750" stroke="#d1d5db" stroke-width="0.8"/><text x="400" y="738" font-size="11" fill="#374151" font-weight="400">Valid student ID + correct PIN</text><line x1="670" y1="716" x2="670" y2="750" stroke="#d1d5db" stroke-width="0.8"/><text x="680" y="738" font-size="11" fill="#374151" font-weight="400">200 OK + session cookie set</text><line x1="1090" y1="716" x2="1090" y2="750" stroke="#d1d5db" stroke-width="0.8"/><text x="1100" y="738" font-size="11" fill="#374151" font-weight="400">PASS</text><line x1="60" y1="750" x2="1180" y2="750" stroke="#d1d5db" stroke-width="0.8"/><rect x="60" y="750" width="1120" height="34" fill="white"/><text x="70" y="772" font-size="11" fill="#374151" font-weight="400">IT-02</text><line x1="130" y1="750" x2="130" y2="784" stroke="#d1d5db" stroke-width="0.8"/><text x="140" y="772" font-size="11" fill="#374151" font-weight="400">POST /api/auth/login</text><line x1="390" y1="750" x2="390" y2="784" stroke="#d1d5db" stroke-width="0.8"/><text x="400" y="772" font-size="11" fill="#374151" font-weight="400">Valid student ID + wrong PIN</text><line x1="670" y1="750" x2="670" y2="784" stroke="#d1d5db" stroke-width="0.8"/><text x="680" y="772" font-size="11" fill="#374151" font-weight="400">401 Unauthorized</text><line x1="1090" y1="750" x2="1090" y2="784" stroke="#d1d5db" stroke-width="0.8"/><text x="1100" y="772" font-size="11" fill="#374151" font-weight="400">PASS</text><line x1="60" y1="784" x2="1180" y2="784" stroke="#d1d5db" stroke-width="0.8"/><rect x="60" y="784" width="1120" height="34" fill="#f9fafb"/><text x="70" y="806" font-size="11" fill="#374151" font-weight="400">IT-03</text><line x1="130" y1="784" x2="130" y2="818" stroke="#d1d5db" stroke-width="0.8"/><text x="140" y="806" font-size="11" fill="#374151" font-weight="400">POST /api/auth/login</text><line x1="390" y1="784" x2="390" y2="818" stroke="#d1d5db" stroke-width="0.8"/><text x="400" y="806" font-size="11" fill="#374151" font-weight="400">11th attempt within 15 min</text><line x1="670" y1="784" x2="670" y2="818" stroke="#d1d5db" stroke-width="0.8"/><text x="680" y="806" font-size="11" fill="#374151" font-weight="400">429 Too Many Requests</text><line x1="1090" y1="784" x2="1090" y2="818" stroke="#d1d5db" stroke-width="0.8"/><text x="1100" y="806" font-size="11" fill="#374151" font-weight="400">PASS</text><line x1="60" y1="818" x2="1180" y2="818" stroke="#d1d5db" stroke-width="0.8"/><rect x="60" y="818" width="1120" height="34" fill="white"/><text x="70" y="840" font-size="11" fill="#374151" font-weight="400">IT-04</text><line x1="130" y1="818" x2="130" y2="852" stroke="#d1d5db" stroke-width="0.8"/><text x="140" y="840" font-size="11" fill="#374151" font-weight="400">POST /api/feedback</text><line x1="390" y1="818" x2="390" y2="852" stroke="#d1d5db" stroke-width="0.8"/><text x="400" y="840" font-size="11" fill="#374151" font-weight="400">Valid feedback data + active window</text><line x1="670" y1="818" x2="670" y2="852" stroke="#d1d5db" stroke-width="0.8"/><text x="680" y="840" font-size="11" fill="#374151" font-weight="400">201 Created + Reference ID in response body</text><line x1="1090" y1="818" x2="1090" y2="852" stroke="#d1d5db" stroke-width="0.8"/><text x="1100" y="840" font-size="11" fill="#374151" font-weight="400">PASS</text><line x1="60" y1="852" x2="1180" y2="852" stroke="#d1d5db" stroke-width="0.8"/><rect x="60" y="852" width="1120" height="34" fill="#f9fafb"/><text x="70" y="874" font-size="11" fill="#374151" font-weight="400">IT-05</text><line x1="130" y1="852" x2="130" y2="886" stroke="#d1d5db" stroke-width="0.8"/><text x="140" y="874" font-size="11" fill="#374151" font-weight="400">POST /api/feedback</text><line x1="390" y1="852" x2="390" y2="886" stroke="#d1d5db" stroke-width="0.8"/><text x="400" y="874" font-size="11" fill="#374151" font-weight="400">Rating value = 0.3 (below 0.5 min)</text><line x1="670" y1="852" x2="670" y2="886" stroke="#d1d5db" stroke-width="0.8"/><text x="680" y="874" font-size="11" fill="#374151" font-weight="400">400 Bad Request + Zod error details</text><line x1="1090" y1="852" x2="1090" y2="886" stroke="#d1d5db" stroke-width="0.8"/><text x="1100" y="874" font-size="11" fill="#374151" font-weight="400">PASS</text><line x1="60" y1="886" x2="1180" y2="886" stroke="#d1d5db" stroke-width="0.8"/><rect x="60" y="886" width="1120" height="34" fill="white"/><text x="70" y="908" font-size="11" fill="#374151" font-weight="400">IT-06</text><line x1="130" y1="886" x2="130" y2="920" stroke="#d1d5db" stroke-width="0.8"/><text x="140" y="908" font-size="11" fill="#374151" font-weight="400">POST /api/feedback</text><line x1="390" y1="886" x2="390" y2="920" stroke="#d1d5db" stroke-width="0.8"/><text x="400" y="908" font-size="11" fill="#374151" font-weight="400">Course from different department</text><line x1="670" y1="886" x2="670" y2="920" stroke="#d1d5db" stroke-width="0.8"/><text x="680" y="908" font-size="11" fill="#374151" font-weight="400">400 Bad Request + integrity violation message</text><line x1="1090" y1="886" x2="1090" y2="920" stroke="#d1d5db" stroke-width="0.8"/><text x="1100" y="908" font-size="11" fill="#374151" font-weight="400">PASS</text><line x1="60" y1="920" x2="1180" y2="920" stroke="#d1d5db" stroke-width="0.8"/><rect x="60" y="920" width="1120" height="34" fill="#f9fafb"/><text x="70" y="942" font-size="11" fill="#374151" font-weight="400">IT-07</text><line x1="130" y1="920" x2="130" y2="954" stroke="#d1d5db" stroke-width="0.8"/><text x="140" y="942" font-size="11" fill="#374151" font-weight="400">POST /api/feedback</text><line x1="390" y1="920" x2="390" y2="954" stroke="#d1d5db" stroke-width="0.8"/><text x="400" y="942" font-size="11" fill="#374151" font-weight="400">No active window open</text><line x1="670" y1="920" x2="670" y2="954" stroke="#d1d5db" stroke-width="0.8"/><text x="680" y="942" font-size="11" fill="#374151" font-weight="400">403 Forbidden + 'No active window' message</text><line x1="1090" y1="920" x2="1090" y2="954" stroke="#d1d5db" stroke-width="0.8"/><text x="1100" y="942" font-size="11" fill="#374151" font-weight="400">PASS</text><line x1="60" y1="954" x2="1180" y2="954" stroke="#d1d5db" stroke-width="0.8"/><rect x="60" y="954" width="1120" height="34" fill="white"/><text x="70" y="976" font-size="11" fill="#374151" font-weight="400">IT-08</text><line x1="130" y1="954" x2="130" y2="988" stroke="#d1d5db" stroke-width="0.8"/><text x="140" y="976" font-size="11" fill="#374151" font-weight="400">GET /api/.../hod-report</text><line x1="390" y1="954" x2="390" y2="988" stroke="#d1d5db" stroke-width="0.8"/><text x="400" y="976" font-size="11" fill="#374151" font-weight="400">HOD session for CSE department</text><line x1="670" y1="954" x2="670" y2="988" stroke="#d1d5db" stroke-width="0.8"/><text x="680" y="976" font-size="11" fill="#374151" font-weight="400">200 OK + analytics JSON for CSE dept only</text><line x1="1090" y1="954" x2="1090" y2="988" stroke="#d1d5db" stroke-width="0.8"/><text x="1100" y="976" font-size="11" fill="#374151" font-weight="400">PASS</text><line x1="60" y1="988" x2="1180" y2="988" stroke="#d1d5db" stroke-width="0.8"/><rect x="60" y="988" width="1120" height="34" fill="#f9fafb"/><text x="70" y="1010" font-size="11" fill="#374151" font-weight="400">IT-09</text><line x1="130" y1="988" x2="130" y2="1022" stroke="#d1d5db" stroke-width="0.8"/><text x="140" y="1010" font-size="11" fill="#374151" font-weight="400">GET /api/.../hod-report</text><line x1="390" y1="988" x2="390" y2="1022" stroke="#d1d5db" stroke-width="0.8"/><text x="400" y="1010" font-size="11" fill="#374151" font-weight="400">Student session (wrong role)</text><line x1="670" y1="988" x2="670" y2="1022" stroke="#d1d5db" stroke-width="0.8"/><text x="680" y="1010" font-size="11" fill="#374151" font-weight="400">403 Forbidden</text><line x1="1090" y1="988" x2="1090" y2="1022" stroke="#d1d5db" stroke-width="0.8"/><text x="1100" y="1010" font-size="11" fill="#374151" font-weight="400">PASS</text><line x1="60" y1="1022" x2="1180" y2="1022" stroke="#d1d5db" stroke-width="0.8"/><rect x="60" y="1022" width="1120" height="34" fill="white"/><text x="70" y="1044" font-size="11" fill="#374151" font-weight="400">IT-10</text><line x1="130" y1="1022" x2="130" y2="1056" stroke="#d1d5db" stroke-width="0.8"/><text x="140" y="1044" font-size="11" fill="#374151" font-weight="400">POST /api/windows</text><line x1="390" y1="1022" x2="390" y2="1056" stroke="#d1d5db" stroke-width="0.8"/><text x="400" y="1044" font-size="11" fill="#374151" font-weight="400">Admin session + valid window data</text><line x1="670" y1="1022" x2="670" y2="1056" stroke="#d1d5db" stroke-width="0.8"/><text x="680" y="1044" font-size="11" fill="#374151" font-weight="400">201 Created + window ID in response</text><line x1="1090" y1="1022" x2="1090" y2="1056" stroke="#d1d5db" stroke-width="0.8"/><text x="1100" y="1044" font-size="11" fill="#374151" font-weight="400">PASS</text><line x1="60" y1="1056" x2="1180" y2="1056" stroke="#d1d5db" stroke-width="0.8"/>
  <rect x="60" y="682" width="1120" height="374" fill="none" stroke="#d1d5db" stroke-width="1"/>

  <rect x="60" y="1062" width="1120" height="30" rx="4" fill="#0f346015" stroke="#0f346040" stroke-width="1"/>
  <text x="72" y="1082" font-size="13" font-weight="800" fill="#0f3460">6.4  System (End-to-End) Test Cases</text>
  <rect x="60" y="1102" width="1120" height="34" fill="#0f3460"/><text x="70" y="1124" font-size="13" fill="#ffffff" font-weight="700">TC-ID</text><line x1="130" y1="1102" x2="130" y2="1136" stroke="#d1d5db" stroke-width="0.8"/><text x="140" y="1124" font-size="13" fill="#ffffff" font-weight="700">User Flow</text><line x1="310" y1="1102" x2="310" y2="1136" stroke="#d1d5db" stroke-width="0.8"/><text x="320" y="1124" font-size="13" fill="#ffffff" font-weight="700">Steps</text><line x1="690" y1="1102" x2="690" y2="1136" stroke="#d1d5db" stroke-width="0.8"/><text x="700" y="1124" font-size="13" fill="#ffffff" font-weight="700">Expected Outcome</text><line x1="1090" y1="1102" x2="1090" y2="1136" stroke="#d1d5db" stroke-width="0.8"/><text x="1100" y="1124" font-size="13" fill="#ffffff" font-weight="700">Status</text><line x1="60" y1="1136" x2="1180" y2="1136" stroke="#d1d5db" stroke-width="0.8"/>
  <rect x="60" y="1136" width="1120" height="34" fill="#f9fafb"/><text x="70" y="1158" font-size="11" fill="#374151" font-weight="400">ST-01</text><line x1="130" y1="1136" x2="130" y2="1170" stroke="#d1d5db" stroke-width="0.8"/><text x="140" y="1158" font-size="11" fill="#374151" font-weight="400">Student Submission</text><line x1="310" y1="1136" x2="310" y2="1170" stroke="#d1d5db" stroke-width="0.8"/><text x="320" y="1158" font-size="11" fill="#374151" font-weight="400">Login as student -&gt; Select CSE/DS course -&gt; Drag all ratings to 4.0 -&gt; Submit</text><line x1="690" y1="1136" x2="690" y2="1170" stroke="#d1d5db" stroke-width="0.8"/><text x="700" y="1158" font-size="11" fill="#374151" font-weight="400">Reference ID displayed, record visible in HOD dashboard analytics</text><line x1="1090" y1="1136" x2="1090" y2="1170" stroke="#d1d5db" stroke-width="0.8"/><text x="1100" y="1158" font-size="11" fill="#374151" font-weight="400">PASS</text><line x1="60" y1="1170" x2="1180" y2="1170" stroke="#d1d5db" stroke-width="0.8"/><rect x="60" y="1186" width="1120" height="34" fill="white"/><text x="70" y="1208" font-size="11" fill="#374151" font-weight="400">ST-02</text><line x1="130" y1="1186" x2="130" y2="1220" stroke="#d1d5db" stroke-width="0.8"/><text x="140" y="1208" font-size="11" fill="#374151" font-weight="400">HOD PDF Download</text><line x1="310" y1="1186" x2="310" y2="1220" stroke="#d1d5db" stroke-width="0.8"/><text x="320" y="1208" font-size="11" fill="#374151" font-weight="400">Login as HOD/CSE/001 -&gt; View dashboard -&gt; Click Download PDF</text><line x1="690" y1="1186" x2="690" y2="1220" stroke="#d1d5db" stroke-width="0.8"/><text x="700" y="1208" font-size="11" fill="#374151" font-weight="400">Browser downloads formatted PDF with all course ratings</text><line x1="1090" y1="1186" x2="1090" y2="1220" stroke="#d1d5db" stroke-width="0.8"/><text x="1100" y="1208" font-size="11" fill="#374151" font-weight="400">PASS</text><line x1="60" y1="1220" x2="1180" y2="1220" stroke="#d1d5db" stroke-width="0.8"/><rect x="60" y="1236" width="1120" height="34" fill="#f9fafb"/><text x="70" y="1258" font-size="11" fill="#374151" font-weight="400">ST-03</text><line x1="130" y1="1236" x2="130" y2="1270" stroke="#d1d5db" stroke-width="0.8"/><text x="140" y="1258" font-size="11" fill="#374151" font-weight="400">HOD Form Builder</text><line x1="310" y1="1236" x2="310" y2="1270" stroke="#d1d5db" stroke-width="0.8"/><text x="320" y="1258" font-size="11" fill="#374151" font-weight="400">HOD adds a custom rating question -&gt; Student submits -&gt; HOD views custom answers</text><line x1="690" y1="1236" x2="690" y2="1270" stroke="#d1d5db" stroke-width="0.8"/><text x="700" y="1258" font-size="11" fill="#374151" font-weight="400">Custom question appears in student form; answer visible in dashboard</text><line x1="1090" y1="1236" x2="1090" y2="1270" stroke="#d1d5db" stroke-width="0.8"/><text x="1100" y="1258" font-size="11" fill="#374151" font-weight="400">PASS</text><line x1="60" y1="1270" x2="1180" y2="1270" stroke="#d1d5db" stroke-width="0.8"/><rect x="60" y="1286" width="1120" height="34" fill="white"/><text x="70" y="1308" font-size="11" fill="#374151" font-weight="400">ST-04</text><line x1="130" y1="1286" x2="130" y2="1320" stroke="#d1d5db" stroke-width="0.8"/><text x="140" y="1308" font-size="11" fill="#374151" font-weight="400">Ref ID Verify</text><line x1="310" y1="1286" x2="310" y2="1320" stroke="#d1d5db" stroke-width="0.8"/><text x="320" y="1308" font-size="11" fill="#374151" font-weight="400">Student notes Reference ID -&gt; Navigates to verify page -&gt; Enters ID</text><line x1="690" y1="1286" x2="690" y2="1320" stroke="#d1d5db" stroke-width="0.8"/><text x="700" y="1308" font-size="11" fill="#374151" font-weight="400">Submission details shown (no student identity revealed)</text><line x1="1090" y1="1286" x2="1090" y2="1320" stroke="#d1d5db" stroke-width="0.8"/><text x="1100" y="1308" font-size="11" fill="#374151" font-weight="400">PASS</text><line x1="60" y1="1320" x2="1180" y2="1320" stroke="#d1d5db" stroke-width="0.8"/><rect x="60" y="1336" width="1120" height="34" fill="#f9fafb"/><text x="70" y="1358" font-size="11" fill="#374151" font-weight="400">ST-05</text><line x1="130" y1="1336" x2="130" y2="1370" stroke="#d1d5db" stroke-width="0.8"/><text x="140" y="1358" font-size="11" fill="#374151" font-weight="400">Window Control</text><line x1="310" y1="1336" x2="310" y2="1370" stroke="#d1d5db" stroke-width="0.8"/><text x="320" y="1358" font-size="11" fill="#374151" font-weight="400">Admin closes active window -&gt; Student attempts to submit</text><line x1="690" y1="1336" x2="690" y2="1370" stroke="#d1d5db" stroke-width="0.8"/><text x="700" y="1358" font-size="11" fill="#374151" font-weight="400">Student receives 'No active window' error message, no record stored</text><line x1="1090" y1="1336" x2="1090" y2="1370" stroke="#d1d5db" stroke-width="0.8"/><text x="1100" y="1358" font-size="11" fill="#374151" font-weight="400">PASS</text><line x1="60" y1="1370" x2="1180" y2="1370" stroke="#d1d5db" stroke-width="0.8"/>
  <rect x="60" y="1102" width="1120" height="300" fill="none" stroke="#d1d5db" stroke-width="1"/>

  <rect x="60" y="1408" width="1120" height="30" rx="4" fill="#0f346015" stroke="#0f346040" stroke-width="1"/>
  <text x="72" y="1428" font-size="13" font-weight="800" fill="#0f3460">6.5  Security Testing</text>
  <rect x="60" y="1448" width="1120" height="34" fill="#0f3460"/><text x="70" y="1470" font-size="13" fill="#ffffff" font-weight="700">Test</text><line x1="360" y1="1448" x2="360" y2="1482" stroke="#d1d5db" stroke-width="0.8"/><text x="370" y="1470" font-size="13" fill="#ffffff" font-weight="700">Method</text><line x1="880" y1="1448" x2="880" y2="1482" stroke="#d1d5db" stroke-width="0.8"/><text x="890" y="1470" font-size="13" fill="#ffffff" font-weight="700">Result</text><line x1="60" y1="1482" x2="1180" y2="1482" stroke="#d1d5db" stroke-width="0.8"/>
  <rect x="60" y="1482" width="1120" height="34" fill="#f9fafb"/><text x="70" y="1504" font-size="11" fill="#374151" font-weight="400">SQL Injection on /api/auth/login</text><line x1="360" y1="1482" x2="360" y2="1516" stroke="#d1d5db" stroke-width="0.8"/><text x="370" y="1504" font-size="11" fill="#374151" font-weight="400">Submit: ' OR '1'='1 as employee_id</text><line x1="880" y1="1482" x2="880" y2="1516" stroke="#d1d5db" stroke-width="0.8"/><text x="890" y="1504" font-size="11" fill="#374151" font-weight="400">Rejected by Zod schema validation; no DB query executed</text><line x1="60" y1="1516" x2="1180" y2="1516" stroke="#d1d5db" stroke-width="0.8"/><rect x="60" y="1518" width="1120" height="34" fill="white"/><text x="70" y="1540" font-size="11" fill="#374151" font-weight="400">Brute Force Login Attempt</text><line x1="360" y1="1518" x2="360" y2="1552" stroke="#d1d5db" stroke-width="0.8"/><text x="370" y="1540" font-size="11" fill="#374151" font-weight="400">Send 15 consecutive POST requests in 5 minutes</text><line x1="880" y1="1518" x2="880" y2="1552" stroke="#d1d5db" stroke-width="0.8"/><text x="890" y="1540" font-size="11" fill="#374151" font-weight="400">Request 11+ blocked with 429 response; IP rate-limited</text><line x1="60" y1="1552" x2="1180" y2="1552" stroke="#d1d5db" stroke-width="0.8"/><rect x="60" y="1554" width="1120" height="34" fill="#f9fafb"/><text x="70" y="1576" font-size="11" fill="#374151" font-weight="400">Cross-Department Feedback Submit</text><line x1="360" y1="1554" x2="360" y2="1588" stroke="#d1d5db" stroke-width="0.8"/><text x="370" y="1576" font-size="11" fill="#374151" font-weight="400">Submit feedback for ECE course while logged in as CSE student</text><line x1="880" y1="1554" x2="880" y2="1588" stroke="#d1d5db" stroke-width="0.8"/><text x="890" y="1576" font-size="11" fill="#374151" font-weight="400">Rejected with 400 integrity violation error</text><line x1="60" y1="1588" x2="1180" y2="1588" stroke="#d1d5db" stroke-width="0.8"/><rect x="60" y="1590" width="1120" height="34" fill="white"/><text x="70" y="1612" font-size="11" fill="#374151" font-weight="400">Session Hijacking Attempt</text><line x1="360" y1="1590" x2="360" y2="1624" stroke="#d1d5db" stroke-width="0.8"/><text x="370" y="1612" font-size="11" fill="#374151" font-weight="400">Modify session cookie in browser DevTools</text><line x1="880" y1="1590" x2="880" y2="1624" stroke="#d1d5db" stroke-width="0.8"/><text x="890" y="1612" font-size="11" fill="#374151" font-weight="400">Server rejects tampered session; 401 returned</text><line x1="60" y1="1624" x2="1180" y2="1624" stroke="#d1d5db" stroke-width="0.8"/><rect x="60" y="1626" width="1120" height="34" fill="#f9fafb"/><text x="70" y="1648" font-size="11" fill="#374151" font-weight="400">Feedback Without Auth</text><line x1="360" y1="1626" x2="360" y2="1660" stroke="#d1d5db" stroke-width="0.8"/><text x="370" y="1648" font-size="11" fill="#374151" font-weight="400">POST /api/feedback with no session cookie</text><line x1="880" y1="1626" x2="880" y2="1660" stroke="#d1d5db" stroke-width="0.8"/><text x="890" y="1648" font-size="11" fill="#374151" font-weight="400">401 Unauthorized; no record stored</text><line x1="60" y1="1660" x2="1180" y2="1660" stroke="#d1d5db" stroke-width="0.8"/><rect x="60" y="1662" width="1120" height="34" fill="white"/><text x="70" y="1684" font-size="11" fill="#374151" font-weight="400">Unauthenticated HOD Report</text><line x1="360" y1="1662" x2="360" y2="1696" stroke="#d1d5db" stroke-width="0.8"/><text x="370" y="1684" font-size="11" fill="#374151" font-weight="400">GET /api/departments/7/hod-report without HOD session</text><line x1="880" y1="1662" x2="880" y2="1696" stroke="#d1d5db" stroke-width="0.8"/><text x="890" y="1684" font-size="11" fill="#374151" font-weight="400">403 Forbidden; no data returned</text><line x1="60" y1="1696" x2="1180" y2="1696" stroke="#d1d5db" stroke-width="0.8"/>
  <rect x="60" y="1448" width="1120" height="252" fill="none" stroke="#d1d5db" stroke-width="1"/>

  <rect x="0" y="1706" width="1240" height="48" fill="#0f3460"/>
  <line x1="0" y1="1706" x2="1240" y2="1706" stroke="#e94560" stroke-width="3"/>
  <text x="60" y="1736" font-size="11" fill="#94a3b8">CUPGS Academic Feedback Manager  |  Software Engineering Project Report</text>
  <text x="1180" y="1736" text-anchor="end" font-size="11" fill="#94a3b8">Page 11 of 16</text>
</svg>