<?xml version="1.0" encoding="UTF-8"?>
<svg xmlns="http://www.w3.org/2000/svg" width="1240" height="1754" viewBox="0 0 1240 1754" font-family="Times New Roman,Georgia,serif">
  <rect width="1240" height="1754" fill="white"/>
  <rect x="0" y="0" width="1240" height="10" fill="#0f3460"/>
  <rect x="0" y="10" width="1240" height="4" fill="#e94560"/>
  <rect x="0" y="14" width="1240" height="56" fill="#0f3460"/>
  <rect x="0" y="70" width="1240" height="4" fill="#e94560"/>
  <text x="60" y="50" font-size="22" font-weight="800" fill="#ffffff">Chapter 7: Cost Estimation</text>

  <rect x="60" y="88" width="1120" height="30" rx="4" fill="#0f346015" stroke="#0f346040" stroke-width="1"/>
  <text x="72" y="108" font-size="13" font-weight="800" fill="#0f3460">7.1  COCOMO (Constructive Cost Model) Estimation</text>
  <text x="80" y="130" font-size="12" fill="#374151" font-weight="normal">The COCOMO II Basic Model is used for effort and schedule estimation. The project is classified as an</text>
<text x="80" y="151" font-size="12" fill="#374151" font-weight="normal">Organic project (small team, well-understood requirements, stable technology). The model formula is:</text>
  <rect x="80" y="170" width="1080" height="60" rx="4" fill="#0f346010" stroke="#0f346030" stroke-width="1"/>
  <text x="620" y="196" text-anchor="middle" font-size="14" font-weight="700" fill="#0f3460">Effort (PM) = a * KLOC^b</text>
  <text x="620" y="220" text-anchor="middle" font-size="12" fill="#374151">For Organic mode: a = 2.4,  b = 1.05.  Schedule (months) = 2.5 * Effort^0.38</text>

  <text x="80" y="248" font-size="13" font-weight="700" fill="#0f3460">Lines of Code Estimation</text>
  <line x1="80" y1="252" x2="280" y2="252" stroke="#e94560" stroke-width="2"/>
  <rect x="60" y="272" width="1120" height="34" fill="#0f3460"/><text x="70" y="294" font-size="13" fill="#ffffff" font-weight="700">Module</text><line x1="320" y1="272" x2="320" y2="306" stroke="#d1d5db" stroke-width="0.8"/><text x="330" y="294" font-size="13" fill="#ffffff" font-weight="700">Language</text><line x1="460" y1="272" x2="460" y2="306" stroke="#d1d5db" stroke-width="0.8"/><text x="470" y="294" font-size="13" fill="#ffffff" font-weight="700">Estimated SLOC</text><line x1="660" y1="272" x2="660" y2="306" stroke="#d1d5db" stroke-width="0.8"/><text x="670" y="294" font-size="13" fill="#ffffff" font-weight="700">Notes</text><line x1="60" y1="306" x2="1180" y2="306" stroke="#d1d5db" stroke-width="0.8"/>
  <rect x="60" y="306" width="1120" height="34" fill="#f9fafb"/><text x="70" y="328" font-size="11" fill="#374151" font-weight="400">Authentication Module</text><line x1="320" y1="306" x2="320" y2="340" stroke="#d1d5db" stroke-width="0.8"/><text x="330" y="328" font-size="11" fill="#374151" font-weight="400">TypeScript</text><line x1="460" y1="306" x2="460" y2="340" stroke="#d1d5db" stroke-width="0.8"/><text x="470" y="328" font-size="11" fill="#374151" font-weight="400">420</text><line x1="660" y1="306" x2="660" y2="340" stroke="#d1d5db" stroke-width="0.8"/><text x="670" y="328" font-size="11" fill="#374151" font-weight="400">Login routes, session middleware, role detection</text><line x1="60" y1="340" x2="1180" y2="340" stroke="#d1d5db" stroke-width="0.8"/><rect x="60" y="338" width="1120" height="34" fill="white"/><text x="70" y="360" font-size="11" fill="#374151" font-weight="400">Feedback Submission Module</text><line x1="320" y1="338" x2="320" y2="372" stroke="#d1d5db" stroke-width="0.8"/><text x="330" y="360" font-size="11" fill="#374151" font-weight="400">TypeScript</text><line x1="460" y1="338" x2="460" y2="372" stroke="#d1d5db" stroke-width="0.8"/><text x="470" y="360" font-size="11" fill="#374151" font-weight="400">680</text><line x1="660" y1="338" x2="660" y2="372" stroke="#d1d5db" stroke-width="0.8"/><text x="670" y="360" font-size="11" fill="#374151" font-weight="400">Form, validation, integrity check, ref ID generation</text><line x1="60" y1="372" x2="1180" y2="372" stroke="#d1d5db" stroke-width="0.8"/><rect x="60" y="370" width="1120" height="34" fill="#f9fafb"/><text x="70" y="392" font-size="11" fill="#374151" font-weight="400">HOD Dashboard + Analytics</text><line x1="320" y1="370" x2="320" y2="404" stroke="#d1d5db" stroke-width="0.8"/><text x="330" y="392" font-size="11" fill="#374151" font-weight="400">TypeScript</text><line x1="460" y1="370" x2="460" y2="404" stroke="#d1d5db" stroke-width="0.8"/><text x="470" y="392" font-size="11" fill="#374151" font-weight="400">750</text><line x1="660" y1="370" x2="660" y2="404" stroke="#d1d5db" stroke-width="0.8"/><text x="670" y="392" font-size="11" fill="#374151" font-weight="400">Dashboard component, sortable table, PDF generator</text><line x1="60" y1="404" x2="1180" y2="404" stroke="#d1d5db" stroke-width="0.8"/><rect x="60" y="402" width="1120" height="34" fill="white"/><text x="70" y="424" font-size="11" fill="#374151" font-weight="400">Admin Management Module</text><line x1="320" y1="402" x2="320" y2="436" stroke="#d1d5db" stroke-width="0.8"/><text x="330" y="424" font-size="11" fill="#374151" font-weight="400">TypeScript</text><line x1="460" y1="402" x2="460" y2="436" stroke="#d1d5db" stroke-width="0.8"/><text x="470" y="424" font-size="11" fill="#374151" font-weight="400">560</text><line x1="660" y1="402" x2="660" y2="436" stroke="#d1d5db" stroke-width="0.8"/><text x="670" y="424" font-size="11" fill="#374151" font-weight="400">Course/faculty/window CRUD, institution analytics</text><line x1="60" y1="436" x2="1180" y2="436" stroke="#d1d5db" stroke-width="0.8"/><rect x="60" y="434" width="1120" height="34" fill="#f9fafb"/><text x="70" y="456" font-size="11" fill="#374151" font-weight="400">Faculty View Module</text><line x1="320" y1="434" x2="320" y2="468" stroke="#d1d5db" stroke-width="0.8"/><text x="330" y="456" font-size="11" fill="#374151" font-weight="400">TypeScript</text><line x1="460" y1="434" x2="460" y2="468" stroke="#d1d5db" stroke-width="0.8"/><text x="470" y="456" font-size="11" fill="#374151" font-weight="400">280</text><line x1="660" y1="434" x2="660" y2="468" stroke="#d1d5db" stroke-width="0.8"/><text x="670" y="456" font-size="11" fill="#374151" font-weight="400">Faculty dashboard, course ratings, comment view</text><line x1="60" y1="468" x2="1180" y2="468" stroke="#d1d5db" stroke-width="0.8"/><rect x="60" y="466" width="1120" height="34" fill="white"/><text x="70" y="488" font-size="11" fill="#374151" font-weight="400">Database Schema (Drizzle)</text><line x1="320" y1="466" x2="320" y2="500" stroke="#d1d5db" stroke-width="0.8"/><text x="330" y="488" font-size="11" fill="#374151" font-weight="400">TypeScript</text><line x1="460" y1="466" x2="460" y2="500" stroke="#d1d5db" stroke-width="0.8"/><text x="470" y="488" font-size="11" fill="#374151" font-weight="400">220</text><line x1="660" y1="466" x2="660" y2="500" stroke="#d1d5db" stroke-width="0.8"/><text x="670" y="488" font-size="11" fill="#374151" font-weight="400">6 table definitions, relations, seed data</text><line x1="60" y1="500" x2="1180" y2="500" stroke="#d1d5db" stroke-width="0.8"/><rect x="60" y="498" width="1120" height="34" fill="#f9fafb"/><text x="70" y="520" font-size="11" fill="#374151" font-weight="400">API Routes (Express)</text><line x1="320" y1="498" x2="320" y2="532" stroke="#d1d5db" stroke-width="0.8"/><text x="330" y="520" font-size="11" fill="#374151" font-weight="400">TypeScript</text><line x1="460" y1="498" x2="460" y2="532" stroke="#d1d5db" stroke-width="0.8"/><text x="470" y="520" font-size="11" fill="#374151" font-weight="400">480</text><line x1="660" y1="498" x2="660" y2="532" stroke="#d1d5db" stroke-width="0.8"/><text x="670" y="520" font-size="11" fill="#374151" font-weight="400">10+ RESTful routes with Zod validation</text><line x1="60" y1="532" x2="1180" y2="532" stroke="#d1d5db" stroke-width="0.8"/><rect x="60" y="530" width="1120" height="34" fill="white"/><text x="70" y="552" font-size="11" fill="#374151" font-weight="400">Shared Components (UI)</text><line x1="320" y1="530" x2="320" y2="564" stroke="#d1d5db" stroke-width="0.8"/><text x="330" y="552" font-size="11" fill="#374151" font-weight="400">TypeScript/TSX</text><line x1="460" y1="530" x2="460" y2="564" stroke="#d1d5db" stroke-width="0.8"/><text x="470" y="552" font-size="11" fill="#374151" font-weight="400">620</text><line x1="660" y1="530" x2="660" y2="564" stroke="#d1d5db" stroke-width="0.8"/><text x="670" y="552" font-size="11" fill="#374151" font-weight="400">DragStarRating, FeedbackForm, PdfReport, etc.</text><line x1="60" y1="564" x2="1180" y2="564" stroke="#d1d5db" stroke-width="0.8"/><rect x="60" y="562" width="1120" height="34" fill="#f9fafb"/><text x="70" y="584" font-size="11" fill="#374151" font-weight="400">Configuration / Infrastructure</text><line x1="320" y1="562" x2="320" y2="596" stroke="#d1d5db" stroke-width="0.8"/><text x="330" y="584" font-size="11" fill="#374151" font-weight="400">YAML/JSON</text><line x1="460" y1="562" x2="460" y2="596" stroke="#d1d5db" stroke-width="0.8"/><text x="470" y="584" font-size="11" fill="#374151" font-weight="400">180</text><line x1="660" y1="562" x2="660" y2="596" stroke="#d1d5db" stroke-width="0.8"/><text x="670" y="584" font-size="11" fill="#374151" font-weight="400">pnpm workspace, Vite config, Tailwind config</text><line x1="60" y1="596" x2="1180" y2="596" stroke="#d1d5db" stroke-width="0.8"/><rect x="60" y="594" width="1120" height="34" fill="white"/><text x="70" y="616" font-size="11" fill="#374151" font-weight="400">Scripts (PDF generation etc.)</text><line x1="320" y1="594" x2="320" y2="628" stroke="#d1d5db" stroke-width="0.8"/><text x="330" y="616" font-size="11" fill="#374151" font-weight="400">MJS</text><line x1="460" y1="594" x2="460" y2="628" stroke="#d1d5db" stroke-width="0.8"/><text x="470" y="616" font-size="11" fill="#374151" font-weight="400">310</text><line x1="660" y1="594" x2="660" y2="628" stroke="#d1d5db" stroke-width="0.8"/><text x="670" y="616" font-size="11" fill="#374151" font-weight="400">SVG/PNG/PDF generation scripts</text><line x1="60" y1="628" x2="1180" y2="628" stroke="#d1d5db" stroke-width="0.8"/>
  <!-- Total row -->
  <rect x="60" y="626" width="1120" height="36" fill="#0f346020"/>
  <text x="80" y="650" font-size="13" font-weight="700" fill="#0f3460">TOTAL SLOC (estimated)</text>
  <text x="600" y="650" text-anchor="middle" font-size="14" font-weight="900" fill="#0f3460">4,500 SLOC  =  4.5 KLOC</text>
  <rect x="60" y="306" width="1120" height="388" fill="none" stroke="#d1d5db" stroke-width="1"/>

  <text x="80" y="714" font-size="13" font-weight="700" fill="#0f3460">COCOMO Calculation</text>
  <line x1="80" y1="718" x2="280" y2="718" stroke="#e94560" stroke-width="2"/>
  <rect x="60" y="738" width="1120" height="180" rx="4" fill="#f9fafb" stroke="#d1d5db" stroke-width="1"/>
  <text x="80" y="762" font-size="12" font-weight="700" fill="#374151">KLOC</text>
    <text x="500" y="762" font-size="12" fill="#6b7280">4.5 KLOC</text>
    <text x="700" y="762" font-size="13" font-weight="700" fill="#0f3460">(4,500 lines of code in thousands)</text><text x="80" y="796" font-size="12" font-weight="700" fill="#374151">Effort (PM) = 2.4 x 4.5^1.05</text>
    <text x="500" y="796" font-size="12" fill="#6b7280">= 2.4 x 4.87</text>
    <text x="700" y="796" font-size="13" font-weight="700" fill="#0f3460">= 11.7 Person-Months</text><text x="80" y="830" font-size="12" font-weight="700" fill="#374151">Schedule (Months) = 2.5 x 11.7^0.38</text>
    <text x="500" y="830" font-size="12" fill="#6b7280">= 2.5 x 2.12</text>
    <text x="700" y="830" font-size="13" font-weight="700" fill="#0f3460">= 5.3 Months</text><text x="80" y="864" font-size="12" font-weight="700" fill="#374151">Team Size = Effort / Schedule</text>
    <text x="500" y="864" font-size="12" fill="#6b7280">= 11.7 / 5.3</text>
    <text x="700" y="864" font-size="13" font-weight="700" fill="#0f3460">= ~2.2 Persons (1 developer + guidance)</text><text x="80" y="898" font-size="12" font-weight="700" fill="#374151">Productivity = SLOC / PM</text>
    <text x="500" y="898" font-size="12" fill="#6b7280">= 4500 / 11.7</text>
    <text x="700" y="898" font-size="13" font-weight="700" fill="#0f3460">= 385 SLOC per Person-Month</text>

  <rect x="60" y="938" width="1120" height="30" rx="4" fill="#0f346015" stroke="#0f346040" stroke-width="1"/>
  <text x="72" y="958" font-size="13" font-weight="800" fill="#0f3460">7.2  Development Cost Estimation</text>
  <rect x="60" y="978" width="1120" height="34" fill="#0f3460"/><text x="70" y="1000" font-size="13" fill="#ffffff" font-weight="700">Cost Component</text><line x1="320" y1="978" x2="320" y2="1012" stroke="#d1d5db" stroke-width="0.8"/><text x="330" y="1000" font-size="13" fill="#ffffff" font-weight="700">Details</text><line x1="620" y1="978" x2="620" y2="1012" stroke="#d1d5db" stroke-width="0.8"/><text x="630" y="1000" font-size="13" fill="#ffffff" font-weight="700">Unit Cost</text><line x1="760" y1="978" x2="760" y2="1012" stroke="#d1d5db" stroke-width="0.8"/><text x="770" y="1000" font-size="13" fill="#ffffff" font-weight="700">Quantity</text><line x1="900" y1="978" x2="900" y2="1012" stroke="#d1d5db" stroke-width="0.8"/><text x="910" y="1000" font-size="13" fill="#ffffff" font-weight="700">Total Cost (INR)</text><line x1="60" y1="1012" x2="1180" y2="1012" stroke="#d1d5db" stroke-width="0.8"/>
  <rect x="60" y="1012" width="1120" height="34" fill="#f9fafb"/><text x="70" y="1034" font-size="11" fill="#374151" font-weight="400">Developer Effort</text><line x1="320" y1="1012" x2="320" y2="1046" stroke="#d1d5db" stroke-width="0.8"/><text x="330" y="1034" font-size="11" fill="#374151" font-weight="400">1 developer x 5.3 months full-time</text><line x1="620" y1="1012" x2="620" y2="1046" stroke="#d1d5db" stroke-width="0.8"/><text x="630" y="1034" font-size="11" fill="#374151" font-weight="400">Rs. 15,000/month</text><line x1="760" y1="1012" x2="760" y2="1046" stroke="#d1d5db" stroke-width="0.8"/><text x="770" y="1034" font-size="11" fill="#374151" font-weight="400">5.3 PM</text><line x1="900" y1="1012" x2="900" y2="1046" stroke="#d1d5db" stroke-width="0.8"/><text x="910" y="1034" font-size="11" fill="#374151" font-weight="400">Rs. 79,500</text><line x1="60" y1="1046" x2="1180" y2="1046" stroke="#d1d5db" stroke-width="0.8"/><rect x="60" y="1048" width="1120" height="34" fill="white"/><text x="70" y="1070" font-size="11" fill="#374151" font-weight="400">Project Guide / Mentor</text><line x1="320" y1="1048" x2="320" y2="1082" stroke="#d1d5db" stroke-width="0.8"/><text x="330" y="1070" font-size="11" fill="#374151" font-weight="400">Academic supervision (100 hrs)</text><line x1="620" y1="1048" x2="620" y2="1082" stroke="#d1d5db" stroke-width="0.8"/><text x="630" y="1070" font-size="11" fill="#374151" font-weight="400">Rs. 500/hr</text><line x1="760" y1="1048" x2="760" y2="1082" stroke="#d1d5db" stroke-width="0.8"/><text x="770" y="1070" font-size="11" fill="#374151" font-weight="400">100 hrs</text><line x1="900" y1="1048" x2="900" y2="1082" stroke="#d1d5db" stroke-width="0.8"/><text x="910" y="1070" font-size="11" fill="#374151" font-weight="400">Rs. 50,000</text><line x1="60" y1="1082" x2="1180" y2="1082" stroke="#d1d5db" stroke-width="0.8"/><rect x="60" y="1084" width="1120" height="34" fill="#f9fafb"/><text x="70" y="1106" font-size="11" fill="#374151" font-weight="400">System Analysis</text><line x1="320" y1="1084" x2="320" y2="1118" stroke="#d1d5db" stroke-width="0.8"/><text x="330" y="1106" font-size="11" fill="#374151" font-weight="400">Requirements gathering and DFD/ER</text><line x1="620" y1="1084" x2="620" y2="1118" stroke="#d1d5db" stroke-width="0.8"/><text x="630" y="1106" font-size="11" fill="#374151" font-weight="400">Rs. 10,000</text><line x1="760" y1="1084" x2="760" y2="1118" stroke="#d1d5db" stroke-width="0.8"/><text x="770" y="1106" font-size="11" fill="#374151" font-weight="400">1 phase</text><line x1="900" y1="1084" x2="900" y2="1118" stroke="#d1d5db" stroke-width="0.8"/><text x="910" y="1106" font-size="11" fill="#374151" font-weight="400">Rs. 10,000</text><line x1="60" y1="1118" x2="1180" y2="1118" stroke="#d1d5db" stroke-width="0.8"/><rect x="60" y="1120" width="1120" height="34" fill="white"/><text x="70" y="1142" font-size="11" fill="#374151" font-weight="400">UI/UX Design</text><line x1="320" y1="1120" x2="320" y2="1154" stroke="#d1d5db" stroke-width="0.8"/><text x="330" y="1142" font-size="11" fill="#374151" font-weight="400">Wireframing, component design</text><line x1="620" y1="1120" x2="620" y2="1154" stroke="#d1d5db" stroke-width="0.8"/><text x="630" y="1142" font-size="11" fill="#374151" font-weight="400">Rs. 8,000</text><line x1="760" y1="1120" x2="760" y2="1154" stroke="#d1d5db" stroke-width="0.8"/><text x="770" y="1142" font-size="11" fill="#374151" font-weight="400">1 phase</text><line x1="900" y1="1120" x2="900" y2="1154" stroke="#d1d5db" stroke-width="0.8"/><text x="910" y="1142" font-size="11" fill="#374151" font-weight="400">Rs. 8,000</text><line x1="60" y1="1154" x2="1180" y2="1154" stroke="#d1d5db" stroke-width="0.8"/><rect x="60" y="1156" width="1120" height="34" fill="#f9fafb"/><text x="70" y="1178" font-size="11" fill="#374151" font-weight="400">Testing and QA</text><line x1="320" y1="1156" x2="320" y2="1190" stroke="#d1d5db" stroke-width="0.8"/><text x="330" y="1178" font-size="11" fill="#374151" font-weight="400">Unit, integration, UAT testing</text><line x1="620" y1="1156" x2="620" y2="1190" stroke="#d1d5db" stroke-width="0.8"/><text x="630" y="1178" font-size="11" fill="#374151" font-weight="400">Rs. 5,000</text><line x1="760" y1="1156" x2="760" y2="1190" stroke="#d1d5db" stroke-width="0.8"/><text x="770" y="1178" font-size="11" fill="#374151" font-weight="400">1 phase</text><line x1="900" y1="1156" x2="900" y2="1190" stroke="#d1d5db" stroke-width="0.8"/><text x="910" y="1178" font-size="11" fill="#374151" font-weight="400">Rs. 5,000</text><line x1="60" y1="1190" x2="1180" y2="1190" stroke="#d1d5db" stroke-width="0.8"/><rect x="60" y="1192" width="1120" height="34" fill="white"/><text x="70" y="1214" font-size="11" fill="#374151" font-weight="400">Documentation</text><line x1="320" y1="1192" x2="320" y2="1226" stroke="#d1d5db" stroke-width="0.8"/><text x="330" y="1214" font-size="11" fill="#374151" font-weight="400">SRS, report, user guide</text><line x1="620" y1="1192" x2="620" y2="1226" stroke="#d1d5db" stroke-width="0.8"/><text x="630" y="1214" font-size="11" fill="#374151" font-weight="400">Rs. 3,000</text><line x1="760" y1="1192" x2="760" y2="1226" stroke="#d1d5db" stroke-width="0.8"/><text x="770" y="1214" font-size="11" fill="#374151" font-weight="400">1 phase</text><line x1="900" y1="1192" x2="900" y2="1226" stroke="#d1d5db" stroke-width="0.8"/><text x="910" y="1214" font-size="11" fill="#374151" font-weight="400">Rs. 3,000</text><line x1="60" y1="1226" x2="1180" y2="1226" stroke="#d1d5db" stroke-width="0.8"/>
  <rect x="60" y="978" width="1120" height="252" fill="none" stroke="#d1d5db" stroke-width="1"/>
  <rect x="60" y="1230" width="1120" height="36" fill="#0f346020"/>
  <text x="80" y="1254" font-size="13" font-weight="700" fill="#0f3460">Total Development Cost</text>
  <text x="1080" y="1254" text-anchor="end" font-size="14" font-weight="900" fill="#0f3460">Rs. 1,55,500</text>

  <rect x="60" y="1254" width="1120" height="30" rx="4" fill="#0f346015" stroke="#0f346040" stroke-width="1"/>
  <text x="72" y="1274" font-size="13" font-weight="800" fill="#0f3460">7.3  Hardware and Software Infrastructure Cost</text>
  <rect x="60" y="1294" width="1120" height="34" fill="#0f3460"/><text x="70" y="1316" font-size="13" fill="#ffffff" font-weight="700">Item</text><line x1="380" y1="1294" x2="380" y2="1328" stroke="#d1d5db" stroke-width="0.8"/><text x="390" y="1316" font-size="13" fill="#ffffff" font-weight="700">Type</text><line x1="580" y1="1294" x2="580" y2="1328" stroke="#d1d5db" stroke-width="0.8"/><text x="590" y="1316" font-size="13" fill="#ffffff" font-weight="700">Cost / Period</text><line x1="840" y1="1294" x2="840" y2="1328" stroke="#d1d5db" stroke-width="0.8"/><text x="850" y="1316" font-size="13" fill="#ffffff" font-weight="700">Annual Cost (INR)</text><line x1="60" y1="1328" x2="1180" y2="1328" stroke="#d1d5db" stroke-width="0.8"/>
  <rect x="60" y="1328" width="1120" height="34" fill="#f9fafb"/><text x="70" y="1350" font-size="11" fill="#374151" font-weight="400">Development Laptop</text><line x1="380" y1="1328" x2="380" y2="1362" stroke="#d1d5db" stroke-width="0.8"/><text x="390" y="1350" font-size="11" fill="#374151" font-weight="400">Hardware (One-time)</text><line x1="580" y1="1328" x2="580" y2="1362" stroke="#d1d5db" stroke-width="0.8"/><text x="590" y="1350" font-size="11" fill="#374151" font-weight="400">Rs. 55,000 (amortized)</text><line x1="840" y1="1328" x2="840" y2="1362" stroke="#d1d5db" stroke-width="0.8"/><text x="850" y="1350" font-size="11" fill="#374151" font-weight="400">Rs. 11,000/yr (5yr life)</text><line x1="60" y1="1362" x2="1180" y2="1362" stroke="#d1d5db" stroke-width="0.8"/><rect x="60" y="1362" width="1120" height="34" fill="white"/><text x="70" y="1384" font-size="11" fill="#374151" font-weight="400">Cloud Hosting (Replit Core)</text><line x1="380" y1="1362" x2="380" y2="1396" stroke="#d1d5db" stroke-width="0.8"/><text x="390" y="1384" font-size="11" fill="#374151" font-weight="400">Software Subscription</text><line x1="580" y1="1362" x2="580" y2="1396" stroke="#d1d5db" stroke-width="0.8"/><text x="590" y="1384" font-size="11" fill="#374151" font-weight="400">Rs. 2,500/month</text><line x1="840" y1="1362" x2="840" y2="1396" stroke="#d1d5db" stroke-width="0.8"/><text x="850" y="1384" font-size="11" fill="#374151" font-weight="400">Rs. 30,000/yr</text><line x1="60" y1="1396" x2="1180" y2="1396" stroke="#d1d5db" stroke-width="0.8"/><rect x="60" y="1396" width="1120" height="34" fill="#f9fafb"/><text x="70" y="1418" font-size="11" fill="#374151" font-weight="400">PostgreSQL Database Hosting</text><line x1="380" y1="1396" x2="380" y2="1430" stroke="#d1d5db" stroke-width="0.8"/><text x="390" y="1418" font-size="11" fill="#374151" font-weight="400">Included in platform</text><line x1="580" y1="1396" x2="580" y2="1430" stroke="#d1d5db" stroke-width="0.8"/><text x="590" y="1418" font-size="11" fill="#374151" font-weight="400">Rs. 0</text><line x1="840" y1="1396" x2="840" y2="1430" stroke="#d1d5db" stroke-width="0.8"/><text x="850" y="1418" font-size="11" fill="#374151" font-weight="400">Rs. 0</text><line x1="60" y1="1430" x2="1180" y2="1430" stroke="#d1d5db" stroke-width="0.8"/><rect x="60" y="1430" width="1120" height="34" fill="white"/><text x="70" y="1452" font-size="11" fill="#374151" font-weight="400">Domain Name</text><line x1="380" y1="1430" x2="380" y2="1464" stroke="#d1d5db" stroke-width="0.8"/><text x="390" y="1452" font-size="11" fill="#374151" font-weight="400">Annual subscription</text><line x1="580" y1="1430" x2="580" y2="1464" stroke="#d1d5db" stroke-width="0.8"/><text x="590" y="1452" font-size="11" fill="#374151" font-weight="400">Rs. 800/yr</text><line x1="840" y1="1430" x2="840" y2="1464" stroke="#d1d5db" stroke-width="0.8"/><text x="850" y="1452" font-size="11" fill="#374151" font-weight="400">Rs. 800/yr</text><line x1="60" y1="1464" x2="1180" y2="1464" stroke="#d1d5db" stroke-width="0.8"/><rect x="60" y="1464" width="1120" height="34" fill="#f9fafb"/><text x="70" y="1486" font-size="11" fill="#374151" font-weight="400">SSL Certificate</text><line x1="380" y1="1464" x2="380" y2="1498" stroke="#d1d5db" stroke-width="0.8"/><text x="390" y="1486" font-size="11" fill="#374151" font-weight="400">Included in platform</text><line x1="580" y1="1464" x2="580" y2="1498" stroke="#d1d5db" stroke-width="0.8"/><text x="590" y="1486" font-size="11" fill="#374151" font-weight="400">Rs. 0</text><line x1="840" y1="1464" x2="840" y2="1498" stroke="#d1d5db" stroke-width="0.8"/><text x="850" y="1486" font-size="11" fill="#374151" font-weight="400">Rs. 0</text><line x1="60" y1="1498" x2="1180" y2="1498" stroke="#d1d5db" stroke-width="0.8"/><rect x="60" y="1498" width="1120" height="34" fill="white"/><text x="70" y="1520" font-size="11" fill="#374151" font-weight="400">Open Source Tools (React/Node)</text><line x1="380" y1="1498" x2="380" y2="1532" stroke="#d1d5db" stroke-width="0.8"/><text x="390" y="1520" font-size="11" fill="#374151" font-weight="400">Free</text><line x1="580" y1="1498" x2="580" y2="1532" stroke="#d1d5db" stroke-width="0.8"/><text x="590" y="1520" font-size="11" fill="#374151" font-weight="400">Rs. 0</text><line x1="840" y1="1498" x2="840" y2="1532" stroke="#d1d5db" stroke-width="0.8"/><text x="850" y="1520" font-size="11" fill="#374151" font-weight="400">Rs. 0</text><line x1="60" y1="1532" x2="1180" y2="1532" stroke="#d1d5db" stroke-width="0.8"/>
  <rect x="60" y="1294" width="1120" height="238" fill="none" stroke="#d1d5db" stroke-width="1"/>
  <rect x="60" y="1532" width="1120" height="36" fill="#0f346020"/>
  <text x="80" y="1556" font-size="13" font-weight="700" fill="#0f3460">Annual Infrastructure Cost</text>
  <text x="1080" y="1556" text-anchor="end" font-size="14" font-weight="900" fill="#0f3460">Rs. 41,800/year</text>

  <rect x="60" y="1572" width="1120" height="30" rx="4" fill="#0f346015" stroke="#0f346040" stroke-width="1"/>
  <text x="72" y="1592" font-size="13" font-weight="800" fill="#0f3460">7.4  Total Project Cost Summary</text>
  <rect x="60" y="1612" width="1120" height="100" rx="6" fill="#0f346008" stroke="#0f346030" stroke-width="1.5"/>
  <text x="80" y="1642" font-size="13" fill="#374151">One-Time Development Cost:</text>
  <text x="800" y="1642" font-size="14" font-weight="700" fill="#0f3460">Rs. 1,55,500</text>
  <text x="80" y="1670" font-size="13" fill="#374151">Annual Infrastructure and Maintenance Cost:</text>
  <text x="800" y="1670" font-size="14" font-weight="700" fill="#0f3460">Rs. 41,800 / year</text>
  <line x1="80" y1="1684" x2="1160" y2="1684" stroke="#d1d5db" stroke-width="1"/>
  <text x="80" y="1702" font-size="14" font-weight="700" fill="#0f3460">Total Cost (Year 1):</text>
  <text x="800" y="1702" font-size="16" font-weight="900" fill="#e94560">Rs. 1,97,300</text>

  <rect x="0" y="1706" width="1240" height="48" fill="#0f3460"/>
  <line x1="0" y1="1706" x2="1240" y2="1706" stroke="#e94560" stroke-width="3"/>
  <text x="60" y="1736" font-size="11" fill="#94a3b8">CUPGS Academic Feedback Manager  |  Software Engineering Project Report</text>
  <text x="1180" y="1736" text-anchor="end" font-size="11" fill="#94a3b8">Page 12 of 16</text>
</svg>