<?xml version="1.0" encoding="UTF-8"?>
<svg xmlns="http://www.w3.org/2000/svg" width="1400" height="900" viewBox="0 0 1400 900" font-family="Arial,Helvetica,sans-serif">
  <!-- Background -->
  <defs>
    <linearGradient id="bg0" x1="0" y1="0" x2="0" y2="1">
      <stop offset="0%" stop-color="#f0f4ff"/>
      <stop offset="100%" stop-color="#e8eef8"/>
    </linearGradient>
    <marker id="arr" markerWidth="12" markerHeight="9" refX="12" refY="4.5" orient="auto">
      <polygon points="0 0,12 4.5,0 9" fill="#4b5563"/>
    </marker>
    <filter id="sh">
      <feDropShadow dx="0" dy="2" stdDeviation="3" flood-color="#00000022"/>
    </filter>
  </defs>
  <rect width="1400" height="900" fill="url(#bg0)"/>

  <!-- Header Bar -->
  <rect x="0" y="0" width="1400" height="56" fill="#1e3a8a" rx="0"/>
  <text x="700" y="22" text-anchor="middle" font-size="18" font-weight="800" fill="white">DFD Level 0 — Context Diagram</text>
  <text x="700" y="42" text-anchor="middle" font-size="12" fill="#93c5fd">CUPGS Academic Feedback Management System · Yourdon-Coad Notation</text>
  <text x="1380" y="36" text-anchor="end" font-size="10" fill="#60a5fa">Page 1 of 4</text>

  <!-- ─── External Entities ─── -->
  <!-- STUDENT (top) -->
  <rect x="530" y="100" width="200" height="70" rx="6" fill="#1e3a8a" stroke="#3b82f6" stroke-width="2" filter="url(#sh)"/>
  <text x="630" y="128" text-anchor="middle" font-size="15" font-weight="800" fill="white">STUDENT</text>
  <text x="630" y="148" text-anchor="middle" font-size="11" fill="#93c5fd">External Entity</text>

  <!-- HOD (right) -->
  <rect x="1150" y="370" width="180" height="70" rx="6" fill="#065f46" stroke="#059669" stroke-width="2" filter="url(#sh)"/>
  <text x="1240" y="398" text-anchor="middle" font-size="15" font-weight="800" fill="white">HOD</text>
  <text x="1240" y="418" text-anchor="middle" font-size="11" fill="#6ee7b7">External Entity</text>

  <!-- ADMIN (bottom) -->
  <rect x="530" y="720" width="200" height="70" rx="6" fill="#7c2d12" stroke="#ea580c" stroke-width="2" filter="url(#sh)"/>
  <text x="630" y="748" text-anchor="middle" font-size="15" font-weight="800" fill="white">ADMIN</text>
  <text x="630" y="768" text-anchor="middle" font-size="11" fill="#fdba74">External Entity</text>

  <!-- FACULTY (left) -->
  <rect x="70" y="370" width="180" height="70" rx="6" fill="#4c1d95" stroke="#7c3aed" stroke-width="2" filter="url(#sh)"/>
  <text x="160" y="398" text-anchor="middle" font-size="15" font-weight="800" fill="white">FACULTY</text>
  <text x="160" y="418" text-anchor="middle" font-size="11" fill="#c4b5fd">External Entity</text>

  <!-- ─── Central Process ─── -->
  <circle cx="700" cy="430" r="150" fill="#14532d" stroke="#16a34a" stroke-width="3" filter="url(#sh)"/>
  <circle cx="700" cy="430" r="145" fill="none" stroke="#4ade8044" stroke-width="1"/>
  <text x="700" y="408" text-anchor="middle" font-size="16" font-weight="900" fill="#86efac">Process 0.</text>
  <text x="700" y="432" text-anchor="middle" font-size="15" font-weight="700" fill="white">CUPGS Feedback</text>
  <text x="700" y="454" text-anchor="middle" font-size="14" fill="#bbf7d0">Management System</text>

  <!-- ─── Flow Arrows ─── -->
  <!-- Student → System (Feedback) -->
  <line x1="640" y1="170" x2="640" y2="280" stroke="#4b5563" stroke-width="2" marker-end="url(#arr)"/>
  <rect x="452" y="208" width="180" height="22" rx="4" fill="white" stroke="#93c5fd" stroke-width="1"/>
  <text x="542" y="223" text-anchor="middle" font-size="11" fill="#1e3a8a" font-weight="600">Feedback Submission</text>

  <!-- System → Student (Confirm) -->
  <line x1="670" y1="280" x2="670" y2="170" stroke="#4b5563" stroke-width="2" marker-end="url(#arr)"/>
  <rect x="676" y="208" width="170" height="22" rx="4" fill="white" stroke="#93c5fd" stroke-width="1"/>
  <text x="761" y="223" text-anchor="middle" font-size="11" fill="#1e3a8a" font-weight="600">Submission Confirm</text>

  <!-- HOD → System (Config) -->
  <line x1="1150" y1="390" x2="850" y2="390" stroke="#4b5563" stroke-width="2" marker-end="url(#arr)"/>
  <rect x="958" y="368" width="176" height="22" rx="4" fill="white" stroke="#6ee7b7" stroke-width="1"/>
  <text x="1046" y="383" text-anchor="middle" font-size="11" fill="#065f46" font-weight="600">Form Template Config</text>

  <!-- System → HOD (Analytics) -->
  <line x1="850" y1="420" x2="1150" y2="420" stroke="#4b5563" stroke-width="2" marker-end="url(#arr)"/>
  <rect x="960" y="422" width="172" height="22" rx="4" fill="white" stroke="#6ee7b7" stroke-width="1"/>
  <text x="1046" y="437" text-anchor="middle" font-size="11" fill="#065f46" font-weight="600">Analytics Report / PDF</text>

  <!-- Admin → System (Config) -->
  <line x1="640" y1="720" x2="640" y2="580" stroke="#4b5563" stroke-width="2" marker-end="url(#arr)"/>
  <rect x="452" y="636" width="180" height="22" rx="4" fill="white" stroke="#fdba74" stroke-width="1"/>
  <text x="542" y="651" text-anchor="middle" font-size="11" fill="#7c2d12" font-weight="600">Dept / Course Config</text>

  <!-- System → Admin (Dashboard) -->
  <line x1="670" y1="580" x2="670" y2="720" stroke="#4b5563" stroke-width="2" marker-end="url(#arr)"/>
  <rect x="678" y="636" width="178" height="22" rx="4" fill="white" stroke="#fdba74" stroke-width="1"/>
  <text x="767" y="651" text-anchor="middle" font-size="11" fill="#7c2d12" font-weight="600">Institution Dashboard</text>

  <!-- Faculty → System (Request) -->
  <line x1="250" y1="390" x2="550" y2="400" stroke="#4b5563" stroke-width="2" marker-end="url(#arr)"/>
  <rect x="270" y="370" width="166" height="22" rx="4" fill="white" stroke="#c4b5fd" stroke-width="1"/>
  <text x="353" y="385" text-anchor="middle" font-size="11" fill="#4c1d95" font-weight="600">View Request / Login</text>

  <!-- System → Faculty (Analytics) -->
  <line x1="550" y1="425" x2="250" y2="432" stroke="#4b5563" stroke-width="2" marker-end="url(#arr)"/>
  <rect x="270" y="432" width="176" height="22" rx="4" fill="white" stroke="#c4b5fd" stroke-width="1"/>
  <text x="358" y="447" text-anchor="middle" font-size="11" fill="#4c1d95" font-weight="600">Performance Analytics</text>

  <!-- ─── Legend ─── -->
  <rect x="20" y="820" width="420" height="66" rx="8" fill="white" stroke="#d1d5db" stroke-width="1.5" filter="url(#sh)"/>
  <text x="34" y="840" font-size="11" font-weight="700" fill="#1e293b">LEGEND — Yourdon-Coad Notation</text>
  <rect x="34" y="848" width="20" height="14" rx="3" fill="#1e3a8a"/>
  <text x="60" y="859" font-size="10" fill="#374151">External Entity (Rectangle)</text>
  <circle cx="185" cy="855" r="12" fill="#14532d" stroke="#16a34a" stroke-width="1.5"/>
  <text x="202" y="859" font-size="10" fill="#374151">Process (Circle)</text>
  <line x1="290" y1="855" x2="334" y2="855" stroke="#4b5563" stroke-width="2" marker-end="url(#arr)"/>
  <text x="340" y="859" font-size="10" fill="#374151">Data Flow</text>
  <text x="34" y="876" font-size="10" fill="#6b7280">Arrows show direction of data movement between entities and the central system process.</text>
</svg>