<?xml version="1.0" encoding="UTF-8"?>
<svg xmlns="http://www.w3.org/2000/svg" width="1100" height="620" viewBox="0 0 1100 620" font-family="Arial,sans-serif">
  <rect width="1100" height="620" fill="white"/>
  <!-- Title -->
  <rect x="0" y="0" width="1100" height="42" fill="#1e3a8a"/>
  <text x="550" y="26" text-anchor="middle" font-size="15" font-weight="800" fill="white">DFD Level 0 — Context Diagram · CUPGS Academic Feedback Management System (Yourdon-Coad)</text>

  <!-- Entities -->
  <rect x="415" y="70" width="270" height="58" rx="5" fill="#1e3a8a" stroke="#3b82f6" stroke-width="2"/>
  <text x="550" y="94" text-anchor="middle" font-size="13" font-weight="700" fill="white">STUDENT</text>
  <text x="550" y="112" text-anchor="middle" font-size="10" fill="#93c5fd">External Entity</text>

  <rect x="900" y="210" width="165" height="58" rx="5" fill="#1e3a8a" stroke="#3b82f6" stroke-width="2"/>
  <text x="982" y="234" text-anchor="middle" font-size="13" font-weight="700" fill="white">HOD</text>
  <text x="982" y="252" text-anchor="middle" font-size="10" fill="#93c5fd">External Entity</text>

  <rect x="415" y="490" width="270" height="58" rx="5" fill="#1e3a8a" stroke="#3b82f6" stroke-width="2"/>
  <text x="550" y="514" text-anchor="middle" font-size="13" font-weight="700" fill="white">ADMIN</text>
  <text x="550" y="532" text-anchor="middle" font-size="10" fill="#93c5fd">External Entity</text>

  <rect x="30" y="210" width="165" height="58" rx="5" fill="#1e3a8a" stroke="#3b82f6" stroke-width="2"/>
  <text x="112" y="234" text-anchor="middle" font-size="13" font-weight="700" fill="white">FACULTY</text>
  <text x="112" y="252" text-anchor="middle" font-size="10" fill="#93c5fd">External Entity</text>

  <!-- Central Process -->
  <circle cx="550" cy="290" r="118" fill="#14532d" stroke="#16a34a" stroke-width="2.5"/>
  <text x="550" y="272" text-anchor="middle" font-size="15" font-weight="900" fill="#86efac">0.</text>
  <text x="550" y="292" text-anchor="middle" font-size="13" font-weight="700" fill="white">CUPGS Feedback</text>
  <text x="550" y="310" text-anchor="middle" font-size="13" fill="#a7f3d0">Management System</text>

  <!-- Arrows & Labels -->
  <defs>
    <marker id="arr" markerWidth="10" markerHeight="8" refX="10" refY="4" orient="auto">
      <polygon points="0 0,10 4,0 8" fill="#475569"/>
    </marker>
  </defs>

  <!-- Student -> System -->
  <line x1="528" y1="128" x2="528" y2="172" stroke="#475569" stroke-width="1.8" marker-end="url(#arr)"/>
  <rect x="352" y="133" width="172" height="18" rx="3" fill="#dbeafe" stroke="#93c5fd" stroke-width="0.8"/>
  <text x="438" y="143" text-anchor="middle" font-size="10" fill="#1e293b">Feedback Submission</text>

  <!-- System -> Student -->
  <line x1="572" y1="172" x2="572" y2="128" stroke="#475569" stroke-width="1.8" marker-end="url(#arr)"/>
  <rect x="580" y="133" width="170" height="18" rx="3" fill="#dbeafe" stroke="#93c5fd" stroke-width="0.8"/>
  <text x="665" y="143" text-anchor="middle" font-size="10" fill="#1e293b">Submission Confirmation</text>

  <!-- HOD -> System -->
  <line x1="900" y1="234" x2="668" y2="262" stroke="#475569" stroke-width="1.8" marker-end="url(#arr)"/>
  <rect x="762" y="232" width="152" height="18" rx="3" fill="#dbeafe" stroke="#93c5fd" stroke-width="0.8"/>
  <text x="838" y="242" text-anchor="middle" font-size="10" fill="#1e293b">Form Template Config</text>

  <!-- System -> HOD -->
  <line x1="668" y1="278" x2="900" y2="278" stroke="#475569" stroke-width="1.8" marker-end="url(#arr)"/>
  <rect x="758" y="268" width="154" height="18" rx="3" fill="#dbeafe" stroke="#93c5fd" stroke-width="0.8"/>
  <text x="835" y="278" text-anchor="middle" font-size="10" fill="#1e293b">Analytics Report / PDF</text>

  <!-- Admin -> System -->
  <line x1="528" y1="490" x2="528" y2="408" stroke="#475569" stroke-width="1.8" marker-end="url(#arr)"/>
  <rect x="352" y="432" width="160" height="18" rx="3" fill="#dbeafe" stroke="#93c5fd" stroke-width="0.8"/>
  <text x="432" y="442" text-anchor="middle" font-size="10" fill="#1e293b">Dept / Course Config</text>

  <!-- System -> Admin -->
  <line x1="572" y1="408" x2="572" y2="490" stroke="#475569" stroke-width="1.8" marker-end="url(#arr)"/>
  <rect x="580" y="432" width="168" height="18" rx="3" fill="#dbeafe" stroke="#93c5fd" stroke-width="0.8"/>
  <text x="664" y="442" text-anchor="middle" font-size="10" fill="#1e293b">Institution Dashboard</text>

  <!-- Faculty -> System -->
  <line x1="195" y1="244" x2="432" y2="274" stroke="#475569" stroke-width="1.8" marker-end="url(#arr)"/>
  <rect x="222" y="237" width="156" height="18" rx="3" fill="#dbeafe" stroke="#93c5fd" stroke-width="0.8"/>
  <text x="300" y="247" text-anchor="middle" font-size="10" fill="#1e293b">View Request / Login</text>

  <!-- System -> Faculty -->
  <line x1="432" y1="290" x2="195" y2="290" stroke="#475569" stroke-width="1.8" marker-end="url(#arr)"/>
  <rect x="222" y="281" width="162" height="18" rx="3" fill="#dbeafe" stroke="#93c5fd" stroke-width="0.8"/>
  <text x="303" y="291" text-anchor="middle" font-size="10" fill="#1e293b">Performance Analytics</text>

  <!-- Legend -->
  <rect x="16" y="570" width="340" height="40" rx="5" fill="#f8fafc" stroke="#e2e8f0" stroke-width="1"/>
  <text x="28" y="584" font-size="9" font-weight="700" fill="#1e293b">LEGEND (Yourdon-Coad Notation)</text>
  <rect x="28" y="590" width="20" height="13" rx="2" fill="#1e3a8a"/>
  <text x="54" y="601" font-size="9" fill="#1e293b">External Entity (Rectangle)</text>
  <circle cx="180" cy="596" r="9" fill="#14532d" stroke="#16a34a" stroke-width="1"/>
  <text x="194" y="600" font-size="9" fill="#1e293b">Process (Circle)</text>
</svg>