<?xml version="1.0" encoding="UTF-8"?>
<svg xmlns="http://www.w3.org/2000/svg" width="1800" height="1100" viewBox="0 0 1800 1100" font-family="Arial,Helvetica,sans-serif">
  <defs>
    <linearGradient id="bg3" x1="0" y1="0" x2="0" y2="1">
      <stop offset="0%" stop-color="#eef2f7"/>
      <stop offset="100%" stop-color="#dde6f0"/>
    </linearGradient>
    <marker id="rel" markerWidth="10" markerHeight="8" refX="0" refY="4" orient="auto">
      <line x1="0" y1="4" x2="10" y2="0" stroke="#64748b" stroke-width="1.2"/>
      <line x1="0" y1="4" x2="10" y2="8" stroke="#64748b" stroke-width="1.2"/>
    </marker>
    <filter id="sh3"><feDropShadow dx="0" dy="3" stdDeviation="4" flood-color="#00000025"/></filter>
  </defs>
  <rect width="1800" height="1100" fill="url(#bg3)"/>

  <!-- Header -->
  <rect x="0" y="0" width="1800" height="56" fill="#1e3a5f"/>
  <text x="900" y="22" text-anchor="middle" font-size="18" font-weight="800" fill="white">CUPGS FMS · ER Diagram · All Entities — Relationship Map</text>
  <text x="900" y="42" text-anchor="middle" font-size="11" fill="#93c5fd">All 6 database entities with primary keys and foreign key links · Crow's Foot / Chen Notation</text>
  <text x="1780" y="26" text-anchor="end" font-size="10" fill="#93c5fd">Page 4 of 4</text>
  <text x="1780" y="42" text-anchor="end" font-size="10" fill="#93c5fd">26/3/2025</text>

  <!-- ════════════════════════════════════════════
       ENTITY HELPER MACRO — repeated per entity
       Each entity: header (colored), PK row (orange bg), FK rows (green badge), attr rows
       ════════════════════════════════════════════ -->

  <!-- ── ENTITY: DEPARTMENTS (center-top) ── -->
  <!-- Header -->
  <rect x="680" y="90" width="260" height="32" rx="5" fill="#1a7a6e"/>
  <rect x="680" y="116" width="260" height="8" fill="#1a7a6e"/>
  <text x="810" y="111" text-anchor="middle" font-size="13" font-weight="800" fill="white">departments</text>
  <!-- Body -->
  <rect x="680" y="122" width="260" height="196" rx="0" fill="white" stroke="#1a7a6e" stroke-width="1.5"/>
  <rect x="680" y="90" width="260" height="32" rx="5" fill="#1a7a6e"/>
  <!-- PK row -->
  <rect x="680" y="122" width="260" height="24" fill="#fff7ed"/>
  <rect x="684" y="126" width="28" height="16" rx="3" fill="#ea580c"/>
  <text x="698" y="138" text-anchor="middle" font-size="9" font-weight="800" fill="white">PK</text>
  <text x="720" y="138" font-size="10" fill="#1e293b">id</text>
  <text x="930" y="138" text-anchor="end" font-size="9" fill="#6b7280">serial</text>
  <!-- Fields -->
  <line x1="682" y1="146" x2="938" y2="146" stroke="#e5e7eb" stroke-width="0.8"/>
  <text x="694" y="160" font-size="10" fill="#1e293b">code</text><text x="934" y="160" text-anchor="end" font-size="9" fill="#6b7280">varchar · UNIQUE</text>
  <line x1="682" y1="165" x2="938" y2="165" stroke="#e5e7eb" stroke-width="0.8"/>
  <text x="694" y="180" font-size="10" fill="#1e293b">name</text><text x="934" y="180" text-anchor="end" font-size="9" fill="#6b7280">varchar</text>
  <line x1="682" y1="184" x2="938" y2="184" stroke="#e5e7eb" stroke-width="0.8"/>
  <text x="694" y="199" font-size="10" fill="#1e293b">hod_name</text><text x="934" y="199" text-anchor="end" font-size="9" fill="#6b7280">varchar</text>
  <line x1="682" y1="203" x2="938" y2="203" stroke="#e5e7eb" stroke-width="0.8"/>
  <text x="694" y="218" font-size="10" fill="#1e293b">hod_employee_id</text><text x="934" y="218" text-anchor="end" font-size="9" fill="#6b7280">varchar</text>
  <line x1="682" y1="222" x2="938" y2="222" stroke="#e5e7eb" stroke-width="0.8"/>
  <text x="694" y="237" font-size="10" fill="#1e293b">created_at</text><text x="934" y="237" text-anchor="end" font-size="9" fill="#6b7280">timestamptz</text>
  <line x1="682" y1="241" x2="938" y2="241" stroke="#e5e7eb" stroke-width="0.8"/>
  <text x="694" y="256" font-size="10" fill="#1e293b">updated_at</text><text x="934" y="256" text-anchor="end" font-size="9" fill="#6b7280">timestamptz</text>
  <line x1="682" y1="260" x2="938" y2="260" stroke="#e5e7eb" stroke-width="0.8"/>
  <text x="694" y="275" font-size="10" fill="#1e293b">updated_by</text><text x="934" y="275" text-anchor="end" font-size="9" fill="#6b7280">varchar</text>
  <!-- Entity border full -->
  <rect x="680" y="90" width="260" height="228" rx="5" fill="none" stroke="#1a7a6e" stroke-width="2"/>

  <!-- ── ENTITY: FACULTY (left-top) ── -->
  <rect x="70" y="90" width="260" height="32" rx="5" fill="#1a7a6e"/>
  <rect x="70" y="116" width="260" height="8" fill="#1a7a6e"/>
  <text x="200" y="111" text-anchor="middle" font-size="13" font-weight="800" fill="white">faculty</text>
  <rect x="70" y="122" width="260" height="196" fill="white"/>
  <!-- PK -->
  <rect x="70" y="122" width="260" height="24" fill="#fff7ed"/>
  <rect x="74" y="126" width="28" height="16" rx="3" fill="#ea580c"/>
  <text x="88" y="138" text-anchor="middle" font-size="9" font-weight="800" fill="white">PK</text>
  <text x="110" y="138" font-size="10" fill="#1e293b">id</text>
  <text x="324" y="138" text-anchor="end" font-size="9" fill="#6b7280">serial</text>
  <!-- FK: department_id -->
  <line x1="72" y1="146" x2="328" y2="146" stroke="#e5e7eb" stroke-width="0.8"/>
  <rect x="74" y="149" width="28" height="16" rx="3" fill="#0f766e"/>
  <text x="88" y="161" text-anchor="middle" font-size="9" font-weight="800" fill="white">FK</text>
  <text x="110" y="161" font-size="10" fill="#1e293b">department_id</text>
  <text x="324" y="161" text-anchor="end" font-size="9" fill="#6b7280">↑ departments</text>
  <!-- Other fields -->
  <line x1="72" y1="165" x2="328" y2="165" stroke="#e5e7eb" stroke-width="0.8"/>
  <text x="84" y="180" font-size="10" fill="#1e293b">employee_id</text><text x="324" y="180" text-anchor="end" font-size="9" fill="#6b7280">varchar · UNIQUE</text>
  <line x1="72" y1="184" x2="328" y2="184" stroke="#e5e7eb" stroke-width="0.8"/>
  <text x="84" y="199" font-size="10" fill="#1e293b">name</text><text x="324" y="199" text-anchor="end" font-size="9" fill="#6b7280">varchar</text>
  <line x1="72" y1="203" x2="328" y2="203" stroke="#e5e7eb" stroke-width="0.8"/>
  <text x="84" y="218" font-size="10" fill="#1e293b">designation</text><text x="324" y="218" text-anchor="end" font-size="9" fill="#6b7280">varchar</text>
  <line x1="72" y1="222" x2="328" y2="222" stroke="#e5e7eb" stroke-width="0.8"/>
  <text x="84" y="237" font-size="10" fill="#1e293b">email</text><text x="324" y="237" text-anchor="end" font-size="9" fill="#6b7280">varchar</text>
  <line x1="72" y1="241" x2="328" y2="241" stroke="#e5e7eb" stroke-width="0.8"/>
  <text x="84" y="256" font-size="10" fill="#1e293b">phone</text><text x="324" y="256" text-anchor="end" font-size="9" fill="#6b7280">varchar</text>
  <line x1="72" y1="260" x2="328" y2="260" stroke="#e5e7eb" stroke-width="0.8"/>
  <text x="84" y="275" font-size="10" fill="#1e293b">is_active</text><text x="324" y="275" text-anchor="end" font-size="9" fill="#6b7280">boolean</text>
  <rect x="70" y="90" width="260" height="228" rx="5" fill="none" stroke="#1a7a6e" stroke-width="2"/>

  <!-- ── ENTITY: COURSES (right-top) ── -->
  <rect x="1290" y="90" width="280" height="32" rx="5" fill="#1a7a6e"/>
  <rect x="1290" y="116" width="280" height="8" fill="#1a7a6e"/>
  <text x="1430" y="111" text-anchor="middle" font-size="13" font-weight="800" fill="white">courses</text>
  <rect x="1290" y="122" width="280" height="210" fill="white"/>
  <!-- PK -->
  <rect x="1290" y="122" width="280" height="24" fill="#fff7ed"/>
  <rect x="1294" y="126" width="28" height="16" rx="3" fill="#ea580c"/>
  <text x="1308" y="138" text-anchor="middle" font-size="9" font-weight="800" fill="white">PK</text>
  <text x="1330" y="138" font-size="10" fill="#1e293b">id</text>
  <text x="1564" y="138" text-anchor="end" font-size="9" fill="#6b7280">serial</text>
  <!-- FK: department_id -->
  <line x1="1292" y1="146" x2="1568" y2="146" stroke="#e5e7eb" stroke-width="0.8"/>
  <rect x="1294" y="149" width="28" height="16" rx="3" fill="#0f766e"/>
  <text x="1308" y="161" text-anchor="middle" font-size="9" font-weight="800" fill="white">FK</text>
  <text x="1330" y="161" font-size="10" fill="#1e293b">department_id</text>
  <text x="1564" y="161" text-anchor="end" font-size="9" fill="#6b7280">↑ departments</text>
  <!-- FK: faculty_id optional -->
  <line x1="1292" y1="165" x2="1568" y2="165" stroke="#e5e7eb" stroke-width="0.8"/>
  <rect x="1294" y="168" width="28" height="16" rx="3" fill="#0f766e" opacity="0.6"/>
  <text x="1308" y="180" text-anchor="middle" font-size="9" font-weight="700" fill="white">FK?</text>
  <text x="1330" y="180" font-size="10" fill="#64748b">faculty_id</text>
  <text x="1564" y="180" text-anchor="end" font-size="9" fill="#94a3b8">↑ faculty (nullable)</text>
  <!-- Fields -->
  <line x1="1292" y1="184" x2="1568" y2="184" stroke="#e5e7eb" stroke-width="0.8"/>
  <text x="1304" y="199" font-size="10" fill="#1e293b">code</text><text x="1564" y="199" text-anchor="end" font-size="9" fill="#6b7280">varchar · UNIQUE</text>
  <line x1="1292" y1="203" x2="1568" y2="203" stroke="#e5e7eb" stroke-width="0.8"/>
  <text x="1304" y="218" font-size="10" fill="#1e293b">name</text><text x="1564" y="218" text-anchor="end" font-size="9" fill="#6b7280">varchar</text>
  <line x1="1292" y1="222" x2="1568" y2="222" stroke="#e5e7eb" stroke-width="0.8"/>
  <text x="1304" y="237" font-size="10" fill="#1e293b">semester</text><text x="1564" y="237" text-anchor="end" font-size="9" fill="#6b7280">int</text>
  <line x1="1292" y1="241" x2="1568" y2="241" stroke="#e5e7eb" stroke-width="0.8"/>
  <text x="1304" y="256" font-size="10" fill="#1e293b">academic_year</text><text x="1564" y="256" text-anchor="end" font-size="9" fill="#6b7280">varchar</text>
  <line x1="1292" y1="260" x2="1568" y2="260" stroke="#e5e7eb" stroke-width="0.8"/>
  <text x="1304" y="275" font-size="10" fill="#1e293b">credits</text><text x="1564" y="275" text-anchor="end" font-size="9" fill="#6b7280">int</text>
  <line x1="1292" y1="279" x2="1568" y2="279" stroke="#e5e7eb" stroke-width="0.8"/>
  <text x="1304" y="294" font-size="10" fill="#1e293b">is_active</text><text x="1564" y="294" text-anchor="end" font-size="9" fill="#6b7280">boolean</text>
  <rect x="1290" y="90" width="280" height="244" rx="5" fill="none" stroke="#1a7a6e" stroke-width="2"/>

  <!-- ── ENTITY: FEEDBACK (center, large, brown) ── -->
  <rect x="650" y="510" width="340" height="32" rx="5" fill="#92400e"/>
  <rect x="650" y="536" width="340" height="8" fill="#92400e"/>
  <text x="820" y="531" text-anchor="middle" font-size="13" font-weight="800" fill="white">feedback</text>
  <rect x="650" y="542" width="340" height="426" fill="white"/>
  <!-- PK -->
  <rect x="650" y="542" width="340" height="24" fill="#fff7ed"/>
  <rect x="654" y="546" width="28" height="16" rx="3" fill="#ea580c"/>
  <text x="668" y="558" text-anchor="middle" font-size="9" font-weight="800" fill="white">PK</text>
  <text x="690" y="558" font-size="10" fill="#1e293b">id</text>
  <text x="984" y="558" text-anchor="end" font-size="9" fill="#6b7280">serial</text>
  <!-- reference_id -->
  <line x1="652" y1="566" x2="988" y2="566" stroke="#e5e7eb" stroke-width="0.8"/>
  <text x="664" y="581" font-size="10" fill="#1e293b">reference_id</text><text x="984" y="581" text-anchor="end" font-size="9" fill="#6b7280">varchar · UNIQUE</text>
  <!-- FK: course_id -->
  <line x1="652" y1="585" x2="988" y2="585" stroke="#e5e7eb" stroke-width="0.8"/>
  <rect x="654" y="588" width="28" height="16" rx="3" fill="#0f766e"/>
  <text x="668" y="600" text-anchor="middle" font-size="9" font-weight="800" fill="white">FK</text>
  <text x="690" y="600" font-size="10" fill="#1e293b">course_id</text><text x="984" y="600" text-anchor="end" font-size="9" fill="#6b7280">↑ courses</text>
  <!-- FK: faculty_id optional -->
  <line x1="652" y1="604" x2="988" y2="604" stroke="#e5e7eb" stroke-width="0.8"/>
  <rect x="654" y="607" width="28" height="16" rx="3" fill="#0f766e" opacity="0.6"/>
  <text x="668" y="619" text-anchor="middle" font-size="9" font-weight="700" fill="white">FK?</text>
  <text x="690" y="619" font-size="10" fill="#64748b">faculty_id</text><text x="984" y="619" text-anchor="end" font-size="9" fill="#94a3b8">↑ faculty (nullable)</text>
  <!-- FK: department_id -->
  <line x1="652" y1="623" x2="988" y2="623" stroke="#e5e7eb" stroke-width="0.8"/>
  <rect x="654" y="626" width="28" height="16" rx="3" fill="#0f766e"/>
  <text x="668" y="638" text-anchor="middle" font-size="9" font-weight="800" fill="white">FK</text>
  <text x="690" y="638" font-size="10" fill="#1e293b">department_id</text><text x="984" y="638" text-anchor="end" font-size="9" fill="#6b7280">↑ departments</text>
  <!-- Rest of fields -->
  <line x1="652" y1="642" x2="988" y2="642" stroke="#e5e7eb" stroke-width="0.8"/>
  <text x="664" y="657" font-size="10" fill="#1e293b">semester</text><text x="984" y="657" text-anchor="end" font-size="9" fill="#6b7280">int</text>
  <line x1="652" y1="661" x2="988" y2="661" stroke="#e5e7eb" stroke-width="0.8"/>
  <text x="664" y="676" font-size="10" fill="#1e293b">academic_year</text><text x="984" y="676" text-anchor="end" font-size="9" fill="#6b7280">varchar</text>
  <line x1="652" y1="680" x2="988" y2="680" stroke="#e5e7eb" stroke-width="0.8"/>
  <text x="664" y="695" font-size="10" fill="#1e293b">student_year · section</text><text x="984" y="695" text-anchor="end" font-size="9" fill="#6b7280">varchar</text>
  <line x1="652" y1="699" x2="988" y2="699" stroke="#e5e7eb" stroke-width="0.8"/>
  <text x="664" y="714" font-size="10" fill="#1e293b">feedback_type</text><text x="984" y="714" text-anchor="end" font-size="9" fill="#6b7280">varchar</text>
  <line x1="652" y1="718" x2="988" y2="718" stroke="#e5e7eb" stroke-width="0.8"/>
  <text x="664" y="733" font-size="10" fill="#1e293b">rating_teaching_quality</text><text x="984" y="733" text-anchor="end" font-size="9" fill="#6b7280">real</text>
  <line x1="652" y1="737" x2="988" y2="737" stroke="#e5e7eb" stroke-width="0.8"/>
  <text x="664" y="752" font-size="10" fill="#1e293b">rating_course_content</text><text x="984" y="752" text-anchor="end" font-size="9" fill="#6b7280">real</text>
  <line x1="652" y1="756" x2="988" y2="756" stroke="#e5e7eb" stroke-width="0.8"/>
  <text x="664" y="771" font-size="10" fill="#1e293b">rating_lab_facilities</text><text x="984" y="771" text-anchor="end" font-size="9" fill="#6b7280">real</text>
  <line x1="652" y1="775" x2="988" y2="775" stroke="#e5e7eb" stroke-width="0.8"/>
  <text x="664" y="790" font-size="10" fill="#1e293b">rating_overall</text><text x="984" y="790" text-anchor="end" font-size="9" fill="#6b7280">real</text>
  <line x1="652" y1="794" x2="988" y2="794" stroke="#e5e7eb" stroke-width="0.8"/>
  <text x="664" y="809" font-size="10" fill="#1e293b">comments</text><text x="984" y="809" text-anchor="end" font-size="9" fill="#6b7280">text</text>
  <line x1="652" y1="813" x2="988" y2="813" stroke="#e5e7eb" stroke-width="0.8"/>
  <text x="664" y="828" font-size="10" fill="#1e293b">is_anonymous</text><text x="984" y="828" text-anchor="end" font-size="9" fill="#6b7280">boolean</text>
  <line x1="652" y1="832" x2="988" y2="832" stroke="#e5e7eb" stroke-width="0.8"/>
  <text x="664" y="847" font-size="10" fill="#1e293b">custom_answers</text><text x="984" y="847" text-anchor="end" font-size="9" fill="#6b7280">jsonb</text>
  <line x1="652" y1="851" x2="988" y2="851" stroke="#e5e7eb" stroke-width="0.8"/>
  <text x="664" y="866" font-size="10" fill="#1e293b">submitted_at</text><text x="984" y="866" text-anchor="end" font-size="9" fill="#6b7280">timestamptz</text>
  <rect x="650" y="510" width="340" height="458" rx="5" fill="none" stroke="#92400e" stroke-width="2.5"/>

  <!-- ── ENTITY: FORM_TEMPLATES (right-bottom) ── -->
  <rect x="1290" y="510" width="280" height="32" rx="5" fill="#6b21a8"/>
  <rect x="1290" y="536" width="280" height="8" fill="#6b21a8"/>
  <text x="1430" y="531" text-anchor="middle" font-size="13" font-weight="800" fill="white">form_templates</text>
  <rect x="1290" y="542" width="280" height="130" fill="white"/>
  <!-- PK -->
  <rect x="1290" y="542" width="280" height="24" fill="#fff7ed"/>
  <rect x="1294" y="546" width="28" height="16" rx="3" fill="#ea580c"/>
  <text x="1308" y="558" text-anchor="middle" font-size="9" font-weight="800" fill="white">PK</text>
  <text x="1330" y="558" font-size="10" fill="#1e293b">id</text>
  <text x="1564" y="558" text-anchor="end" font-size="9" fill="#6b7280">serial</text>
  <!-- FK: department_id -->
  <line x1="1292" y1="566" x2="1568" y2="566" stroke="#e5e7eb" stroke-width="0.8"/>
  <rect x="1294" y="569" width="28" height="16" rx="3" fill="#0f766e"/>
  <text x="1308" y="581" text-anchor="middle" font-size="9" font-weight="800" fill="white">FK</text>
  <text x="1330" y="581" font-size="10" fill="#1e293b">department_id</text>
  <text x="1564" y="581" text-anchor="end" font-size="9" fill="#6b7280">↑ departments · UNIQUE</text>
  <!-- fields -->
  <line x1="1292" y1="585" x2="1568" y2="585" stroke="#e5e7eb" stroke-width="0.8"/>
  <text x="1304" y="600" font-size="10" fill="#1e293b">fields</text><text x="1564" y="600" text-anchor="end" font-size="9" fill="#6b7280">jsonb</text>
  <line x1="1292" y1="604" x2="1568" y2="604" stroke="#e5e7eb" stroke-width="0.8"/>
  <text x="1304" y="619" font-size="10" fill="#1e293b">created_at</text><text x="1564" y="619" text-anchor="end" font-size="9" fill="#6b7280">timestamptz</text>
  <line x1="1292" y1="623" x2="1568" y2="623" stroke="#e5e7eb" stroke-width="0.8"/>
  <text x="1304" y="638" font-size="10" fill="#1e293b">updated_at</text><text x="1564" y="638" text-anchor="end" font-size="9" fill="#6b7280">timestamptz</text>
  <line x1="1292" y1="642" x2="1568" y2="642" stroke="#e5e7eb" stroke-width="0.8"/>
  <text x="1304" y="657" font-size="10" fill="#1e293b">updated_by</text><text x="1564" y="657" text-anchor="end" font-size="9" fill="#6b7280">varchar</text>
  <rect x="1290" y="510" width="280" height="162" rx="5" fill="none" stroke="#6b21a8" stroke-width="2"/>

  <!-- ── ENTITY: FEEDBACK_WINDOWS (left-bottom) ── -->
  <rect x="70" y="510" width="280" height="32" rx="5" fill="#6b21a8"/>
  <rect x="70" y="536" width="280" height="8" fill="#6b21a8"/>
  <text x="210" y="531" text-anchor="middle" font-size="13" font-weight="800" fill="white">feedback_windows</text>
  <rect x="70" y="542" width="280" height="156" fill="white"/>
  <!-- PK -->
  <rect x="70" y="542" width="280" height="24" fill="#fff7ed"/>
  <rect x="74" y="546" width="28" height="16" rx="3" fill="#ea580c"/>
  <text x="88" y="558" text-anchor="middle" font-size="9" font-weight="800" fill="white">PK</text>
  <text x="110" y="558" font-size="10" fill="#1e293b">id</text>
  <text x="344" y="558" text-anchor="end" font-size="9" fill="#6b7280">serial</text>
  <!-- FK: department_id optional -->
  <line x1="72" y1="566" x2="348" y2="566" stroke="#e5e7eb" stroke-width="0.8"/>
  <rect x="74" y="569" width="28" height="16" rx="3" fill="#0f766e" opacity="0.6"/>
  <text x="88" y="581" text-anchor="middle" font-size="9" font-weight="700" fill="white">FK?</text>
  <text x="110" y="581" font-size="10" fill="#64748b">department_id</text>
  <text x="344" y="581" text-anchor="end" font-size="9" fill="#94a3b8">↑ departments (nullable)</text>
  <!-- fields -->
  <line x1="72" y1="585" x2="348" y2="585" stroke="#e5e7eb" stroke-width="0.8"/>
  <text x="84" y="600" font-size="10" fill="#1e293b">title</text><text x="344" y="600" text-anchor="end" font-size="9" fill="#6b7280">varchar</text>
  <line x1="72" y1="604" x2="348" y2="604" stroke="#e5e7eb" stroke-width="0.8"/>
  <text x="84" y="619" font-size="10" fill="#1e293b">is_active</text><text x="344" y="619" text-anchor="end" font-size="9" fill="#6b7280">boolean</text>
  <line x1="72" y1="623" x2="348" y2="623" stroke="#e5e7eb" stroke-width="0.8"/>
  <text x="84" y="638" font-size="10" fill="#1e293b">start_date</text><text x="344" y="638" text-anchor="end" font-size="9" fill="#6b7280">timestamptz</text>
  <line x1="72" y1="642" x2="348" y2="642" stroke="#e5e7eb" stroke-width="0.8"/>
  <text x="84" y="657" font-size="10" fill="#1e293b">end_date</text><text x="344" y="657" text-anchor="end" font-size="9" fill="#6b7280">timestamptz</text>
  <line x1="72" y1="661" x2="348" y2="661" stroke="#e5e7eb" stroke-width="0.8"/>
  <text x="84" y="676" font-size="10" fill="#1e293b">description</text><text x="344" y="676" text-anchor="end" font-size="9" fill="#6b7280">text</text>
  <rect x="70" y="510" width="280" height="198" rx="5" fill="none" stroke="#6b21a8" stroke-width="2"/>

  <!-- ════════════════════════════════════════════
       RELATIONSHIP LINES (dashed) with 1:N badges
       ════════════════════════════════════════════ -->

  <!-- DEPARTMENTS 1 → N FACULTY -->
  <line x1="330" y1="200" x2="680" y2="200" stroke="#64748b" stroke-width="1.8" stroke-dasharray="8,4"/>
  <!-- Cardinality badges -->
  <rect x="332" y="188" width="30" height="20" rx="4" fill="#ea580c"/>
  <text x="347" y="202" text-anchor="middle" font-size="10" font-weight="800" fill="white">1</text>
  <rect x="650" y="188" width="30" height="20" rx="4" fill="#ea580c"/>
  <text x="665" y="202" text-anchor="middle" font-size="10" font-weight="800" fill="white">N</text>

  <!-- DEPARTMENTS 1 → N COURSES -->
  <line x1="940" y1="200" x2="1290" y2="200" stroke="#64748b" stroke-width="1.8" stroke-dasharray="8,4"/>
  <rect x="942" y="188" width="30" height="20" rx="4" fill="#ea580c"/>
  <text x="957" y="202" text-anchor="middle" font-size="10" font-weight="800" fill="white">1</text>
  <rect x="1260" y="188" width="30" height="20" rx="4" fill="#ea580c"/>
  <text x="1275" y="202" text-anchor="middle" font-size="10" font-weight="800" fill="white">N</text>

  <!-- DEPARTMENTS 1 → N FEEDBACK (via vertical line from dept bottom → feedback top) -->
  <line x1="810" y1="318" x2="810" y2="510" stroke="#64748b" stroke-width="1.8" stroke-dasharray="8,4"/>
  <rect x="796" y="320" width="30" height="20" rx="4" fill="#ea580c"/>
  <text x="811" y="334" text-anchor="middle" font-size="10" font-weight="800" fill="white">1</text>
  <rect x="796" y="490" width="30" height="20" rx="4" fill="#ea580c"/>
  <text x="811" y="504" text-anchor="middle" font-size="10" font-weight="800" fill="white">N</text>

  <!-- DEPARTMENTS 1 → 1 FORM_TEMPLATES -->
  <line x1="940" y1="600" x2="1290" y2="600" stroke="#64748b" stroke-width="1.8" stroke-dasharray="8,4"/>
  <rect x="942" y="588" width="30" height="20" rx="4" fill="#9333ea"/>
  <text x="957" y="602" text-anchor="middle" font-size="10" font-weight="800" fill="white">1</text>
  <rect x="1260" y="588" width="30" height="20" rx="4" fill="#9333ea"/>
  <text x="1275" y="602" text-anchor="middle" font-size="10" font-weight="800" fill="white">1</text>
  <line x1="940" y1="310" x2="1290" y2="540" stroke="#94a3b8" stroke-width="1.4" stroke-dasharray="5,4"/>
  <!-- Connector: Dept right edge → through → form_templates -->

  <!-- COURSES 1 → N FEEDBACK -->
  <line x1="1430" y1="334" x2="1430" y2="460" stroke="#64748b" stroke-width="1.8" stroke-dasharray="8,4"/>
  <line x1="1430" y1="460" x2="990" y2="580" stroke="#64748b" stroke-width="1.8" stroke-dasharray="8,4"/>
  <rect x="1418" y="335" width="30" height="20" rx="4" fill="#ea580c"/>
  <text x="1433" y="349" text-anchor="middle" font-size="10" font-weight="800" fill="white">1</text>
  <rect x="970" y="572" width="30" height="20" rx="4" fill="#ea580c"/>
  <text x="985" y="586" text-anchor="middle" font-size="10" font-weight="800" fill="white">N</text>

  <!-- FACULTY 0..1 → N FEEDBACK (optional) -->
  <line x1="200" y1="318" x2="200" y2="460" stroke="#94a3b8" stroke-width="1.5" stroke-dasharray="6,4"/>
  <line x1="200" y1="460" x2="650" y2="612" stroke="#94a3b8" stroke-width="1.5" stroke-dasharray="6,4"/>
  <rect x="186" y="320" width="32" height="20" rx="4" fill="#0f766e"/>
  <text x="202" y="334" text-anchor="middle" font-size="9" font-weight="800" fill="white">0..1</text>
  <rect x="624" y="604" width="28" height="20" rx="4" fill="#ea580c"/>
  <text x="638" y="618" text-anchor="middle" font-size="10" font-weight="800" fill="white">N</text>

  <!-- DEPARTMENTS 1 → 0..N FEEDBACK_WINDOWS -->
  <line x1="680" y1="580" x2="350" y2="580" stroke="#64748b" stroke-width="1.8" stroke-dasharray="8,4"/>
  <rect x="652" y="568" width="30" height="20" rx="4" fill="#ea580c"/>
  <text x="667" y="582" text-anchor="middle" font-size="10" font-weight="800" fill="white">1</text>
  <rect x="320" y="568" width="36" height="20" rx="4" fill="#ea580c"/>
  <text x="338" y="582" text-anchor="middle" font-size="10" font-weight="800" fill="white">0..N</text>

  <!-- ════════════════════════════════════════════
       LEGEND (bottom-right, matching reference)
       ════════════════════════════════════════════ -->
  <rect x="1480" y="870" width="300" height="178" rx="8" fill="#1e3a5f" filter="url(#sh3)"/>
  <text x="1630" y="892" text-anchor="middle" font-size="12" font-weight="800" fill="white">LEGEND</text>
  <!-- PK badge -->
  <rect x="1500" y="904" width="28" height="18" rx="3" fill="#ea580c"/>
  <text x="1514" y="917" text-anchor="middle" font-size="9" font-weight="800" fill="white">PK</text>
  <text x="1536" y="917" font-size="10" fill="#e2e8f0">Primary Key</text>
  <!-- FK badge -->
  <rect x="1500" y="928" width="28" height="18" rx="3" fill="#0f766e"/>
  <text x="1514" y="941" text-anchor="middle" font-size="9" font-weight="800" fill="white">FK</text>
  <text x="1536" y="941" font-size="10" fill="#e2e8f0">Foreign Key</text>
  <!-- FK? badge -->
  <rect x="1500" y="952" width="28" height="18" rx="3" fill="#0f766e" opacity="0.6"/>
  <text x="1514" y="965" text-anchor="middle" font-size="9" font-weight="700" fill="white">FK?</text>
  <text x="1536" y="965" font-size="10" fill="#e2e8f0">Optional FK (nullable)</text>
  <!-- Relationship line -->
  <line x1="1500" y1="985" x2="1548" y2="985" stroke="#94a3b8" stroke-width="1.8" stroke-dasharray="8,4"/>
  <text x="1556" y="989" font-size="10" fill="#e2e8f0">Relationship (dashed)</text>
  <!-- Cardinality badge -->
  <rect x="1500" y="1000" width="28" height="18" rx="4" fill="#ea580c"/>
  <text x="1514" y="1013" text-anchor="middle" font-size="10" font-weight="800" fill="white">1:N</text>
  <text x="1536" y="1013" font-size="10" fill="#e2e8f0">Cardinality Badge</text>
  <!-- Columns label -->
  <text x="1500" y="1036" font-size="9" fill="#93c5fd">Columns: KEY | Field Name | Data Type</text>
</svg>