<?xml version="1.0" encoding="UTF-8"?>
<svg xmlns="http://www.w3.org/2000/svg" width="1560" height="1000" viewBox="0 0 1560 1000" font-family="Arial,sans-serif">
  <rect width="1560" height="1000" fill="#0f172a"/>
  <rect x="0" y="0" width="1560" height="42" fill="#1e40af"/>
  <text x="780" y="26" text-anchor="middle" font-size="15" font-weight="800" fill="white">ER Diagram — Entity Relationship Diagram · CUPGS Feedback System (Chen Notation)</text>
  <defs>
    <marker id="ae" markerWidth="10" markerHeight="8" refX="10" refY="4" orient="auto">
      <polygon points="0 0,10 4,0 8" fill="#64748b"/>
    </marker>
  </defs>

  <!-- Entity: DEPARTMENTS -->
  <rect x="580" y="90" width="220" height="148" rx="6" fill="#1e3a8a" stroke="#3b82f6" stroke-width="2"/>
  <rect x="580" y="90" width="220" height="32" rx="6" fill="#1d4ed8"/>
  <rect x="580" y="116" width="220" height="6" fill="#1d4ed8"/>
  <text x="690" y="110" text-anchor="middle" font-size="13" font-weight="800" fill="white">DEPARTMENTS</text>
  <text x="592" y="136" font-size="9" fill="#fbbf24" font-weight="700">PK  id (serial)</text>
  <line x1="584" y1="144" x2="796" y2="144" stroke="#3b82f6" stroke-width="0.5"/>
  <text x="592" y="156" font-size="9" fill="#e2e8f0">code (varchar) UNIQUE</text>
  <text x="592" y="168" font-size="9" fill="#e2e8f0">name (varchar)</text>
  <text x="592" y="180" font-size="9" fill="#e2e8f0">hod_name (varchar)</text>
  <text x="592" y="192" font-size="9" fill="#e2e8f0">hod_employee_id (varchar)</text>
  <text x="592" y="204" font-size="9" fill="#e2e8f0">created_at (timestamptz)</text>
  <text x="592" y="216" font-size="9" fill="#e2e8f0">updated_at (timestamptz)</text>
  <text x="592" y="228" font-size="9" fill="#e2e8f0">updated_by (varchar)</text>

  <!-- Entity: COURSES -->
  <rect x="1090" y="80" width="215" height="162" rx="6" fill="#1e3a8a" stroke="#3b82f6" stroke-width="2"/>
  <rect x="1090" y="80" width="215" height="32" rx="6" fill="#1d4ed8"/>
  <rect x="1090" y="106" width="215" height="6" fill="#1d4ed8"/>
  <text x="1198" y="100" text-anchor="middle" font-size="13" font-weight="800" fill="white">COURSES</text>
  <text x="1102" y="126" font-size="9" fill="#fbbf24" font-weight="700">PK  id (serial)</text>
  <line x1="1094" y1="134" x2="1301" y2="134" stroke="#3b82f6" stroke-width="0.5"/>
  <text x="1102" y="146" font-size="9" fill="#e2e8f0">code (varchar) UNIQUE</text>
  <text x="1102" y="158" font-size="9" fill="#e2e8f0">name (varchar)</text>
  <text x="1102" y="170" font-size="9" fill="#e2e8f0">department_id (FK)</text>
  <text x="1102" y="182" font-size="9" fill="#93c5fd">faculty_id (FK nullable)</text>
  <text x="1102" y="194" font-size="9" fill="#e2e8f0">semester (int)</text>
  <text x="1102" y="206" font-size="9" fill="#e2e8f0">academic_year (varchar)</text>
  <text x="1102" y="218" font-size="9" fill="#e2e8f0">credits (int)</text>
  <text x="1102" y="230" font-size="9" fill="#e2e8f0">is_active (boolean)</text>

  <!-- Entity: FACULTY -->
  <rect x="56" y="80" width="220" height="148" rx="6" fill="#1e3a8a" stroke="#3b82f6" stroke-width="2"/>
  <rect x="56" y="80" width="220" height="32" rx="6" fill="#1d4ed8"/>
  <rect x="56" y="106" width="220" height="6" fill="#1d4ed8"/>
  <text x="166" y="100" text-anchor="middle" font-size="13" font-weight="800" fill="white">FACULTY</text>
  <text x="68" y="126" font-size="9" fill="#fbbf24" font-weight="700">PK  id (serial)</text>
  <line x1="60" y1="134" x2="272" y2="134" stroke="#3b82f6" stroke-width="0.5"/>
  <text x="68" y="146" font-size="9" fill="#e2e8f0">employee_id (varchar) UNIQUE</text>
  <text x="68" y="158" font-size="9" fill="#e2e8f0">name (varchar)</text>
  <text x="68" y="170" font-size="9" fill="#e2e8f0">designation (varchar)</text>
  <text x="68" y="182" font-size="9" fill="#e2e8f0">email (varchar)</text>
  <text x="68" y="194" font-size="9" fill="#e2e8f0">phone (varchar)</text>
  <text x="68" y="206" font-size="9" fill="#e2e8f0">department_id (FK)</text>
  <text x="68" y="218" font-size="9" fill="#e2e8f0">is_active (boolean)</text>

  <!-- Entity: FEEDBACK -->
  <rect x="510" y="560" width="260" height="280" rx="6" fill="#1e3a8a" stroke="#3b82f6" stroke-width="2"/>
  <rect x="510" y="560" width="260" height="32" rx="6" fill="#1d4ed8"/>
  <rect x="510" y="586" width="260" height="6" fill="#1d4ed8"/>
  <text x="640" y="580" text-anchor="middle" font-size="13" font-weight="800" fill="white">FEEDBACK</text>
  <text x="522" y="604" font-size="9" fill="#fbbf24" font-weight="700">PK  id (serial)</text>
  <line x1="514" y1="612" x2="766" y2="612" stroke="#3b82f6" stroke-width="0.5"/>
  <text x="522" y="624" font-size="9" fill="#e2e8f0">reference_id UNIQUE</text>
  <text x="522" y="636" font-size="9" fill="#e2e8f0">course_id (FK)</text>
  <text x="522" y="648" font-size="9" fill="#93c5fd">faculty_id (FK nullable)</text>
  <text x="522" y="660" font-size="9" fill="#e2e8f0">department_id (FK)</text>
  <text x="522" y="672" font-size="9" fill="#e2e8f0">semester, academic_year</text>
  <text x="522" y="684" font-size="9" fill="#e2e8f0">student_year, section</text>
  <text x="522" y="696" font-size="9" fill="#e2e8f0">feedback_type</text>
  <text x="522" y="708" font-size="9" fill="#e2e8f0">rating_teaching_quality (real)</text>
  <text x="522" y="720" font-size="9" fill="#e2e8f0">rating_course_content (real)</text>
  <text x="522" y="732" font-size="9" fill="#e2e8f0">rating_lab_facilities (real)</text>
  <text x="522" y="744" font-size="9" fill="#e2e8f0">rating_study_material (real)</text>
  <text x="522" y="756" font-size="9" fill="#e2e8f0">rating_overall (real)</text>
  <text x="522" y="768" font-size="9" fill="#e2e8f0">comments (text)</text>
  <text x="522" y="780" font-size="9" fill="#e2e8f0">is_anonymous (boolean)</text>
  <text x="522" y="792" font-size="9" fill="#e2e8f0">custom_answers (jsonb)</text>
  <text x="522" y="804" font-size="9" fill="#e2e8f0">submitted_at (timestamptz)</text>

  <!-- Entity: FORM_TEMPLATES -->
  <rect x="1090" y="558" width="240" height="100" rx="6" fill="#1e3a8a" stroke="#3b82f6" stroke-width="2"/>
  <rect x="1090" y="558" width="240" height="32" rx="6" fill="#1d4ed8"/>
  <rect x="1090" y="584" width="240" height="6" fill="#1d4ed8"/>
  <text x="1210" y="578" text-anchor="middle" font-size="13" font-weight="800" fill="white">FORM_TEMPLATES</text>
  <text x="1102" y="602" font-size="9" fill="#fbbf24" font-weight="700">PK  id (serial)</text>
  <line x1="1094" y1="610" x2="1326" y2="610" stroke="#3b82f6" stroke-width="0.5"/>
  <text x="1102" y="622" font-size="9" fill="#e2e8f0">department_id (FK) UNIQUE</text>
  <text x="1102" y="634" font-size="9" fill="#e2e8f0">fields (jsonb)</text>
  <text x="1102" y="646" font-size="9" fill="#e2e8f0">created_at / updated_at</text>

  <!-- Entity: FEEDBACK_WINDOWS -->
  <rect x="56" y="558" width="240" height="130" rx="6" fill="#1e3a8a" stroke="#3b82f6" stroke-width="2"/>
  <rect x="56" y="558" width="240" height="32" rx="6" fill="#1d4ed8"/>
  <rect x="56" y="584" width="240" height="6" fill="#1d4ed8"/>
  <text x="176" y="578" text-anchor="middle" font-size="13" font-weight="800" fill="white">FEEDBACK_WINDOWS</text>
  <text x="68" y="602" font-size="9" fill="#fbbf24" font-weight="700">PK  id (serial)</text>
  <line x1="60" y1="610" x2="292" y2="610" stroke="#3b82f6" stroke-width="0.5"/>
  <text x="68" y="622" font-size="9" fill="#e2e8f0">title (varchar)</text>
  <text x="68" y="634" font-size="9" fill="#93c5fd">department_id (FK nullable)</text>
  <text x="68" y="646" font-size="9" fill="#e2e8f0">is_active (boolean)</text>
  <text x="68" y="658" font-size="9" fill="#e2e8f0">start_date (timestamptz)</text>
  <text x="68" y="670" font-size="9" fill="#e2e8f0">end_date (timestamptz)</text>

  <!-- Relationship Diamonds (Chen) -->
  <!-- DEPARTMENTS OFFERS COURSES -->
  <polygon points="880,164 940,164 910,184 880,164" fill="#7c3aed" stroke="#a78bfa" stroke-width="1.5"/>
  <text x="910" y="178" text-anchor="middle" font-size="9" font-weight="700" fill="white">OFFERS</text>
  <line x1="800" y1="164" x2="880" y2="170" stroke="#64748b" stroke-width="1.5"/>
  <line x1="940" y1="170" x2="1090" y2="158" stroke="#64748b" stroke-width="1.5"/>
  <text x="818" y="158" font-size="11" font-weight="800" fill="#f59e0b">1</text>
  <text x="1072" y="152" font-size="11" font-weight="800" fill="#f59e0b">N</text>

  <!-- DEPARTMENTS EMPLOYS FACULTY -->
  <polygon points="316,164 376,164 346,184 316,164" fill="#7c3aed" stroke="#a78bfa" stroke-width="1.5"/>
  <text x="346" y="178" text-anchor="middle" font-size="9" font-weight="700" fill="white">EMPLOYS</text>
  <line x1="580" y1="164" x2="376" y2="170" stroke="#64748b" stroke-width="1.5"/>
  <line x1="316" y1="170" x2="276" y2="154" stroke="#64748b" stroke-width="1.5"/>
  <text x="564" y="158" font-size="11" font-weight="800" fill="#f59e0b">1</text>
  <text x="278" y="148" font-size="11" font-weight="800" fill="#f59e0b">N</text>

  <!-- COURSES TEACHES via FEEDBACK -->
  <polygon points="750,430 810,430 780,450 750,430" fill="#7c3aed" stroke="#a78bfa" stroke-width="1.5"/>
  <text x="780" y="444" text-anchor="middle" font-size="9" font-weight="700" fill="white">RECORDED IN</text>
  <line x1="1090" y1="220" x2="780" y2="430" stroke="#64748b" stroke-width="1.3"/>
  <line x1="780" y1="450" x2="710" y2="560" stroke="#64748b" stroke-width="1.3"/>
  <text x="1068" y="214" font-size="11" font-weight="800" fill="#f59e0b">1</text>
  <text x="716" y="554" font-size="11" font-weight="800" fill="#f59e0b">N</text>

  <!-- DEPT HAS FORM_TEMPLATE -->
  <polygon points="1170,388 1230,388 1200,408 1170,388" fill="#7c3aed" stroke="#a78bfa" stroke-width="1.5"/>
  <text x="1200" y="402" text-anchor="middle" font-size="9" font-weight="700" fill="white">HAS FORM</text>
  <line x1="1200" y1="238" x2="1200" y2="388" stroke="#64748b" stroke-width="1.3"/>
  <line x1="1200" y1="408" x2="1200" y2="558" stroke="#64748b" stroke-width="1.3"/>
  <text x="1208" y="254" font-size="11" font-weight="800" fill="#f59e0b">1</text>
  <text x="1208" y="554" font-size="11" font-weight="800" fill="#f59e0b">1</text>

  <!-- DEPT SCOPES FEEDBACK_WINDOWS -->
  <polygon points="320,420 380,420 350,440 320,420" fill="#7c3aed" stroke="#a78bfa" stroke-width="1.5"/>
  <text x="350" y="434" text-anchor="middle" font-size="9" font-weight="700" fill="white">SCOPES</text>
  <line x1="580" y1="200" x2="350" y2="420" stroke="#64748b" stroke-width="1.3"/>
  <line x1="350" y1="440" x2="230" y2="558" stroke="#64748b" stroke-width="1.3"/>
  <text x="562" y="194" font-size="11" font-weight="800" fill="#f59e0b">1</text>
  <text x="228" y="552" font-size="11" font-weight="800" fill="#f59e0b">0..N</text>

  <!-- FEEDBACK BELONGS TO DEPT -->
  <polygon points="620,430 680,430 650,450 620,430" fill="#7c3aed" stroke="#a78bfa" stroke-width="1.5"/>
  <text x="650" y="444" text-anchor="middle" font-size="9" font-weight="700" fill="white">BELONGS TO</text>
  <line x1="690" y1="238" x2="650" y2="430" stroke="#64748b" stroke-width="1.3"/>
  <line x1="650" y1="450" x2="640" y2="560" stroke="#64748b" stroke-width="1.3"/>
  <text x="696" y="232" font-size="11" font-weight="800" fill="#f59e0b">1</text>
  <text x="642" y="554" font-size="11" font-weight="800" fill="#f59e0b">N</text>

  <!-- Optional FK: Faculty -> Feedback (dashed) -->
  <line x1="276" y1="192" x2="510" y2="650" stroke="#6366f1" stroke-width="1.5" stroke-dasharray="8,4"/>
  <text x="330" y="470" font-size="9" fill="#818cf8" transform="rotate(-58, 330, 470)">0..1 optional FK</text>

  <!-- Legend -->
  <rect x="20" y="948" width="540" height="42" rx="5" fill="#1e293b" stroke="#334155" stroke-width="1"/>
  <text x="36" y="963" font-size="10" font-weight="800" fill="white">LEGEND — Chen Notation</text>
  <rect x="36" y="970" width="22" height="14" rx="3" fill="#1e3a8a" stroke="#3b82f6" stroke-width="1"/>
  <text x="64" y="981" font-size="9" fill="#e2e8f0">Entity</text>
  <polygon points="130,984 156,977 130,970 104,977" fill="#7c3aed" stroke="#a78bfa" stroke-width="1"/>
  <text x="162" y="981" font-size="9" fill="#e2e8f0">Relationship (Diamond)</text>
  <text x="332" y="981" font-size="11" fill="#f59e0b" font-weight="700">1, N</text>
  <text x="356" y="981" font-size="9" fill="#e2e8f0">= Cardinality</text>
  <line x1="436" y1="977" x2="472" y2="977" stroke="#6366f1" stroke-width="1.5" stroke-dasharray="6,3"/>
  <text x="478" y="981" font-size="9" fill="#e2e8f0">Optional FK</text>
</svg>